<?xml version="1.0" encoding="utf-8"?>
<!-- Generator: Adobe Illustrator 27.5.0, SVG Export Plug-In . SVG Version: 6.00 Build 0)  -->
<svg version="1.1" xmlns="http://www.w3.org/2000/svg" xmlns:xlink="http://www.w3.org/1999/xlink" x="0px" y="0px"
	 viewBox="0 0 500 500" style="enable-background:new 0 0 500 500;" xml:space="preserve">
<g id="Background_Simple">
	<g>
		<path style="fill:#92E3A9;" d="M400.699,431.591c24.712-22.225,43.066-52.573,56.93-82.008
			c20.594-43.724,31.555-98.274,2.808-140.785c-16.578-24.515-42.481-40.018-71.231-45.833
			c-27.655-5.594-54.555-4.383-78.344-21.919c-24.068-17.742-44.995-39.888-66.539-60.498
			C188.94,27.568,88.331,42.755,41.588,114.114C-5.154,185.473,7.622,278.172,52.572,321.172
			c40.391,38.638,96.804,46.193,141.39,76.387c22.111,14.973,37.564,37.067,61.013,50.241c27.258,15.314,60.666,21.587,91.361,13.77
			C367.256,456.242,385.224,445.509,400.699,431.591z"/>
		<path style="opacity:0.7;fill:#FFFFFF;" d="M400.699,431.591c24.712-22.225,43.066-52.573,56.93-82.008
			c20.594-43.724,31.555-98.274,2.808-140.785c-16.578-24.515-42.481-40.018-71.231-45.833
			c-27.655-5.594-54.555-4.383-78.344-21.919c-24.068-17.742-44.995-39.888-66.539-60.498
			C188.94,27.568,88.331,42.755,41.588,114.114C-5.154,185.473,7.622,278.172,52.572,321.172
			c40.391,38.638,96.804,46.193,141.39,76.387c22.111,14.973,37.564,37.067,61.013,50.241c27.258,15.314,60.666,21.587,91.361,13.77
			C367.256,456.242,385.224,445.509,400.699,431.591z"/>
	</g>
</g>
<g id="Plants">
	<g>
		<g>
			
				<line style="fill:none;stroke:#263238;stroke-width:0.9853;stroke-linecap:round;stroke-linejoin:round;stroke-miterlimit:10;" x1="446.759" y1="443.849" x2="442.895" y2="407.524"/>
			
				<path style="fill:#92E3A9;stroke:#263238;stroke-width:0.9853;stroke-linecap:round;stroke-linejoin:round;stroke-miterlimit:10;" d="
				M442.874,408.54c0,0-6.956-5.41-6.956-17.776c0-12.366,9.275-22.414,9.275-22.414s10.047,12.366,7.729,24.732
				C450.603,405.449,442.874,408.54,442.874,408.54z"/>
			
				<line style="fill:none;stroke:#263238;stroke-width:0.9853;stroke-linecap:round;stroke-linejoin:round;stroke-miterlimit:10;" x1="442.895" y1="407.524" x2="444.656" y2="380.218"/>
		</g>
		<g>
			
				<path style="fill:none;stroke:#263238;stroke-width:0.9853;stroke-linecap:round;stroke-linejoin:round;stroke-miterlimit:10;" d="
				M450.33,441.169c0,0,5.255-13.907,12.309-25.072"/>
			<g>
				
					<path style="fill:#92E3A9;stroke:#263238;stroke-width:0.9853;stroke-linecap:round;stroke-linejoin:round;stroke-miterlimit:10;" d="
					M458.997,422.67c0,0-3.854-7.925,1.605-19.021c5.458-11.096,18.215-16.018,18.215-16.018s3.558,15.531-3.981,25.604
					C467.297,423.307,458.997,422.67,458.997,422.67z"/>
				
					<line style="fill:none;stroke:#263238;stroke-width:0.9853;stroke-linecap:round;stroke-linejoin:round;stroke-miterlimit:10;" x1="458.997" y1="422.67" x2="473.07" y2="399.539"/>
			</g>
		</g>
		<g>
			
				<path style="fill:none;stroke:#263238;stroke-width:0.9853;stroke-linecap:round;stroke-linejoin:round;stroke-miterlimit:10;" d="
				M440.49,444.414c0,0-3.092-10.82-8.502-20.095c-5.41-9.275-5.41-9.275-5.41-9.275"/>
			
				<path style="fill:#92E3A9;stroke:#263238;stroke-width:0.9853;stroke-linecap:round;stroke-linejoin:round;stroke-miterlimit:10;" d="
				M430.934,422.208c0,0-13.05,4.868-25.044-5.217c-11.994-10.085-11.335-30.652-11.335-30.652s23.265-3.32,32.658,9.858
				C436.605,409.375,430.934,422.208,430.934,422.208z"/>
			
				<line style="fill:none;stroke:#263238;stroke-width:0.9853;stroke-linecap:round;stroke-linejoin:round;stroke-miterlimit:10;" x1="430.934" y1="422.208" x2="403.362" y2="393.478"/>
		</g>
		
			<rect x="430.047" y="436.068" style="fill:#263238;stroke:#263238;stroke-width:0.9853;stroke-linecap:round;stroke-linejoin:round;stroke-miterlimit:10;" width="29.431" height="28.865"/>
	</g>
</g>
<g id="Window">
	<g>
		
			<rect x="213.454" y="29" style="fill:#FFFFFF;stroke:#263238;stroke-width:0.9853;stroke-linecap:round;stroke-linejoin:round;stroke-miterlimit:10;" width="196.864" height="165.846"/>
		<g>
			<path style="fill:#263238;" d="M254.31,122.243h-1.597l-0.273-1.827h-1.942l-0.274,1.827h-1.453l1.611-10.074h2.317
				L254.31,122.243z M250.698,119.048h1.525l-0.763-5.094L250.698,119.048z"/>
			<path style="fill:#263238;" d="M256.554,112.169v7.771c0,0.72,0.317,0.979,0.82,0.979c0.504,0,0.821-0.259,0.821-0.979v-7.771
				h1.497v7.67c0,1.612-0.806,2.533-2.36,2.533c-1.555,0-2.36-0.921-2.36-2.533v-7.67H256.554z"/>
			<path style="fill:#263238;" d="M260.309,112.169h4.893v1.439h-1.655v8.635h-1.583v-8.635h-1.655V112.169z"/>
			<path style="fill:#263238;" d="M267.476,122.243h-1.583v-10.074h1.583v4.318h1.799v-4.318h1.612v10.074h-1.612v-4.317h-1.799
				V122.243z"/>
			<path style="fill:#263238;" d="M273.62,116.414h2.173v1.439h-2.173v2.95h2.734v1.439h-4.318v-10.074h4.318v1.439h-2.734V116.414z
				"/>
			<path style="fill:#263238;" d="M278.742,114.947v7.296h-1.424v-10.074h1.986l1.626,6.03v-6.03h1.41v10.074h-1.626
				L278.742,114.947z"/>
			<path style="fill:#263238;" d="M283.015,112.169h4.893v1.439h-1.655v8.635h-1.583v-8.635h-1.655V112.169z"/>
			<path style="fill:#263238;" d="M288.598,112.169h1.583v10.074h-1.583V112.169z"/>
			<path style="fill:#263238;" d="M295.923,118.486v1.339c0,1.611-0.806,2.532-2.36,2.532c-1.555,0-2.361-0.921-2.361-2.532v-5.239
				c0-1.612,0.806-2.533,2.361-2.533c1.554,0,2.36,0.921,2.36,2.533v0.979h-1.497v-1.079c0-0.72-0.316-0.993-0.82-0.993
				c-0.503,0-0.82,0.273-0.82,0.993v5.439c0,0.72,0.317,0.979,0.82,0.979c0.504,0,0.82-0.259,0.82-0.979v-1.439H295.923z"/>
			<path style="fill:#263238;" d="M302.009,122.243h-1.598l-0.273-1.827h-1.942l-0.274,1.827h-1.453l1.612-10.074h2.317
				L302.009,122.243z M298.396,119.048h1.525l-0.763-5.094L298.396,119.048z"/>
			<path style="fill:#263238;" d="M301.734,112.169h4.894v1.439h-1.655v8.635h-1.583v-8.635h-1.656V112.169z"/>
			<path style="fill:#263238;" d="M308.901,116.414h2.173v1.439h-2.173v2.95h2.735v1.439h-4.318v-10.074h4.318v1.439h-2.735V116.414
				z"/>
			<path style="fill:#263238;" d="M316.325,118.904l-2-6.735h1.655l1.208,4.591l1.208-4.591h1.511l-2,6.735v3.339h-1.583V118.904z"
				/>
			<path style="fill:#263238;" d="M320.196,114.586c0-1.612,0.849-2.533,2.403-2.533c1.555,0,2.404,0.921,2.404,2.533v5.239
				c0,1.611-0.849,2.532-2.404,2.532c-1.553,0-2.403-0.921-2.403-2.532V114.586z M321.779,119.925c0,0.72,0.317,0.993,0.82,0.993
				c0.505,0,0.82-0.273,0.82-0.993v-5.439c0-0.72-0.315-0.993-0.82-0.993c-0.503,0-0.82,0.273-0.82,0.993V119.925z"/>
			<path style="fill:#263238;" d="M327.535,112.169v7.771c0,0.72,0.317,0.979,0.82,0.979s0.82-0.259,0.82-0.979v-7.771h1.497v7.67
				c0,1.612-0.806,2.533-2.361,2.533c-1.555,0-2.359-0.921-2.359-2.533v-7.67H327.535z"/>
			<path style="fill:#263238;" d="M335.06,122.243c-0.087-0.259-0.144-0.417-0.144-1.238v-1.583c0-0.936-0.317-1.281-1.036-1.281
				h-0.547v4.101h-1.583v-10.074h2.389c1.64,0,2.345,0.763,2.345,2.317v0.791c0,1.036-0.331,1.712-1.036,2.043
				c0.792,0.331,1.051,1.094,1.051,2.144v1.555c0,0.489,0.014,0.849,0.172,1.223H335.06z M333.333,113.608v3.094h0.62
				c0.589,0,0.949-0.259,0.949-1.065v-0.993c0-0.72-0.244-1.037-0.806-1.037H333.333z"/>
			<path style="fill:#263238;" d="M344.887,122.243h-1.597l-0.273-1.827h-1.943l-0.273,1.827h-1.454l1.612-10.074h2.317
				L344.887,122.243z M341.276,119.048h1.525l-0.763-5.094L341.276,119.048z"/>
			<path style="fill:#263238;" d="M350.198,118.486v1.339c0,1.611-0.806,2.532-2.361,2.532c-1.555,0-2.361-0.921-2.361-2.532v-5.239
				c0-1.612,0.806-2.533,2.361-2.533c1.555,0,2.361,0.921,2.361,2.533v0.979h-1.497v-1.079c0-0.72-0.317-0.993-0.82-0.993
				c-0.503,0-0.82,0.273-0.82,0.993v5.439c0,0.72,0.317,0.979,0.82,0.979c0.503,0,0.82-0.259,0.82-0.979v-1.439H350.198z"/>
			<path style="fill:#263238;" d="M355.752,118.486v1.339c0,1.611-0.806,2.532-2.361,2.532c-1.555,0-2.361-0.921-2.361-2.532v-5.239
				c0-1.612,0.806-2.533,2.361-2.533c1.555,0,2.361,0.921,2.361,2.533v0.979h-1.497v-1.079c0-0.72-0.317-0.993-0.82-0.993
				s-0.82,0.273-0.82,0.993v5.439c0,0.72,0.317,0.979,0.82,0.979s0.82-0.259,0.82-0.979v-1.439H355.752z"/>
			<path style="fill:#263238;" d="M356.585,114.586c0-1.612,0.849-2.533,2.403-2.533c1.555,0,2.404,0.921,2.404,2.533v5.239
				c0,1.611-0.849,2.532-2.404,2.532c-1.553,0-2.403-0.921-2.403-2.532V114.586z M358.168,119.925c0,0.72,0.317,0.993,0.82,0.993
				c0.505,0,0.82-0.273,0.82-0.993v-5.439c0-0.72-0.315-0.993-0.82-0.993c-0.503,0-0.82,0.273-0.82,0.993V119.925z"/>
			<path style="fill:#263238;" d="M363.924,112.169v7.771c0,0.72,0.317,0.979,0.82,0.979s0.82-0.259,0.82-0.979v-7.771h1.497v7.67
				c0,1.612-0.806,2.533-2.361,2.533c-1.555,0-2.359-0.921-2.359-2.533v-7.67H363.924z"/>
			<path style="fill:#263238;" d="M369.55,114.947v7.296h-1.424v-10.074h1.985l1.626,6.03v-6.03h1.41v10.074h-1.626L369.55,114.947z
				"/>
			<path style="fill:#263238;" d="M373.823,112.169h4.894v1.439h-1.655v8.635h-1.583v-8.635h-1.655V112.169z"/>
		</g>
		<g>
			
				<ellipse transform="matrix(0.1591 -0.9873 0.9873 0.1591 186.3412 374.1588)" style="fill:#92E3A9;" cx="312.804" cy="77.696" rx="22.578" ry="22.578"/>
			<path style="fill:#263238;" d="M322.645,72.486c0,5.436-4.406,9.842-9.842,9.842c-5.435,0-9.842-4.406-9.842-9.842
				c0-5.435,4.406-9.842,9.842-9.842C318.239,62.644,322.645,67.05,322.645,72.486z"/>
			<path style="fill:#263238;" d="M296.594,93.404c4.104,4.234,9.848,6.87,16.21,6.87s12.106-2.636,16.21-6.87v-0.656
				c0-4.796-3.888-8.684-8.684-8.684h-15.052c-4.796,0-8.684,3.888-8.684,8.684V93.404z"/>
		</g>
		
			<rect x="244.248" y="140.385" style="fill:none;stroke:#263238;stroke-width:0.9853;stroke-miterlimit:10;" width="136.22" height="16.557"/>
		
			<rect x="244.248" y="165.221" style="fill:#92E3A9;stroke:#263238;stroke-width:0.9853;stroke-miterlimit:10;" width="136.22" height="16.557"/>
		<g>
			<path style="fill:#BDBDBD;" d="M289.943,149.143v1.008h-2.461v3.584h3.023v1.022h-4.146V144.68h4.146v1.022h-3.023v3.441H289.943
				z"/>
			<path style="fill:#BDBDBD;" d="M292.532,154.757h-1.007V144.68h1.425l2.332,7.284v-7.284h0.993v10.077h-1.166l-2.577-8.148
				V154.757z"/>
			<path style="fill:#BDBDBD;" d="M298.892,154.757v-9.055h-1.858v-1.022h4.837v1.022h-1.858v9.055H298.892z"/>
			<path style="fill:#BDBDBD;" d="M306.232,149.143v1.008h-2.461v3.584h3.023v1.022h-4.146V144.68h4.146v1.022h-3.023v3.441H306.232
				z"/>
			<path style="fill:#BDBDBD;" d="M310.073,144.68c1.583,0,2.245,0.806,2.245,2.303v0.821c0,1.108-0.389,1.799-1.252,2.073
				c0.921,0.273,1.266,1.022,1.266,2.101v1.57c0,0.446,0.015,0.863,0.202,1.209h-1.137c-0.13-0.288-0.187-0.547-0.187-1.224v-1.583
				c0-1.138-0.533-1.497-1.469-1.497h-0.791v4.304h-1.123V144.68H310.073z M309.785,149.431c0.892,0,1.425-0.288,1.425-1.382v-0.964
				c0-0.907-0.332-1.382-1.166-1.382h-1.094v3.728H309.785z"/>
			<path style="fill:#BDBDBD;" d="M320.175,147.113v0.907h-1.065v-0.965c0-0.907-0.36-1.454-1.181-1.454
				c-0.805,0-1.18,0.547-1.18,1.454v5.327c0,0.907,0.375,1.454,1.18,1.454c0.822,0,1.181-0.547,1.181-1.454v-1.31h1.065v1.253
				c0,1.526-0.721,2.534-2.274,2.534c-1.541,0-2.26-1.008-2.26-2.534v-5.211c0-1.526,0.719-2.534,2.26-2.534
				C319.455,144.58,320.175,145.587,320.175,147.113z"/>
			<path style="fill:#BDBDBD;" d="M321.108,147.113c0-1.54,0.762-2.534,2.303-2.534c1.555,0,2.317,0.993,2.317,2.534v5.211
				c0,1.526-0.762,2.534-2.317,2.534c-1.541,0-2.303-1.008-2.303-2.534V147.113z M322.216,152.382c0,0.921,0.389,1.454,1.195,1.454
				c0.82,0,1.195-0.533,1.195-1.454v-5.327c0-0.907-0.375-1.454-1.195-1.454c-0.806,0-1.195,0.547-1.195,1.454V152.382z"/>
			<path style="fill:#BDBDBD;" d="M329.152,144.68c1.569,0,2.288,0.95,2.288,2.505v5.081c0,1.54-0.719,2.491-2.288,2.491h-2.361
				V144.68H329.152z M329.137,153.735c0.807,0,1.195-0.504,1.195-1.425v-5.183c0-0.921-0.389-1.425-1.209-1.425h-1.209v8.033
				H329.137z"/>
			<path style="fill:#BDBDBD;" d="M336.074,149.143v1.008h-2.461v3.584h3.023v1.022h-4.146V144.68h4.146v1.022h-3.023v3.441H336.074
				z"/>
		</g>
		<g>
			<path style="fill:#263238;" d="M303.195,169.604c1.569,0,2.288,0.95,2.288,2.505v5.081c0,1.54-0.72,2.491-2.288,2.491h-2.361
				v-10.077H303.195z M303.18,178.658c0.806,0,1.195-0.504,1.195-1.425v-5.183c0-0.921-0.389-1.425-1.209-1.425h-1.209v8.032H303.18
				z"/>
			<path style="fill:#263238;" d="M306.445,172.037c0-1.54,0.762-2.534,2.303-2.534c1.555,0,2.317,0.993,2.317,2.534v5.211
				c0,1.526-0.762,2.534-2.317,2.534c-1.541,0-2.303-1.008-2.303-2.534V172.037z M307.554,177.305c0,0.921,0.389,1.454,1.195,1.454
				c0.82,0,1.195-0.533,1.195-1.454v-5.327c0-0.907-0.375-1.454-1.195-1.454c-0.806,0-1.195,0.547-1.195,1.454V177.305z"/>
			<path style="fill:#263238;" d="M313.122,179.681h-1.007v-10.077h1.425l2.332,7.284v-7.284h0.993v10.077h-1.166l-2.577-8.148
				V179.681z"/>
			<path style="fill:#263238;" d="M321.599,174.066v1.008h-2.461v3.584h3.023v1.022h-4.146v-10.077h4.146v1.022h-3.023v3.44H321.599
				z"/>
		</g>
		
			<rect x="213.454" y="29" style="fill:#92E3A9;stroke:#263238;stroke-width:0.9853;stroke-linecap:round;stroke-linejoin:round;stroke-miterlimit:10;" width="196.864" height="8.024"/>
	</g>
	<g>
		<g>
			<g>
				
					<line style="fill:none;stroke:#263238;stroke-width:0.9853;stroke-linecap:round;stroke-linejoin:round;" x1="81.724" y1="285.27" x2="81.724" y2="283.792"/>
				
					<path style="fill:none;stroke:#263238;stroke-width:0.9853;stroke-linecap:round;stroke-linejoin:round;stroke-dasharray:2.9267,2.9267;" d="
					M81.724,280.865V154.072c0-10.771,8.731-19.502,19.502-19.502h92.816"/>
				
					<line style="fill:none;stroke:#263238;stroke-width:0.9853;stroke-linecap:round;stroke-linejoin:round;" x1="195.505" y1="134.57" x2="196.983" y2="134.57"/>
			</g>
		</g>
		<polygon style="fill:#263238;" points="206.731,135.375 190.791,126.172 190.791,144.578 		"/>
	</g>
	<g>
		<g>
			<g>
				
					<line style="fill:none;stroke:#263238;stroke-width:0.9853;stroke-linecap:round;stroke-linejoin:round;" x1="358.901" y1="408.762" x2="360.379" y2="408.762"/>
				
					<path style="fill:none;stroke:#263238;stroke-width:0.9853;stroke-linecap:round;stroke-linejoin:round;stroke-dasharray:2.9297,2.9297;" d="
					M363.309,408.762h5.468c10.811,0,19.575-8.764,19.575-19.575V204.199"/>
				
					<line style="fill:none;stroke:#263238;stroke-width:0.9853;stroke-linecap:round;stroke-linejoin:round;" x1="388.351" y1="202.734" x2="388.351" y2="201.256"/>
			</g>
		</g>
		<polygon style="fill:#263238;" points="353.316,407.897 369.256,417.1 369.256,398.694 		"/>
	</g>
</g>
<g id="Character">
	<g>
		
			<path id="XMLID_33_" style="fill:#FFFFFF;stroke:#263238;stroke-width:0.9853;stroke-linecap:round;stroke-linejoin:round;stroke-miterlimit:10;" d="
			M269.792,287.858c1.726-3.296,5.153-5.346,8.873-5.346h85.554c0,0,6.184,0,4.329,11.75c-1.855,11.75-27.211,83.487-33.395,105.132
			c-6.184,21.645-7.421,67.408-7.421,67.408H225.074C225.074,466.801,233.3,357.525,269.792,287.858z"/>
		
			<path style="fill:#263238;stroke:#263238;stroke-width:0.9853;stroke-linecap:round;stroke-linejoin:round;stroke-miterlimit:10;" d="
			M349.377,302.92c-8.65,20.182-26.974,100.039-29.913,163.881h8.268c0,0,1.237-45.763,7.421-67.408
			c6.184-21.645,31.539-93.382,33.395-105.132c1.855-11.75-4.329-11.75-4.329-11.75S356.31,286.742,349.377,302.92z"/>
	</g>
	<g>
		<g>
			
				<path style="fill:#263238;stroke:#263238;stroke-width:0.9853;stroke-linecap:round;stroke-linejoin:round;stroke-miterlimit:10;" d="
				M186.699,284.13c0,0-15.703-1.913-26.067-12.807c-10.364-10.894,22.534-49.773,40.107-58.929
				c17.573-9.156,24.813-6.652,43.654,7.235c18.842,13.887,37.224,36.18,37.038,51.134c-0.185,14.954-8.374,22.094,3.026,29.462
				c11.4,7.368,43.556,28.306,48.25,42.685c4.694,14.378-3.451,32.269-22.319,41.986c-18.868,9.717-49.828,9.289-79.651-0.351
				c-29.823-9.64-36.375-40.138-32.534-52.574c3.842-12.436,14.002-20.943,10.935-30.385
				C206.073,292.144,186.699,284.13,186.699,284.13z"/>
		</g>
		<g>
			<path style="fill:#92E3A9;" d="M200.161,327.019c0,0-16.236-2.26-23.737,2.593c-7.501,4.854-44.56,68.189-44.56,68.189
				l-20.473-27.556l-17.748,7.958c0,0,8.315,32.199,18.01,48.213c9.695,16.014,15.194,17.642,18.513,17.113
				c9.888-1.575,38.499-34.681,38.499-34.681l10.405,34.603l-7.06,25.151h131.491l-15.947-26.648c0,0,20.801-96.017,15.506-106.166
				c-5.295-10.148-36.182-8.825-45.889-8.825c-9.707,0-27.798,0-27.798,0s-6.177,1.324-12.796,1.324
				C209.958,328.289,200.161,327.019,200.161,327.019z"/>
			<path style="fill:#FFFFFF;" d="M287.946,330.241l0.275,0.108l-2.523,6.42l-0.275-0.108L287.946,330.241z M287.257,337.38
				l0.275,0.108l2.523-6.42l-0.275-0.108L287.257,337.38z M298.73,357.811l-0.285-0.081l-1.117,3.952h0.308L298.73,357.811z
				 M300.627,358.348l-0.285-0.081l-0.965,3.415h0.308L300.627,358.348z M288.594,358.568l0.937,3.114h0.308l-0.963-3.199
				L288.594,358.568z M290.765,357.917l-0.283,0.085l1.107,3.681h0.308L290.765,357.917z M298.825,343.232l3.429-5.984l-0.256-0.146
				l-3.429,5.984L298.825,343.232z M300.536,344.212l3.216-5.614c-0.019-0.168-0.043-0.321-0.065-0.479l-3.407,5.947
				L300.536,344.212z M302.788,352.743l0.576-0.752c0.017-0.185,0.036-0.372,0.052-0.555l-0.863,1.128L302.788,352.743z
				 M294.299,346.651l4.778,4.973l0.214-0.204l-4.778-4.973L294.299,346.651z M292.878,348.014l4.777,4.976l0.214-0.204
				l-4.777-4.976L292.878,348.014z M287.612,348.03l0.073-0.287l-3.732-0.948v0.305L287.612,348.03z M283.953,345.068l4.143,1.053
				l0.073-0.287l-4.217-1.072V345.068z M288.58,353.996l-0.092-0.281l-4.534,1.495v0.311L288.58,353.996z M287.868,351.844
				l-3.915,1.292v0.311l4.007-1.322L287.868,351.844z M285.698,407.712l2.523-6.42l-0.275-0.108l-2.523,6.42L285.698,407.712z
				 M289.78,401.904l-2.523,6.42l0.275,0.108l2.523-6.42L289.78,401.904z M289.652,432.002l-0.775-2.575l-0.283,0.085l0.932,3.097
				C289.568,432.409,289.61,432.207,289.652,432.002z M294.677,388.823l-0.277,0.1l2.342,6.487l0.062-0.022
				c0.027-0.15,0.055-0.299,0.082-0.449L294.677,388.823z M296.255,388.254l1.223,3.391c0.035-0.194,0.069-0.387,0.104-0.581
				l-1.05-2.91L296.255,388.254z M300.633,371.354l0.152,0.527c0.031-0.2,0.061-0.399,0.092-0.598L300.633,371.354z M294.05,370.957
				l-0.4,6.887l0.294,0.017l0.4-6.887L294.05,370.957z M295.617,377.959l0.294,0.017l0.4-6.888l-0.294-0.017L295.617,377.959z
				 M287.211,370.659l0.14-0.26l-3.398-1.828v0.336L287.211,370.659z M283.953,366.668l4.191,2.255l0.141-0.26l-4.331-2.33V366.668z
				 M286.569,377.082l-0.192-0.223l-2.423,2.093v0.389L286.569,377.082z M285.281,375.588l-0.193-0.223l-1.135,0.981v0.389
				L285.281,375.588z M283.953,387.336v0.317l6.212-2.432l-0.108-0.275L283.953,387.336z M283.953,385.22v0.317l5.495-2.151
				l-0.108-0.275L283.953,385.22z M287.62,397.742l0.065-0.289l-3.732-0.843v0.303L287.62,397.742z M288.055,395.819l0.065-0.289
				l-4.167-0.941v0.303L288.055,395.819z M287.612,418.974l0.073-0.287l-3.732-0.948v0.305L287.612,418.974z M283.953,416.012
				l4.143,1.053l0.073-0.287l-4.217-1.072V416.012z M288.58,424.94l-0.092-0.281l-4.534,1.495v0.311L288.58,424.94z M287.96,423.069
				l-0.092-0.281l-3.915,1.292v0.312L287.96,423.069z M296.853,364.448l0.782-2.766h-0.308l-0.759,2.686L296.853,364.448z
				 M299.685,361.682h-0.308l-0.911,3.222l0.285,0.081L299.685,361.682z M290.582,365.174l0.283-0.085l-1.025-3.407h-0.308
				L290.582,365.174z M292.751,364.522l-0.854-2.84h-0.308l0.879,2.925L292.751,364.522z M294.4,459.867l2.342,6.487l0.277-0.1
				l-2.342-6.487L294.4,459.867z M298.872,465.584l-2.34-6.486l-0.277,0.1l2.34,6.486L298.872,465.584z M302.178,467.183
				l-0.285-0.081l-0.425,1.503h0.308L302.178,467.183z M283.953,439.85l3.257,1.753l0.14-0.26l-3.398-1.828V439.85z
				 M283.953,437.612l4.063,2.186c0.021-0.1,0.042-0.195,0.064-0.301l-4.127-2.221V437.612z M286.569,448.025l-0.192-0.223
				l-2.423,2.093v0.389L286.569,448.025z M285.281,446.532l-0.193-0.223l-1.135,0.981v0.389L285.281,446.532z M290.058,455.89
				l-6.105,2.39v0.317l6.212-2.432L290.058,455.89z M283.953,456.482l5.495-2.151l-0.108-0.275l-5.387,2.108V456.482z
				 M283.953,467.554v0.303l3.307,0.747h0.378l0.047-0.207L283.953,467.554z M288.055,466.763l0.065-0.289l-4.167-0.941v0.303
				L288.055,466.763z M214.479,336.661l0.275,0.108l2.523-6.42l-0.275-0.108L214.479,336.661z M216.313,337.38l0.275,0.108
				l2.523-6.42l-0.275-0.108L216.313,337.38z M280.926,346.332l3.027,0.769v-0.305l-2.954-0.75L280.926,346.332z M281.486,344.135
				l-0.073,0.287l2.54,0.646v-0.305L281.486,344.135z M283.953,355.522v-0.311l-2.017,0.665l0.092,0.281L283.953,355.522z
				 M281.319,354.005l0.092,0.281l2.542-0.839v-0.311L281.319,354.005z M275.984,361.682h0.34l1.298-2.264l-0.256-0.146
				L275.984,361.682z M278.256,361.682h0.34l0.737-1.286l-0.256-0.146L278.256,361.682z M263.393,358.919l-0.229,0.187l2.108,2.576
				h0.382L263.393,358.919z M264.69,357.859l3.128,3.823h0.382l-3.281-4.01L264.69,357.859z M257.234,361.233l-0.277,0.1
				l0.126,0.348h0.313L257.234,361.233z M258.812,360.665l0.367,1.017h0.313l-0.403-1.117L258.812,360.665z M247.986,361.682
				l0.851-3.351l-0.287-0.073l-0.87,3.424H247.986z M250.461,358.743l-0.747,2.939h0.305l0.729-2.866L250.461,358.743z
				 M227.786,357.811l-0.285-0.081l-1.117,3.952h0.308L227.786,357.811z M229.683,358.348l-0.285-0.081l-0.965,3.415h0.308
				L229.683,358.348z M217.651,358.568l0.937,3.114h0.308l-0.963-3.199L217.651,358.568z M219.821,357.917l-0.283,0.085l1.107,3.681
				h0.308L219.821,357.917z M227.882,343.232l3.429-5.984l-0.257-0.146l-3.429,5.984L227.882,343.232z M229.335,344.066l0.257,0.146
				l3.429-5.986l-0.257-0.146L229.335,344.066z M268.467,348.466l6.349,2.693l0.116-0.271l-6.349-2.693L268.467,348.466z
				 M267.697,350.281l6.349,2.693l0.116-0.271l-6.349-2.693L267.697,350.281z M273.047,339.922l0.285,0.081l1.876-6.638
				l-0.285-0.081L273.047,339.922z M274.943,340.457l0.285,0.081l1.876-6.635l-0.285-0.081L274.943,340.457z M264.665,328.099
				l1.986,6.606l0.283-0.085l-1.986-6.606L264.665,328.099z M266.553,327.53l1.986,6.605l0.283-0.085l-1.986-6.605L266.553,327.53z
				 M244.764,355.805l-1.986-6.606l-0.283,0.085l1.986,6.606L244.764,355.805z M246.652,355.235l-1.986-6.605l-0.283,0.085
				l1.986,6.605L246.652,355.235z M254.45,351.408l6.83-0.96l-0.04-0.292l-6.83,0.96L254.45,351.408z M254.725,353.358l6.83-0.959
				l-0.04-0.293l-6.83,0.959L254.725,353.358z M259.719,344.952l0.289,0.065l1.54-6.722l-0.289-0.065L259.719,344.952z
				 M263.179,338.67l-1.54,6.721l0.289,0.065l1.54-6.721L263.179,338.67z M238.975,341.124l0.25,0.158l3.689-5.827l-0.25-0.158
				L238.975,341.124z M244.581,336.509l-0.25-0.158l-3.691,5.827l0.25,0.158L244.581,336.509z M238.17,329.797l6.324-2.758
				l-0.032-0.074c-0.18,0-0.359,0-0.538,0l-5.872,2.561L238.17,329.797z M238.84,331.333l0.118,0.271l6.322-2.758l-0.118-0.271
				L238.84,331.333z M232.812,326.965c-0.104,0-0.208,0-0.308,0l-1.533,5.423l0.285,0.081L232.812,326.965z M229.358,331.932
				l1.404-4.967c-0.109,0-0.211,0-0.308,0l-1.381,4.886L229.358,331.932z M256.423,329.049l-0.627-2.084c-0.103,0-0.204,0-0.308,0
				l0.652,2.169L256.423,329.049z M254.252,329.701l0.283-0.085l-0.797-2.651c-0.103,0-0.205,0-0.308,0L254.252,329.701z
				 M231.61,352.564l0.235,0.179l4.191-5.477l-0.235-0.179L231.61,352.564z M233.174,353.763l0.235,0.179l4.193-5.479l-0.235-0.179
				L233.174,353.763z M223.355,346.651l4.778,4.973l0.214-0.204l-4.778-4.973L223.355,346.651z M221.934,348.014l4.777,4.976
				l0.214-0.204l-4.777-4.976L221.934,348.014z M248.106,339.171l-0.115,0.271l6.349,2.693l0.116-0.271L248.106,339.171z
				 M248.761,337.628l6.349,2.693l0.116-0.271l-6.349-2.693L248.761,337.628z M216.668,348.03l0.073-0.287l-3.732-0.948v0.305
				L216.668,348.03z M213.009,345.068l4.144,1.053l0.073-0.287l-4.217-1.072V345.068z M217.636,353.996l-0.092-0.281l-4.534,1.495
				v0.311L217.636,353.996z M216.924,351.844l-3.915,1.292v0.311l4.007-1.322L216.924,351.844z M217.002,401.185l-2.523,6.42
				l0.275,0.108l2.523-6.42L217.002,401.185z M218.836,401.904l-2.523,6.42l0.275,0.108l2.523-6.42L218.836,401.904z
				 M281.135,367.39l2.818,1.516v-0.336l-2.678-1.441L281.135,367.39z M282.211,365.395l-0.14,0.26l1.883,1.013v-0.335
				L282.211,365.395z M283.953,378.951l-2.796,2.415l0.192,0.223l2.604-2.249V378.951z M280.062,380.097l3.891-3.362v-0.389
				l-4.084,3.528L280.062,380.097z M283.636,387.46l0.108,0.275l0.21-0.082v-0.317L283.636,387.46z M282.916,385.626l0.108,0.275
				l0.93-0.364v-0.317L282.916,385.626z M283.953,396.61l-2.996-0.677l-0.065,0.289l3.062,0.691V396.61z M283.953,394.59
				l-2.561-0.579l-0.065,0.289l2.627,0.593V394.59z M283.953,417.74l-2.954-0.75l-0.073,0.287l3.027,0.769V417.74z M281.486,415.079
				l-0.073,0.287l2.54,0.646v-0.305L281.486,415.079z M283.953,426.466v-0.311l-2.017,0.665l0.092,0.281L283.953,426.466z
				 M283.953,424.391v-0.312l-2.634,0.869l0.092,0.281L283.953,424.391z M243.401,365.176l-6.349-2.693l-0.115,0.271l6.349,2.693
				L243.401,365.176z M236.167,364.569l6.349,2.693l0.115-0.271l-6.349-2.693L236.167,364.569z M277.621,430.362l-0.256-0.146
				l-1.382,2.411h0.34L277.621,430.362z M279.332,431.34l-0.256-0.146l-0.82,1.432h0.34L279.332,431.34z M263.164,430.05
				l2.108,2.576h0.382l-2.261-2.763L263.164,430.05z M264.69,428.803l3.128,3.823h0.382l-3.281-4.01L264.69,428.803z
				 M257.234,432.177l-0.277,0.1l0.126,0.348h0.313L257.234,432.177z M258.812,431.609l0.367,1.017h0.313l-0.403-1.117
				L258.812,431.609z M248.837,429.275l-0.287-0.073l-0.87,3.424h0.305L248.837,429.275z M250.461,429.687l-0.747,2.939h0.305
				l0.729-2.866L250.461,429.687z M227.786,428.755l-0.285-0.081l-1.117,3.952h0.308L227.786,428.755z M229.683,429.292
				l-0.285-0.081l-0.965,3.415h0.308L229.683,429.292z M217.651,429.512l0.937,3.114h0.308l-0.963-3.199L217.651,429.512z
				 M219.538,428.945l1.107,3.681h0.308l-1.132-3.765L219.538,428.945z M231.054,408.045l-3.429,5.984l0.257,0.146l3.429-5.984
				L231.054,408.045z M233.022,409.17l-0.257-0.146l-3.43,5.986l0.257,0.146L233.022,409.17z M260.911,376.311l-4.367-5.336
				l-0.229,0.187l4.367,5.337L260.911,376.311z M259.387,377.56l-4.369-5.339l-0.229,0.187l4.369,5.339L259.387,377.56z
				 M248.582,374.635l2.342,6.487l0.277-0.1l-2.342-6.487L248.582,374.635z M250.437,373.967l2.34,6.486l0.277-0.1l-2.34-6.486
				L250.437,373.967z M274.932,421.832l-6.349-2.693l-0.116,0.271l6.349,2.693L274.932,421.832z M274.162,423.647l-6.349-2.693
				l-0.115,0.271l6.349,2.693L274.162,423.647z M274.924,404.228l-1.876,6.638l0.285,0.081l1.876-6.638L274.924,404.228z
				 M277.104,404.847l-0.285-0.081l-1.876,6.635l0.285,0.081L277.104,404.847z M266.934,405.564l-1.986-6.606l-0.283,0.085
				l1.986,6.606L266.934,405.564z M268.822,404.994l-1.986-6.605l-0.283,0.085l1.986,6.605L268.822,404.994z M248.846,387.72
				l-3.43,5.986l0.257,0.146l3.429-5.986L248.846,387.72z M247.392,386.888l-0.257-0.146l-3.427,5.984l0.257,0.146L247.392,386.888z
				 M235.739,392.34l-4.369-5.339l-0.229,0.187l4.369,5.339L235.739,392.34z M237.263,391.091l-4.367-5.337l-0.229,0.187
				l4.367,5.337L237.263,391.091z M223.455,388.923l2.342,6.487l0.278-0.1l-2.342-6.487L223.455,388.923z M225.31,388.254
				l2.34,6.487l0.278-0.1l-2.34-6.487L225.31,388.254z M272.964,393.517l0.287,0.073l1.697-6.684l-0.287-0.073L272.964,393.517z
				 M276.859,387.391l-0.287-0.073l-1.699,6.684l0.287,0.073L276.859,387.391z M265.621,393.005l-6.349-2.692l-0.115,0.271
				l6.349,2.692L265.621,393.005z M266.391,391.19l-6.349-2.693l-0.116,0.271l6.349,2.693L266.391,391.19z M244.764,426.748
				l-1.986-6.606l-0.283,0.085l1.986,6.606L244.764,426.748z M246.652,426.179l-1.986-6.605l-0.283,0.085l1.986,6.605
				L246.652,426.179z M261.28,421.392l-0.04-0.292l-6.83,0.96l0.04,0.293L261.28,421.392z M261.556,423.343l-0.04-0.292l-6.83,0.959
				l0.04,0.292L261.556,423.343z M260.007,415.962l1.54-6.722l-0.289-0.065l-1.54,6.722L260.007,415.962z M261.928,416.4l1.54-6.721
				l-0.289-0.065l-1.54,6.721L261.928,416.4z M242.914,406.398l-0.25-0.158l-3.689,5.827l0.25,0.158L242.914,406.398z
				 M244.581,407.453l-0.25-0.158l-3.691,5.827l0.25,0.158L244.581,407.453z M244.494,397.983l-0.118-0.271l-6.324,2.758
				l0.118,0.271L244.494,397.983z M245.281,399.79l-0.118-0.271l-6.322,2.758l0.118,0.271L245.281,399.79z M233.132,396.776
				l-0.285-0.081l-1.876,6.638l0.285,0.081L233.132,396.776z M229.358,402.876l1.876-6.637l-0.285-0.081l-1.876,6.638
				L229.358,402.876z M256.423,399.993l-1.986-6.605l-0.283,0.085l1.986,6.605L256.423,399.993z M252.266,394.04l1.986,6.605
				l0.283-0.085l-1.986-6.605L252.266,394.04z M242.679,377.092l-5.506,4.153l0.178,0.237l5.506-4.153L242.679,377.092z
				 M238.536,383.055l5.508-4.152l-0.178-0.237l-5.508,4.152L238.536,383.055z M233.782,377.349l-1.915-6.624l-0.284,0.083
				l1.915,6.624L233.782,377.349z M229.689,371.354l1.915,6.626l0.284-0.083l-1.915-6.626L229.689,371.354z M223.106,370.957
				l-0.4,6.887l0.295,0.017l0.4-6.887L223.106,370.957z M224.672,377.959l0.295,0.017l0.4-6.888l-0.295-0.017L224.672,377.959z
				 M236.036,418.209l-0.235-0.179l-4.192,5.477l0.235,0.179L236.036,418.209z M237.602,419.406l-0.235-0.179l-4.193,5.479
				l0.235,0.179L237.602,419.406z M223.355,417.595l4.778,4.973l0.214-0.204l-4.778-4.973L223.355,417.595z M221.934,418.958
				l4.777,4.976l0.214-0.204l-4.777-4.976L221.934,418.958z M272.148,380.554l-0.229-0.187l-4.338,5.362l0.229,0.187
				L272.148,380.554z M270.385,379.128l-4.336,5.362l0.229,0.187l4.336-5.363L270.385,379.128z M271.601,368.969l-0.294-0.033
				l-0.774,6.853l0.294,0.033L271.601,368.969z M269.348,368.715l-0.772,6.855l0.294,0.033l0.772-6.855L269.348,368.715z
				 M254.455,412.808l-6.349-2.693l-0.115,0.271l6.349,2.693L254.455,412.808z M248.761,408.572l6.349,2.693l0.116-0.271
				l-6.349-2.693L248.761,408.572z M216.267,370.659l0.14-0.26l-3.398-1.828v0.335L216.267,370.659z M213.009,366.668l4.191,2.255
				l0.141-0.26l-4.331-2.33V366.668z M215.625,377.082l-0.193-0.223l-2.423,2.092v0.39L215.625,377.082z M214.338,375.588
				l-0.193-0.223l-1.135,0.981v0.39L214.338,375.588z M219.114,384.946l-6.105,2.39v0.318l6.212-2.432L219.114,384.946z
				 M218.504,383.387l-0.108-0.275l-5.387,2.108v0.318L218.504,383.387z M216.676,397.742l0.065-0.289l-3.732-0.843v0.303
				L216.676,397.742z M213.009,394.893l4.101,0.926l0.065-0.289l-4.167-0.941V394.893z M216.668,418.974l0.073-0.287l-3.732-0.948
				v0.305L216.668,418.974z M213.009,416.012l4.144,1.053l0.073-0.287l-4.217-1.072V416.012z M217.636,424.94l-0.092-0.281
				l-4.534,1.495v0.311L217.636,424.94z M217.016,423.069l-0.092-0.281l-3.915,1.292v0.311L217.016,423.069z M273.936,365.256
				l0.256,0.146l2.132-3.72h-0.34L273.936,365.256z M275.646,366.236l0.256,0.146l2.693-4.7h-0.34L275.646,366.236z
				 M267.762,364.258l-2.108-2.576h-0.382l2.261,2.763L267.762,364.258z M269.057,363.195l0.229-0.187l-1.086-1.327h-0.382
				L269.057,363.195z M259.576,367.721l-2.18-6.039h-0.313l2.216,6.139L259.576,367.721z M261.152,367.151l0.277-0.1l-1.937-5.369
				h-0.313L261.152,367.151z M246.852,364.942l0.287,0.073l0.846-3.333h-0.305L246.852,364.942z M248.762,365.427l0.287,0.073
				l0.971-3.818h-0.305L248.762,365.427z M225.909,364.448l0.782-2.766h-0.308l-0.759,2.686L225.909,364.448z M228.741,361.682
				h-0.308l-0.911,3.222l0.285,0.081L228.741,361.682z M219.638,365.174l0.283-0.085l-1.025-3.407h-0.308L219.638,365.174z
				 M221.807,364.522l-0.854-2.84h-0.308l0.879,2.925L221.807,364.522z M281.276,438.074l-0.141,0.26l2.818,1.516v-0.335
				L281.276,438.074z M282.211,436.339l-0.14,0.26l1.883,1.013v-0.335L282.211,436.339z M283.953,450.284v-0.389l-2.796,2.415
				l0.192,0.223L283.953,450.284z M283.953,447.679v-0.389l-4.084,3.528l0.193,0.223L283.953,447.679z M283.636,458.404l0.108,0.275
				l0.21-0.082v-0.317L283.636,458.404z M282.916,456.57l0.108,0.275l0.93-0.364v-0.317L282.916,456.57z M280.957,466.878
				l-0.065,0.289l3.062,0.691v-0.303L280.957,466.878z M283.953,465.534l-2.561-0.579l-0.065,0.289l2.627,0.593V465.534z
				 M243.401,436.12l-6.349-2.693l-0.115,0.271l6.349,2.693L243.401,436.12z M236.167,435.512l6.349,2.693l0.115-0.271l-6.349-2.693
				L236.167,435.512z M256.315,442.105l4.367,5.337l0.229-0.187l-4.367-5.337L256.315,442.105z M259.387,448.504l-4.369-5.339
				l-0.229,0.187l4.369,5.339L259.387,448.504z M251.201,451.967l-2.342-6.487l-0.277,0.1l2.342,6.487L251.201,451.967z
				 M253.054,451.297l-2.34-6.487l-0.277,0.1l2.34,6.486L253.054,451.297z M249.102,458.81l-0.256-0.146l-3.43,5.986l0.257,0.146
				L249.102,458.81z M247.392,457.832l-0.257-0.146l-3.427,5.984l0.257,0.146L247.392,457.832z M235.739,463.284l-4.369-5.339
				l-0.229,0.187l4.369,5.339L235.739,463.284z M237.263,462.035l-4.367-5.337l-0.229,0.187l4.367,5.337L237.263,462.035z
				 M226.075,466.254l-2.342-6.487l-0.278,0.1l2.342,6.487L226.075,466.254z M227.929,465.584l-2.34-6.486l-0.278,0.1l2.34,6.486
				L227.929,465.584z M274.948,457.85l-0.287-0.073l-1.697,6.684l0.287,0.073L274.948,457.85z M276.859,458.335l-0.287-0.073
				l-1.699,6.684l0.287,0.073L276.859,458.335z M265.621,463.948l-6.349-2.692l-0.115,0.271l6.349,2.692L265.621,463.948z
				 M266.391,462.134l-6.349-2.693l-0.116,0.271l6.349,2.693L266.391,462.134z M232.847,467.639l-0.273,0.966h0.308l0.25-0.885
				L232.847,467.639z M231.234,467.183l-0.285-0.081l-0.425,1.503h0.308L231.234,467.183z M254.154,464.417l1.259,4.187h0.308
				l-1.285-4.272L254.154,464.417z M252.549,464.899l-0.283,0.085l1.089,3.621h0.308L252.549,464.899z M242.857,448.273
				l-0.178-0.237l-5.506,4.153l0.178,0.237L242.857,448.273z M244.044,449.847l-0.178-0.237l-5.508,4.152l0.178,0.237
				L244.044,449.847z M233.498,448.376l0.284-0.083l-1.915-6.624l-0.284,0.083L233.498,448.376z M231.888,448.841l-1.915-6.626
				l-0.284,0.083l1.915,6.626L231.888,448.841z M223.001,448.805l0.4-6.887l-0.295-0.017l-0.4,6.887L223.001,448.805z
				 M224.968,448.92l0.4-6.888l-0.295-0.017l-0.4,6.888L224.968,448.92z M272.148,451.498l-0.229-0.187l-4.338,5.362l0.229,0.187
				L272.148,451.498z M270.385,450.072l-4.336,5.362l0.229,0.187l4.336-5.363L270.385,450.072z M271.601,439.913l-0.294-0.033
				l-0.774,6.853l0.294,0.033L271.601,439.913z M269.348,439.659l-0.772,6.855l0.294,0.033l0.772-6.855L269.348,439.659z
				 M216.267,441.603l0.14-0.26l-3.398-1.828v0.335L216.267,441.603z M217.341,439.607l-4.331-2.33v0.335l4.191,2.255
				L217.341,439.607z M215.625,448.025l-0.193-0.223l-2.423,2.092v0.39L215.625,448.025z M214.338,446.532l-0.193-0.223
				l-1.135,0.981v0.39L214.338,446.532z M219.114,455.89l-6.105,2.39v0.318l6.212-2.432L219.114,455.89z M213.009,456.482
				l5.495-2.151l-0.108-0.275l-5.387,2.108V456.482z M213.009,467.554v0.303l3.307,0.747h0.378l0.047-0.207L213.009,467.554z
				 M217.111,466.763l0.065-0.289l-4.167-0.941v0.303L217.111,466.763z M274.192,436.346l2.132-3.72h-0.34l-2.048,3.574
				L274.192,436.346z M278.256,432.626l-2.609,4.554l0.256,0.146l2.693-4.7H278.256z M267.533,435.388l0.229-0.187l-2.108-2.576
				h-0.382L267.533,435.388z M269.057,434.139l0.229-0.187l-1.086-1.327h-0.382L269.057,434.139z M259.576,438.665l-2.18-6.039
				h-0.313l2.216,6.139L259.576,438.665z M261.152,438.095l0.277-0.1l-1.937-5.369h-0.313L261.152,438.095z M247.139,435.959
				l0.846-3.333h-0.305l-0.828,3.26L247.139,435.959z M248.762,436.371l0.287,0.073l0.971-3.818h-0.305L248.762,436.371z
				 M225.909,435.392l0.782-2.766h-0.308l-0.759,2.685L225.909,435.392z M228.433,432.626l-0.911,3.222l0.285,0.081l0.934-3.303
				H228.433z M219.638,436.118l0.283-0.085l-1.025-3.407h-0.308L219.638,436.118z M221.524,435.551l0.283-0.085l-0.854-2.84h-0.308
				L221.524,435.551z M209.982,346.332l3.027,0.769v-0.305l-2.954-0.75L209.982,346.332z M210.542,344.135l-0.073,0.287l2.54,0.646
				v-0.305L210.542,344.135z M213.009,355.522v-0.311l-2.017,0.665l0.092,0.281L213.009,355.522z M210.375,354.005l0.092,0.281
				l2.542-0.839v-0.311L210.375,354.005z M205.039,361.682h0.341l1.298-2.264l-0.257-0.146L205.039,361.682z M207.311,361.682h0.341
				l0.736-1.286l-0.257-0.146L207.311,361.682z M192.449,358.919l-0.229,0.187l2.108,2.576h0.382L192.449,358.919z M193.747,357.859
				l3.128,3.823h0.382l-3.281-4.01L193.747,357.859z M186.291,361.233l-0.278,0.1l0.126,0.348h0.314L186.291,361.233z
				 M187.868,360.665l0.367,1.017h0.314l-0.403-1.117L187.868,360.665z M177.042,361.682l0.851-3.351l-0.287-0.073l-0.87,3.424
				H177.042z M179.517,358.743l-0.747,2.939h0.305l0.729-2.866L179.517,358.743z M155.747,361.682l1.094-3.871l-0.285-0.081
				l-1.117,3.952H155.747z M158.739,358.348l-0.285-0.081l-0.965,3.415h0.308L158.739,358.348z M197.523,348.466l6.349,2.693
				l0.116-0.271l-6.349-2.693L197.523,348.466z M196.754,350.281l6.349,2.693l0.115-0.271l-6.349-2.693L196.754,350.281z
				 M202.104,339.922l0.285,0.081l1.876-6.638l-0.285-0.081L202.104,339.922z M203.999,340.457l0.285,0.081l1.876-6.635
				l-0.285-0.081L203.999,340.457z M193.722,328.099l1.986,6.606l0.283-0.085l-1.986-6.606L193.722,328.099z M195.609,327.53
				l1.986,6.605l0.283-0.085l-1.986-6.605L195.609,327.53z M171.552,349.283l1.986,6.606l0.283-0.085l-1.986-6.606L171.552,349.283z
				 M175.708,355.235l-1.986-6.605l-0.283,0.085l1.986,6.605L175.708,355.235z M183.507,351.408l6.83-0.96l-0.041-0.292l-6.83,0.96
				L183.507,351.408z M183.741,353.066l0.041,0.293l6.83-0.959l-0.041-0.293L183.741,353.066z M190.602,338.296l-0.288-0.065
				l-1.54,6.722l0.288,0.065L190.602,338.296z M192.235,338.67l-1.54,6.721l0.288,0.065l1.54-6.721L192.235,338.67z
				 M168.031,341.124l0.25,0.158l3.689-5.827l-0.25-0.158L168.031,341.124z M169.695,342.178l0.25,0.158l3.691-5.827l-0.25-0.158
				L169.695,342.178z M185.479,329.049l-0.641-2.131c-0.099,0.013-0.197,0.027-0.296,0.041l0.654,2.175L185.479,329.049z
				 M183.308,329.701l0.283-0.085l-0.714-2.373c-0.097,0.019-0.194,0.038-0.291,0.058L183.308,329.701z M160.666,352.564
				l0.235,0.179l4.191-5.477l-0.235-0.179L160.666,352.564z M166.659,348.463l-0.235-0.179l-4.193,5.479l0.235,0.179
				L166.659,348.463z M177.162,339.171l-0.115,0.271l6.349,2.693l0.115-0.271L177.162,339.171z M177.817,337.628l6.349,2.693
				l0.116-0.271l-6.349-2.693L177.817,337.628z M146.058,401.185l-2.523,6.42l0.275,0.108l2.523-6.42L146.058,401.185z
				 M147.892,401.904l-2.523,6.42l0.275,0.108l2.523-6.42L147.892,401.904z M210.191,367.39l2.818,1.516v-0.335l-2.678-1.441
				L210.191,367.39z M211.267,365.395l-0.14,0.26l1.883,1.013v-0.335L211.267,365.395z M213.009,378.951l-2.797,2.416l0.193,0.223
				l2.603-2.249V378.951z M209.119,380.097l3.891-3.361v-0.39l-4.084,3.529L209.119,380.097z M212.692,387.46l0.108,0.275
				l0.21-0.082v-0.318L212.692,387.46z M213.009,385.22l-1.037,0.406l0.108,0.275l0.929-0.364V385.22z M213.009,396.61l-2.996-0.677
				l-0.065,0.289l3.062,0.691V396.61z M210.448,394.011l-0.066,0.289l2.627,0.593v-0.303L210.448,394.011z M213.009,417.74
				l-2.954-0.75l-0.073,0.287l3.027,0.769V417.74z M210.542,415.079l-0.073,0.287l2.54,0.646v-0.305L210.542,415.079z
				 M213.009,426.466v-0.311l-2.017,0.665l0.092,0.281L213.009,426.466z M213.009,424.391v-0.311l-2.634,0.869l0.092,0.281
				L213.009,424.391z M165.993,362.754l6.349,2.693l0.115-0.271l-6.349-2.693L165.993,362.754z M165.223,364.569l6.349,2.693
				l0.116-0.271l-6.349-2.693L165.223,364.569z M206.678,430.362l-0.257-0.146l-1.382,2.411h0.341L206.678,430.362z M208.388,431.34
				l-0.257-0.146l-0.82,1.432h0.341L208.388,431.34z M192.22,430.05l2.108,2.576h0.382l-2.261-2.763L192.22,430.05z
				 M193.747,428.803l3.128,3.823h0.382l-3.281-4.01L193.747,428.803z M186.291,432.177l-0.278,0.1l0.126,0.348h0.314
				L186.291,432.177z M187.868,431.609l0.367,1.017h0.314l-0.403-1.117L187.868,431.609z M176.736,432.626h0.305l0.851-3.351
				l-0.287-0.073L176.736,432.626z M179.517,429.687l-0.747,2.939h0.305l0.729-2.866L179.517,429.687z M146.99,429.427l-0.283,0.085
				l0.549,1.823c0.08-0.075,0.16-0.151,0.24-0.227L146.99,429.427z M148.877,428.861l-0.283,0.085l0.26,0.867
				c0.08-0.077,0.159-0.154,0.239-0.231L148.877,428.861z M160.367,408.191l-0.257-0.146l-3.429,5.984l0.257,0.146L160.367,408.191z
				 M158.648,415.156l3.429-5.986l-0.257-0.146l-3.429,5.986L158.648,415.156z M189.967,376.311l-4.367-5.336l-0.229,0.187
				l4.367,5.337L189.967,376.311z M188.443,377.56l-4.368-5.339l-0.229,0.187l4.368,5.339L188.443,377.56z M177.637,374.635
				l2.342,6.487l0.278-0.1l-2.342-6.487L177.637,374.635z M179.492,373.967l2.34,6.486l0.278-0.1l-2.34-6.486L179.492,373.967z
				 M203.988,421.832l-6.349-2.693l-0.115,0.271l6.349,2.693L203.988,421.832z M203.218,423.647l-6.349-2.693l-0.115,0.271
				l6.349,2.693L203.218,423.647z M203.98,404.228l-1.876,6.638l0.285,0.081l1.876-6.638L203.98,404.228z M206.16,404.847
				l-0.285-0.081l-1.876,6.635l0.285,0.081L206.16,404.847z M195.99,405.564l-1.986-6.606l-0.283,0.085l1.986,6.606L195.99,405.564z
				 M197.878,404.994l-1.986-6.605l-0.283,0.085l1.986,6.605L197.878,404.994z M177.902,387.72l-3.429,5.986l0.257,0.146
				l3.429-5.986L177.902,387.72z M176.191,386.741l-3.428,5.984l0.257,0.146l3.427-5.984L176.191,386.741z M160.197,387.188
				l4.369,5.339l0.229-0.187l-4.369-5.339L160.197,387.188z M161.723,385.941l4.367,5.337l0.229-0.187l-4.367-5.337L161.723,385.941
				z M152.511,388.923l2.342,6.487l0.278-0.1l-2.342-6.487L152.511,388.923z M154.367,388.254l2.34,6.487l0.278-0.1l-2.34-6.487
				L154.367,388.254z M202.02,393.517l0.287,0.073l1.697-6.684l-0.287-0.073L202.02,393.517z M205.915,387.391l-0.287-0.073
				l-1.699,6.684l0.287,0.073L205.915,387.391z M194.677,393.005l-6.349-2.692l-0.115,0.271l6.349,2.692L194.677,393.005z
				 M195.447,391.19l-6.349-2.693l-0.116,0.271l6.349,2.693L195.447,391.19z M173.439,419.659l1.986,6.605l0.283-0.085l-1.986-6.605
				L173.439,419.659z M190.337,421.392l-0.041-0.292l-6.83,0.96l0.041,0.293L190.337,421.392z M190.612,423.343l-0.041-0.292
				l-6.83,0.959l0.041,0.292L190.612,423.343z M189.063,415.962l1.54-6.722l-0.288-0.065l-1.54,6.722L189.063,415.962z
				 M190.983,416.4l1.54-6.721l-0.288-0.065l-1.54,6.721L190.983,416.4z M171.72,406.24l-2.603,4.111l0.113,0.375l2.74-4.328
				L171.72,406.24z M173.387,407.295l-3.518,5.554l0.113,0.375l3.656-5.771L173.387,407.295z M167.107,400.47l0.118,0.271
				l6.324-2.758l-0.118-0.271L167.107,400.47z M174.337,399.79l-0.118-0.271l-6.322,2.758l0.118,0.271L174.337,399.79z
				 M162.188,396.776l-0.285-0.081l-1.876,6.638l0.285,0.081L162.188,396.776z M158.414,402.876l1.876-6.637l-0.285-0.081
				l-1.876,6.638L158.414,402.876z M185.479,399.993l-1.986-6.605l-0.283,0.085l1.986,6.605L185.479,399.993z M181.322,394.04
				l1.986,6.605l0.283-0.085l-1.986-6.605L181.322,394.04z M171.735,377.092l-5.506,4.153l0.178,0.237l5.506-4.153L171.735,377.092z
				 M167.414,382.818l0.178,0.237l5.508-4.152l-0.178-0.237L167.414,382.818z M160.639,370.808l1.915,6.624l0.284-0.083
				l-1.915-6.624L160.639,370.808z M158.746,371.354l1.915,6.626l0.284-0.083l-1.915-6.626L158.746,371.354z M151.762,377.844
				l0.295,0.017l0.4-6.887l-0.295-0.017L151.762,377.844z M154.424,371.089l-0.295-0.017l-0.4,6.888l0.295,0.017L154.424,371.089z
				 M156.841,421.779l-4.216-4.388l-0.214,0.204l4.226,4.397C156.705,421.921,156.772,421.85,156.841,421.779z M151.204,418.754
				l-0.214,0.204l4.276,4.454c0.069-0.071,0.137-0.142,0.206-0.212L151.204,418.754z M201.204,380.554l-0.23-0.187l-4.338,5.362
				l0.23,0.187L201.204,380.554z M199.441,379.128l-4.336,5.362l0.23,0.187l4.336-5.363L199.441,379.128z M200.657,368.969
				l-0.294-0.033l-0.774,6.853l0.293,0.033L200.657,368.969z M198.404,368.715l-0.772,6.855l0.294,0.033l0.772-6.855
				L198.404,368.715z M183.511,412.808l-6.349-2.693l-0.115,0.271l6.349,2.693L183.511,412.808z M184.281,410.994l-6.349-2.693
				l-0.115,0.271l6.349,2.693L184.281,410.994z M144.682,377.082l-0.193-0.223l-0.23,0.199c-0.167,0.275-0.333,0.548-0.498,0.82
				L144.682,377.082z M148.17,384.946l-6.104,2.39v0.318l6.212-2.432L148.17,384.946z M147.56,383.387l-0.108-0.275l-5.387,2.108
				v0.318L147.56,383.387z M145.732,397.742l0.066-0.289l-3.732-0.843v0.303L145.732,397.742z M146.167,395.819l0.065-0.289
				l-4.167-0.941v0.303L146.167,395.819z M145.724,418.974l0.073-0.287l-3.732-0.948v0.305L145.724,418.974z M142.066,416.012
				l4.143,1.053l0.073-0.287l-4.217-1.072V416.012z M146.692,424.94l-0.092-0.281l-4.534,1.495v0.311L146.692,424.94z
				 M146.072,423.069l-0.092-0.281l-3.915,1.292v0.311L146.072,423.069z M202.991,365.256l0.257,0.146l2.132-3.72h-0.341
				L202.991,365.256z M204.702,366.236l0.257,0.146l2.693-4.7h-0.341L204.702,366.236z M196.818,364.258l-2.108-2.576h-0.382
				l2.261,2.763L196.818,364.258z M198.113,363.195l0.229-0.187l-1.086-1.327h-0.382L198.113,363.195z M188.633,367.721l-2.18-6.039
				h-0.314l2.216,6.139L188.633,367.721z M190.208,367.151l0.278-0.1l-1.937-5.369h-0.314L190.208,367.151z M175.909,364.942
				l0.287,0.073l0.846-3.333h-0.305L175.909,364.942z M177.818,365.427l0.287,0.073l0.971-3.818h-0.305L177.818,365.427z
				 M154.681,364.367l0.285,0.081l0.782-2.766h-0.308L154.681,364.367z M157.797,361.682h-0.308l-0.911,3.222l0.285,0.081
				L157.797,361.682z M210.191,438.334l2.818,1.516v-0.335l-2.678-1.441L210.191,438.334z M211.267,436.339l-0.14,0.26l1.883,1.013
				v-0.335L211.267,436.339z M213.009,450.285v-0.39l-2.797,2.416l0.193,0.223L213.009,450.285z M213.009,447.68v-0.39l-4.084,3.529
				l0.193,0.223L213.009,447.68z M212.692,458.404l0.108,0.275l0.21-0.082v-0.318L212.692,458.404z M211.972,456.57l0.108,0.275
				l0.929-0.364v-0.318L211.972,456.57z M210.013,466.878l-0.065,0.289l3.062,0.691v-0.303L210.013,466.878z M213.009,465.534
				l-2.561-0.579l-0.066,0.289l2.627,0.593V465.534z M185.371,442.105l4.367,5.337l0.229-0.187l-4.367-5.337L185.371,442.105z
				 M188.443,448.504l-4.368-5.339l-0.229,0.187l4.368,5.339L188.443,448.504z M180.257,451.967l-2.012-5.572l-0.137,0.49
				l1.871,5.183L180.257,451.967z M182.111,451.297l-2.34-6.487l-0.278,0.1l2.34,6.486L182.111,451.297z M178.159,458.81
				l-0.257-0.146l-3.429,5.986l0.257,0.146L178.159,458.81z M176.191,457.685l-2.186,3.816l-0.328,1.167l2.77-4.836L176.191,457.685
				z M204.004,457.85l-0.287-0.073l-1.697,6.684l0.287,0.073L204.004,457.85z M205.915,458.335l-0.287-0.073l-1.699,6.684
				l0.287,0.073L205.915,458.335z M194.677,463.948l-6.349-2.692l-0.115,0.271l6.349,2.692L194.677,463.948z M195.447,462.134
				l-6.349-2.693l-0.116,0.271l6.349,2.693L195.447,462.134z M183.21,464.417l1.259,4.187h0.308l-1.285-4.272L183.21,464.417z
				 M181.605,464.899l-0.283,0.085l1.089,3.621h0.308L181.605,464.899z M201.204,451.498l-0.23-0.187l-4.338,5.362l0.23,0.187
				L201.204,451.498z M199.441,450.072l-4.336,5.362l0.23,0.187l4.336-5.363L199.441,450.072z M200.657,439.913l-0.294-0.033
				l-0.774,6.853l0.293,0.033L200.657,439.913z M198.404,439.659l-0.772,6.855l0.294,0.033l0.772-6.855L198.404,439.659z
				 M203.248,436.346l2.132-3.72h-0.341l-2.048,3.574L203.248,436.346z M207.311,432.626l-2.609,4.554l0.257,0.146l2.693-4.7
				H207.311z M196.589,435.388l0.229-0.187l-2.108-2.576h-0.382L196.589,435.388z M198.113,434.139l0.229-0.187l-1.086-1.327h-0.382
				L198.113,434.139z M188.633,438.665l-2.18-6.039h-0.314l2.216,6.139L188.633,438.665z M190.208,438.095l0.278-0.1l-1.937-5.369
				h-0.314L190.208,438.095z M176.315,434.286l0.166,0.551l0.561-2.211h-0.305L176.315,434.286z M177.818,436.371l0.287,0.073
				l0.971-3.818h-0.305L177.818,436.371z M141.748,387.46l0.108,0.275l0.21-0.082v-0.318L141.748,387.46z M142.066,385.22
				l-1.037,0.406l0.108,0.275l0.93-0.364V385.22z M139.004,396.222l3.062,0.691v-0.303l-2.996-0.677L139.004,396.222z
				 M139.439,394.3l2.627,0.593v-0.303l-2.561-0.579L139.439,394.3z M142.066,417.74l-2.954-0.75l-0.073,0.287l3.027,0.769V417.74z
				 M139.598,415.079l-0.073,0.287l2.54,0.646v-0.305L139.598,415.079z M142.066,426.466v-0.311l-2.017,0.665l0.092,0.281
				L142.066,426.466z M142.066,424.391v-0.311l-2.635,0.869l0.092,0.281L142.066,424.391z M135.734,430.362l-0.257-0.146
				l-1.382,2.411h0.341L135.734,430.362z M137.445,431.34l-0.257-0.146l-0.82,1.432h0.341L137.445,431.34z M121.277,430.05
				l2.108,2.576h0.382l-2.261-2.763L121.277,430.05z M122.803,428.803l3.128,3.823h0.382l-3.281-4.01L122.803,428.803z
				 M117.202,431.509l-0.278,0.1l0.367,1.017h0.314L117.202,431.509z M112.901,372.408l1.047,1.28l-0.987-1.329L112.901,372.408z
				 M106.693,374.635l2.342,6.487l0.278-0.1l-2.342-6.487L106.693,374.635z M108.549,373.967l2.34,6.486l0.278-0.1l-2.34-6.486
				L108.549,373.967z M133.044,421.832l-6.349-2.693l-0.116,0.271l6.349,2.693L133.044,421.832z M132.274,423.647l-6.349-2.693
				l-0.115,0.271l6.349,2.693L132.274,423.647z M133.036,404.228l-1.876,6.638l0.285,0.081l1.876-6.638L133.036,404.228z
				 M135.216,404.847l-0.285-0.081l-1.876,6.635l0.285,0.081L135.216,404.847z M125.047,405.564l-1.986-6.606l-0.283,0.085
				l1.986,6.606L125.047,405.564z M126.934,404.994l-1.986-6.605l-0.283,0.085l1.986,6.605L126.934,404.994z M107.215,387.866
				l-0.257-0.146l-3.429,5.986l0.257,0.146L107.215,387.866z M105.504,386.888l-0.257-0.146l-3.428,5.984l0.257,0.146
				L105.504,386.888z M123.733,393.005l-6.349-2.692l-0.116,0.271l6.349,2.692L123.733,393.005z M124.503,391.19l-6.349-2.693
				l-0.116,0.271l6.349,2.693L124.503,391.19z M112.563,422.352l6.83-0.96l-0.041-0.292l-6.83,0.96L112.563,422.352z
				 M112.838,424.302l6.83-0.959l-0.041-0.292l-6.83,0.959L112.838,424.302z M117.831,415.896l0.288,0.065l1.54-6.722l-0.288-0.065
				L117.831,415.896z M121.291,409.614l-1.54,6.721l0.288,0.065l1.54-6.721L121.291,409.614z M102.487,397.712l-2.625,1.145
				c0.032,0.094,0.063,0.188,0.095,0.281l2.648-1.155L102.487,397.712z M103.274,399.519l-2.774,1.21
				c0.032,0.093,0.065,0.187,0.097,0.281l2.795-1.219L103.274,399.519z M112.266,393.473l1.986,6.605l0.283-0.085l-1.986-6.605
				L112.266,393.473z M110.378,394.04l1.986,6.605l0.283-0.085l-1.986-6.605L110.378,394.04z M95.285,381.245l0.178,0.237
				l5.506-4.153l-0.178-0.237L95.285,381.245z M102.156,378.903l-0.178-0.237l-5.508,4.152l0.178,0.237L102.156,378.903z
				 M112.567,412.808l-6.349-2.693l-0.115,0.271l6.349,2.693L112.567,412.808z M106.873,408.572l6.349,2.693l0.116-0.271
				l-6.349-2.693L106.873,408.572z M139.388,438.074l-0.137,0.253c0.081-0.064,0.163-0.13,0.244-0.195L139.388,438.074z
				 M140.323,436.339l-0.14,0.26l0.723,0.389c0.081-0.067,0.163-0.136,0.244-0.204L140.323,436.339z M128.998,443.609
				c0.101,0.002,0.2,0.003,0.297,0l0.417-3.696l-0.294-0.033L128.998,443.609z M127.053,443.273c0.097,0.031,0.193,0.06,0.288,0.086
				l0.413-3.667l-0.294-0.033L127.053,443.273z M134.436,432.626h-0.341l-2.048,3.574l0.257,0.146L134.436,432.626z
				 M136.708,432.626h-0.341l-2.609,4.554l0.257,0.146L136.708,432.626z M125.645,435.388l0.229-0.187l-2.108-2.576h-0.382
				L125.645,435.388z M127.169,434.139l0.229-0.187l-1.086-1.327h-0.382L127.169,434.139z M117.291,432.626l1.43,3.965
				c0.184,0.221,0.366,0.433,0.545,0.641l-1.662-4.606H117.291z"/>
			<path style="fill:none;stroke:#263238;stroke-width:0.9853;" d="M200.161,327.019c0,0-16.236-2.26-23.737,2.593
				c-7.501,4.854-44.56,68.189-44.56,68.189l-20.473-27.556l-17.748,7.958c0,0,8.315,32.199,18.01,48.213
				c9.695,16.014,15.194,17.642,18.513,17.113c9.888-1.575,38.499-34.681,38.499-34.681l10.405,34.603l-7.06,25.151h131.491
				l-15.947-26.648c0,0,20.801-96.017,15.506-106.166c-5.295-10.148-36.182-8.825-45.889-8.825c-9.707,0-27.798,0-27.798,0
				s-6.177,1.324-12.796,1.324C209.958,328.289,200.161,327.019,200.161,327.019z"/>
			
				<path style="fill:#263238;stroke:#263238;stroke-width:0.9853;stroke-linecap:round;stroke-linejoin:round;stroke-miterlimit:10;" d="
				M168.666,408.85c0,0-6.165-11.144-4.242-24.612c1.924-13.467,10.261-28.217,10.261-28.217s-16.631,23.958-16.631,31.971
				s4.932,19.726,4.932,19.726l-4.315,12.329L168.666,408.85z"/>
		</g>
		<g>
			
				<path style="fill:#CFCFCF;stroke:#263238;stroke-width:0.9853;stroke-linecap:round;stroke-linejoin:round;stroke-miterlimit:10;" d="
				M213.93,313.728l0.441,14.12l-11.914,0.441c0,0-2.449,51.814,8.141,61.08c10.59,9.266,42.602-62.404,42.602-62.404l-11.031-2.206
				l-3.53-28.681L213.93,313.728z"/>
			
				<polygon style="fill:#263238;stroke:#263238;stroke-width:0.9853;stroke-linecap:round;stroke-linejoin:round;stroke-miterlimit:10;" points="
				239.936,301.715 214.466,325.709 214.466,317.219 			"/>
			
				<path style="fill:#FFFFFF;stroke:#263238;stroke-width:0.9853;stroke-linecap:round;stroke-linejoin:round;stroke-miterlimit:10;" d="
				M210.598,389.369c0,0,1.283-8.337,7.696-19.239"/>
		</g>
		<g>
			
				<path id="XMLID_20_" style="fill:#CFCFCF;stroke:#263238;stroke-width:0.9853;stroke-linecap:round;stroke-linejoin:round;stroke-miterlimit:10;" d="
				M208.796,234.109l-29.033,30.151c0,0,3.602,9.302,3.259,19.988c-0.344,10.686,9.366,26.39,17.311,33.693
				c7.945,7.303,24.143-3.919,30.185-7.878c6.042-3.959,11.249-9.329,11.249-9.329s6.919,0.097,10.783-6.575
				C252.548,294.161,210.452,249.138,208.796,234.109z"/>
			
				<path style="fill:none;stroke:#263238;stroke-width:0.9853;stroke-linecap:round;stroke-linejoin:round;stroke-miterlimit:10;" d="
				M200.939,265.07c0,0,1.824,3.702,1.916,6.498c0.092,2.796-4.8,15.863-4.099,16.736c0.701,0.873,2.894,3.751,4.606,3.381"/>
			
				<path style="fill:none;stroke:#263238;stroke-width:0.4927;stroke-linecap:round;stroke-linejoin:round;stroke-miterlimit:10;" d="
				M212.989,279.363c0,0,5.813-2.563,12.698-0.155"/>
			
				<path style="fill:none;stroke:#263238;stroke-width:0.4927;stroke-linecap:round;stroke-linejoin:round;stroke-miterlimit:10;" d="
				M190.427,280.399c0,0,4.105-1.143,6.71-0.938"/>
			<path style="fill:#263238;" d="M197.281,257.682c0,0-3.51-0.449-6.021,2.44c-2.511,2.89-3.725,5.41-4.356,3.367
				c-0.631-2.043,2.168-5.788,3.158-6.553C191.052,256.172,195.714,253.2,197.281,257.682z"/>
			<path style="fill:#263238;" d="M209.688,256.013c0,0,4.644-0.155,8.474,1.952c3.831,2.107,2.01-2.152-0.694-3.376
				C214.763,253.366,210.119,253.521,209.688,256.013z"/>
			
				<path style="fill:#92E3A9;stroke:#263238;stroke-width:0.9853;stroke-linecap:round;stroke-linejoin:round;stroke-miterlimit:10;" d="
				M254.091,306.145c0.175,2.984-1.366,5.501-3.442,5.623c-2.076,0.122-3.9-2.198-4.075-5.182
				c-0.175-2.984,1.063-10.669,3.139-10.79C251.788,295.674,253.916,303.162,254.091,306.145z"/>
			<path style="fill:#263238;" d="M196.091,275.044c0.134,1.963-0.621,3.614-1.686,3.687c-1.066,0.073-2.039-1.459-2.173-3.423
				c-0.134-1.963,0.621-3.614,1.686-3.687C194.984,271.549,195.957,273.081,196.091,275.044z"/>
			<path style="fill:#263238;" d="M217.674,274.23c0.134,1.963-0.621,3.614-1.686,3.687c-1.066,0.073-2.039-1.459-2.173-3.423
				c-0.134-1.963,0.621-3.614,1.686-3.687C216.567,270.734,217.54,272.267,217.674,274.23z"/>
			
				<path style="fill:none;stroke:#263238;stroke-width:0.9853;stroke-linecap:round;stroke-linejoin:round;stroke-miterlimit:10;" d="
				M203.222,297.37c0,0,5.09,1.629,12.013-4.276"/>
		</g>
		<g>
			<path style="fill:#CFCFCF;stroke:#263238;stroke-width:0.9853;stroke-miterlimit:10;" d="M111.392,370.246l-9.315-12.466
				c-0.43-3.321-1.257-10.183-1.397-14.813c-0.191-6.302,0.117-10.151-3.457-15.736c-3.574-5.585-13.576-14.425-14.509-16.473
				c-0.933-2.048-3.66,3.728-1.95,7.483c1.71,3.755,3.263,4.902,3.263,4.902s-18.384-9.145-18.942-7.654
				c-0.558,1.49,8.557,27.839,12.752,34.79c1.754,2.906,6.607,6.779,8.948,10.145c1.379,1.982,2.275,3.794,2.923,5.271
				c2.179,9.266,4.722,19.463,6.003,19.84C98.575,386.378,110.918,386.58,111.392,370.246z"/>
			<g>
				<path style="fill:#263238;stroke:#263238;stroke-width:0.9853;stroke-miterlimit:10;" d="M85.247,341.599L85.247,341.599
					c-0.705,0.187-1.429-0.23-1.62-0.934l-14.669-54.09c-0.192-0.71,0.229-1.44,0.94-1.629l0,0c0.705-0.187,1.429,0.23,1.62,0.935
					l14.67,54.09C86.379,340.68,85.958,341.41,85.247,341.599z"/>
				<g>
					<path style="fill:#CFCFCF;stroke:#263238;stroke-width:0.9853;stroke-miterlimit:10;" d="M74.702,307.193
						c0,0-14.119,7.46-13.249,8.919c0.87,1.458,3.451,6.672,4.63,6.547c1.18-0.125,9.742-7.116,10.363-8.016
						C77.066,313.741,74.702,307.193,74.702,307.193z"/>
					<path style="fill:#CFCFCF;stroke:#263238;stroke-width:0.9853;stroke-miterlimit:10;" d="M77.223,316.349
						c0,0-11.728,8.638-11.355,9.911c0.373,1.272,6.127,16.169,7.09,17.379c0.963,1.21,10.18-2.987,10.18-2.987L77.223,316.349z"/>
					<path style="fill:none;stroke:#263238;stroke-width:0.9853;stroke-miterlimit:10;" d="M79.029,324.388
						c0,0-11.231,8.824-10.486,9.103"/>
					
						<line style="fill:none;stroke:#263238;stroke-width:0.9853;stroke-miterlimit:10;" x1="81.116" y1="333.948" x2="71.683" y2="339.48"/>
				</g>
				<path style="fill:none;stroke:#263238;stroke-width:0.9853;stroke-miterlimit:10;" d="M84.026,323.143l5.188,5.056
					c0,0-6.912,14.688-0.325,22.817"/>
			</g>
		</g>
		<g>
			<path style="fill:#92E3A9;" d="M288.388,330.129c0,0,12.574-1.64,18.04,8.747c5.467,10.387,39.361,102.228,39.907,110.975
				c0.547,8.747-22.414,10.933-30.067,7.107c-7.654-3.827-28.974-49.201-31.16-55.214"/>
			<g>
				
					<rect x="289.654" y="397.057" transform="matrix(0.272 -0.9623 0.9623 0.272 -168.8568 571.1997)" style="fill:#FFFFFF;" width="6.898" height="0.296"/>
				<polygon style="fill:#FFFFFF;" points="296.731,375.037 294.816,368.413 294.532,368.495 296.447,375.12 				"/>
				<polygon style="fill:#FFFFFF;" points="296.081,394.463 295.796,394.383 293.919,401.02 294.204,401.101 				"/>
				<polygon style="fill:#FFFFFF;" points="298.687,390.027 294.319,384.689 294.09,384.876 298.458,390.214 				"/>
				
					<rect x="301.561" y="398.573" transform="matrix(0.9166 -0.3998 0.3998 0.9166 -133.9807 155.2114)" style="fill:#FFFFFF;" width="6.897" height="0.296"/>
				<polygon style="fill:#FFFFFF;" points="307.529,405.14 307.279,404.983 303.588,410.81 303.838,410.968 				"/>
				<polygon style="fill:#FFFFFF;" points="292.638,369.042 294.553,375.668 294.837,375.585 292.922,368.959 				"/>
				<polygon style="fill:#FFFFFF;" points="301.923,409.755 302.173,409.913 305.863,404.086 305.612,403.928 				"/>
				<polygon style="fill:#FFFFFF;" points="300.211,388.778 295.845,383.442 295.616,383.629 299.982,388.965 				"/>
				
					<rect x="300.701" y="378.4" transform="matrix(0.7994 -0.6009 0.6009 0.7994 -166.4288 258.7079)" style="fill:#FFFFFF;" width="6.897" height="0.296"/>
				<polygon style="fill:#FFFFFF;" points="305.444,346.971 307.43,353.577 307.713,353.492 305.727,346.886 				"/>
				<polygon style="fill:#FFFFFF;" points="305.805,375.017 305.628,374.78 300.122,378.933 300.3,379.169 				"/>
				<path style="fill:#FFFFFF;" d="M302.173,338.969l2.068-3.266c-0.068-0.077-0.135-0.157-0.204-0.231l-2.115,3.34L302.173,338.969
					z"/>
				<polygon style="fill:#FFFFFF;" points="296.123,351.45 296.358,351.629 300.551,346.15 300.316,345.971 				"/>
				<polygon style="fill:#FFFFFF;" points="299.885,360.441 306.234,363.135 306.35,362.863 300.001,360.17 				"/>
				<polygon style="fill:#FFFFFF;" points="307.332,346.402 309.318,353.007 309.601,352.923 307.615,346.318 				"/>
				<polygon style="fill:#FFFFFF;" points="306.913,390.56 310.341,384.575 310.084,384.429 306.656,390.413 				"/>
				
					<rect x="302.2" y="360.019" transform="matrix(0.3905 -0.9206 0.9206 0.3905 -150.3331 499.8586)" style="fill:#FFFFFF;" width="0.295" height="6.896"/>
				
					<rect x="300.772" y="396.766" transform="matrix(0.9167 -0.3997 0.3997 0.9167 -133.2832 154.672)" style="fill:#FFFFFF;" width="6.899" height="0.296"/>
				<path style="fill:#FFFFFF;" d="M322.991,457.128l-0.115,0.271l3.199,1.357c0.258,0.004,0.516,0.009,0.776,0.009L322.991,457.128
					z"/>
				<polygon style="fill:#FFFFFF;" points="324.378,435.683 322.441,430.314 322.038,429.196 321.761,429.296 322.128,430.314 
					324.101,435.783 				"/>
				<polygon style="fill:#FFFFFF;" points="317.738,441.04 322.106,446.378 322.335,446.191 317.967,440.853 				"/>
				<polygon style="fill:#FFFFFF;" points="322.525,436.352 320.345,430.314 320.183,429.865 319.906,429.965 320.031,430.314 
					322.248,436.453 				"/>
				<polygon style="fill:#FFFFFF;" points="324.464,420.738 317.634,421.698 317.674,421.99 324.504,421.031 				"/>
				<path style="fill:#FFFFFF;" d="M344.298,450.221l1.855-1.602c-0.021-0.106-0.044-0.217-0.068-0.331l-1.979,1.71L344.298,450.221
					z"/>
				<polygon style="fill:#FFFFFF;" points="294.558,350.251 294.793,350.43 298.985,344.953 298.75,344.774 				"/>
				
					<rect x="287.566" y="386.356" transform="matrix(0.9406 -0.3396 0.3396 0.9406 -115.274 120.8668)" style="fill:#FFFFFF;" width="0.296" height="6.897"/>
				<path style="fill:#FFFFFF;" d="M343.011,448.729l2.638-2.279c-0.026-0.103-0.055-0.211-0.083-0.317l-2.747,2.373
					L343.011,448.729z"/>
				<polygon style="fill:#FFFFFF;" points="323.859,444.942 319.493,439.606 319.264,439.792 323.63,445.129 				"/>
				
					<rect x="284.519" y="372.064" transform="matrix(0.058 -0.9983 0.9983 0.058 -100.3195 638.1056)" style="fill:#FFFFFF;" width="6.899" height="0.296"/>
				
					<rect x="318.089" y="390.973" transform="matrix(0.9576 -0.288 0.288 0.9576 -100.0949 108.3421)" style="fill:#FFFFFF;" width="0.295" height="6.897"/>
				
					<rect x="314.547" y="371.4" transform="matrix(0.9407 -0.3394 0.3394 0.9407 -108.5356 129.0434)" style="fill:#FFFFFF;" width="0.295" height="6.896"/>
				<polygon style="fill:#FFFFFF;" points="312.662,359.37 311.71,363.115 311.997,363.188 312.968,359.37 313.696,356.504 
					313.41,356.431 				"/>
				<polygon style="fill:#FFFFFF;" points="310.629,359.37 309.801,362.63 310.088,362.703 310.934,359.37 311.785,356.019 
					311.499,355.946 				"/>
				<polygon style="fill:#FFFFFF;" points="315.215,391.728 317.201,398.332 317.484,398.248 315.498,391.643 				"/>
				
					<rect x="312.693" y="372.068" transform="matrix(0.9406 -0.3396 0.3396 0.9406 -108.9292 128.5502)" style="fill:#FFFFFF;" width="0.295" height="6.897"/>
				
					<rect x="289.42" y="385.687" transform="matrix(0.9407 -0.3394 0.3394 0.9407 -114.8754 121.3643)" style="fill:#FFFFFF;" width="0.296" height="6.896"/>
				<path style="fill:#FFFFFF;" d="M303.838,340.024l1.683-2.657c-0.06-0.089-0.117-0.184-0.178-0.272l-1.755,2.771L303.838,340.024
					z"/>
				<polygon style="fill:#FFFFFF;" points="311.709,406.259 318.058,408.953 318.174,408.681 311.825,405.988 				"/>
				<polygon style="fill:#FFFFFF;" points="294.26,334.935 294.003,334.789 290.573,340.773 290.83,340.92 				"/>
				<path style="fill:#FFFFFF;" d="M340.977,431.303c-0.042-0.125-0.083-0.25-0.125-0.375l-2.257,3.94l0.256,0.146L340.977,431.303z
					"/>
				<polygon style="fill:#FFFFFF;" points="334.55,437.6 334.256,437.568 333.482,444.421 333.776,444.453 				"/>
				
					<rect x="333.731" y="416.676" transform="matrix(0.3905 -0.9206 0.9206 0.3905 -183.2736 563.4158)" style="fill:#FFFFFF;" width="0.295" height="6.897"/>
				<path style="fill:#FFFFFF;" d="M339.272,430.314l0.868-1.515c-0.042-0.126-0.083-0.247-0.125-0.374l-1.083,1.889l-2.048,3.574
					l0.256,0.146L339.272,430.314z"/>
				<polygon style="fill:#FFFFFF;" points="335.096,449.186 334.867,448.999 330.53,454.361 330.759,454.547 				"/>
				<path style="fill:#FFFFFF;" d="M336.809,419.066l-5.278-2.239l-0.116,0.271l5.524,2.343
					C336.896,419.316,336.853,419.191,336.809,419.066z"/>
				<polygon style="fill:#FFFFFF;" points="333.563,447.947 333.334,447.76 328.998,453.122 329.227,453.309 				"/>
				<polygon style="fill:#FFFFFF;" points="326.416,407.367 326.128,407.302 324.588,414.023 324.877,414.088 				"/>
				<polygon style="fill:#FFFFFF;" points="330.482,433.076 330.711,432.889 328.603,430.314 326.342,427.551 326.113,427.738 
					328.221,430.314 				"/>
				<polygon style="fill:#FFFFFF;" points="292.284,341.754 292.541,341.9 295.97,335.914 295.714,335.768 				"/>
				
					<rect x="312.693" y="443.012" transform="matrix(0.9406 -0.3396 0.3396 0.9406 -133.0206 132.766)" style="fill:#FFFFFF;" width="0.295" height="6.897"/>
				<path style="fill:#FFFFFF;" d="M337.897,455.538l-0.287-0.073l-0.526,2.071c0.11-0.028,0.218-0.058,0.328-0.088L337.897,455.538
					z"/>
				
					<rect x="314.547" y="442.344" transform="matrix(0.9407 -0.3394 0.3394 0.9407 -132.6133 133.2559)" style="fill:#FFFFFF;" width="0.295" height="6.896"/>
				<path style="fill:#FFFFFF;" d="M322.875,386.456l2.643,1.121c-0.047-0.127-0.093-0.253-0.14-0.38l-2.387-1.013L322.875,386.456z
					"/>
				<path style="fill:#FFFFFF;" d="M339.808,456.022l-0.287-0.073l-0.236,0.929c0.114-0.039,0.224-0.081,0.336-0.122
					L339.808,456.022z"/>
				<path style="fill:#FFFFFF;" d="M305.58,435.622l-5.237-2.222c0.074,0.138,0.147,0.276,0.221,0.414l4.901,2.079L305.58,435.622z"
					/>
				<polygon style="fill:#FFFFFF;" points="287.672,345.763 291.082,349.311 291.296,349.107 287.69,345.355 				"/>
				<path style="fill:#FFFFFF;" d="M317.738,370.096l2.338,2.857c-0.108-0.288-0.217-0.578-0.325-0.864l-1.784-2.18L317.738,370.096
					z"/>
				<polygon style="fill:#FFFFFF;" points="289.66,350.678 289.873,350.474 287.566,348.07 287.547,348.477 				"/>
				<polygon style="fill:#FFFFFF;" points="327.614,396.73 329.6,403.336 329.883,403.251 327.897,396.646 				"/>
				<polygon style="fill:#FFFFFF;" points="306.35,433.807 300.001,431.114 299.885,431.385 306.234,434.079 				"/>
				<polygon style="fill:#FFFFFF;" points="298.985,415.897 298.75,415.718 294.558,421.195 294.793,421.374 				"/>
				
					<rect x="308.319" y="417.158" transform="matrix(0.9576 -0.288 0.288 0.9576 -108.0528 106.6431)" style="fill:#FFFFFF;" width="0.295" height="6.897"/>
				<polygon style="fill:#FFFFFF;" points="307.713,424.436 305.727,417.83 305.444,417.915 307.43,424.521 				"/>
				<polygon style="fill:#FFFFFF;" points="300.551,417.094 300.316,416.915 296.123,422.394 296.358,422.573 				"/>
				<polygon style="fill:#FFFFFF;" points="290.471,362.592 290.756,362.673 291.689,359.37 292.632,356.035 292.347,355.954 
					291.382,359.37 				"/>
				<polygon style="fill:#FFFFFF;" points="289.332,359.37 288.573,362.055 288.858,362.136 289.64,359.37 290.734,355.498 
					290.45,355.418 				"/>
				<polygon style="fill:#FFFFFF;" points="294.26,405.879 294.003,405.733 290.573,411.717 290.83,411.863 				"/>
				<polygon style="fill:#FFFFFF;" points="295.97,406.858 295.714,406.712 292.284,412.698 292.541,412.844 				"/>
				<polygon style="fill:#FFFFFF;" points="311.795,385.408 308.365,391.394 308.622,391.54 312.051,385.554 				"/>
				<polygon style="fill:#FFFFFF;" points="324.207,406.862 322.667,413.584 322.956,413.649 324.495,406.927 				"/>
				<path style="fill:#FFFFFF;" d="M326.31,389.734l-4.09-1.734l-0.116,0.271l4.345,1.842
					C326.403,389.987,326.357,389.861,326.31,389.734z"/>
				<polygon style="fill:#FFFFFF;" points="324.229,419.079 324.189,418.787 317.359,419.747 317.399,420.04 				"/>
				<polygon style="fill:#FFFFFF;" points="327.868,426.304 327.639,426.49 330.767,430.314 332.006,431.827 332.235,431.64 
					331.149,430.314 				"/>
				<polygon style="fill:#FFFFFF;" points="312.968,430.314 313.696,427.448 313.41,427.375 312.662,430.314 311.71,434.059 
					311.997,434.132 				"/>
				
					<rect x="314.024" y="405.837" transform="matrix(0.3905 -0.9206 0.9206 0.3905 -185.3063 538.6681)" style="fill:#FFFFFF;" width="0.295" height="6.896"/>
				<polygon style="fill:#FFFFFF;" points="310.934,430.314 311.785,426.963 311.499,426.89 310.629,430.314 309.801,433.573 
					310.088,433.647 				"/>
				<polygon style="fill:#FFFFFF;" points="331.819,444.234 332.591,437.379 332.296,437.346 331.525,444.201 				"/>
			</g>
			<path style="fill:none;stroke:#263238;stroke-width:0.9853;" d="M288.388,330.129c0,0,12.574-1.64,18.04,8.747
				c5.467,10.387,39.361,102.228,39.907,110.975c0.547,8.747-22.414,10.933-30.067,7.107c-7.654-3.827-28.974-49.201-31.16-55.214"
				/>
			<g>
				
					<path style="fill:#CFCFCF;stroke:#263238;stroke-width:0.9853;stroke-linecap:round;stroke-linejoin:round;stroke-miterlimit:10;" d="
					M212.4,455.318c0,0-25.694-3.28-30.067-2.733c-4.373,0.547-24.054,13.667-24.054,13.667h55.761L212.4,455.318z"/>
				<path style="fill:#92E3A9;" d="M318.455,437.824L212.4,455.318l1.64,10.934h130.655c0,0,1.64-8.2,1.64-16.4
					c0-8.2-4.92-17.494-4.92-17.494"/>
				<g>
					<polygon style="fill:#FFFFFF;" points="327.234,455.865 329.22,462.471 329.503,462.386 327.517,455.78 					"/>
					<polygon style="fill:#FFFFFF;" points="334.488,437.19 330.15,442.552 330.379,442.738 334.717,437.376 					"/>
					<polygon style="fill:#FFFFFF;" points="328.618,441.313 328.847,441.5 333.183,436.137 332.954,435.951 					"/>
					<polygon style="fill:#FFFFFF;" points="314.835,450.862 316.821,457.467 317.104,457.382 315.118,450.778 					"/>
					<polygon style="fill:#FFFFFF;" points="331.391,461.816 329.405,455.212 329.122,455.296 331.108,461.901 					"/>
					
						<rect x="317.71" y="450.107" transform="matrix(0.9576 -0.288 0.288 0.9576 -117.145 110.7452)" style="fill:#FFFFFF;" width="0.295" height="6.897"/>
					
						<rect x="333.077" y="446.886" transform="matrix(0.2462 -0.9692 0.9692 0.2462 -179.5927 663.1601)" style="fill:#FFFFFF;" width="6.896" height="0.296"/>
					<polygon style="fill:#FFFFFF;" points="336.022,466.251 336.33,466.251 337.777,461.131 337.493,461.051 					"/>
					<polygon style="fill:#FFFFFF;" points="311.445,465.123 311.329,465.394 313.35,466.251 314.105,466.251 					"/>
					
						<rect x="334.986" y="447.371" transform="matrix(0.2464 -0.9692 0.9692 0.2464 -178.6777 665.2468)" style="fill:#FFFFFF;" width="6.896" height="0.296"/>
					
						<rect x="289.04" y="444.822" transform="matrix(0.9407 -0.3394 0.3394 0.9407 -134.9636 124.7411)" style="fill:#FFFFFF;" width="0.296" height="6.896"/>
					<polygon style="fill:#FFFFFF;" points="321.725,447.406 328.074,450.098 328.19,449.827 321.841,447.135 					"/>
					<polygon style="fill:#FFFFFF;" points="323.827,465.996 323.769,466.251 324.072,466.251 324.116,466.062 					"/>
					
						<rect x="325.58" y="443.353" transform="matrix(0.3905 -0.9206 0.9206 0.3905 -212.8002 572.1713)" style="fill:#FFFFFF;" width="0.295" height="6.897"/>
					<polygon style="fill:#FFFFFF;" points="293.71,444.01 298.078,449.349 298.307,449.162 293.939,443.823 					"/>
					<polygon style="fill:#FFFFFF;" points="299.832,447.913 295.465,442.577 295.236,442.763 299.603,448.1 					"/>
					<path style="fill:#FFFFFF;" d="M342.631,436.919l0.61-0.527c-0.039-0.097-0.078-0.194-0.117-0.288l-0.685,0.592
						L342.631,436.919z"/>
					
						<rect x="289.274" y="456.191" transform="matrix(0.2729 -0.962 0.962 0.2729 -226.1862 613.3929)" style="fill:#FFFFFF;" width="6.898" height="0.296"/>
					<path style="fill:#FFFFFF;" d="M343.895,451.122l2.412,0.545c0.003-0.101,0.007-0.2,0.01-0.301l-2.356-0.532L343.895,451.122z"
						/>
					<polygon style="fill:#FFFFFF;" points="306.899,464.117 305.547,466.251 305.898,466.251 307.149,464.275 					"/>
					<path style="fill:#FFFFFF;" d="M346.24,453.369l-2.714-0.613l-0.065,0.289l2.763,0.624
						C346.229,453.569,346.235,453.469,346.24,453.369z"/>
					<path style="fill:#FFFFFF;" d="M343.918,438.412l0.07-0.061c-0.035-0.098-0.07-0.202-0.105-0.299l-0.157,0.136L343.918,438.412
						z"/>
					
						<rect x="300.392" y="455.901" transform="matrix(0.9166 -0.3997 0.3997 0.9166 -156.9676 159.4764)" style="fill:#FFFFFF;" width="6.899" height="0.296"/>
					<polygon style="fill:#FFFFFF;" points="305.483,463.22 305.233,463.063 303.214,466.251 303.564,466.251 					"/>
					
						<rect x="291.171" y="456.728" transform="matrix(0.2728 -0.9621 0.9621 0.2728 -225.3074 615.6602)" style="fill:#FFFFFF;" width="6.898" height="0.296"/>
					
						<rect x="301.181" y="457.708" transform="matrix(0.9166 -0.3998 0.3998 0.9166 -157.6588 159.9957)" style="fill:#FFFFFF;" width="6.897" height="0.296"/>
					<polygon style="fill:#FFFFFF;" points="311.671,444.689 311.415,444.542 307.985,450.528 308.242,450.675 					"/>
					<polygon style="fill:#FFFFFF;" points="306.276,449.548 306.533,449.694 309.961,443.71 309.704,443.564 					"/>
					
						<rect x="229.448" y="455.901" transform="matrix(0.9166 -0.3999 0.3999 0.9166 -162.9272 131.1724)" style="fill:#FFFFFF;" width="6.899" height="0.296"/>
					<polygon style="fill:#FFFFFF;" points="222.936,465.014 222.679,464.868 221.886,466.251 222.227,466.251 					"/>
					<polygon style="fill:#FFFFFF;" points="220.983,459.698 222.702,453.618 222.379,453.672 220.698,459.618 					"/>
					<polygon style="fill:#FFFFFF;" points="224.647,465.992 224.39,465.846 224.158,466.251 224.498,466.251 					"/>
					<polygon style="fill:#FFFFFF;" points="257.9,448.284 258.016,448.012 257.644,447.855 257.101,447.944 					"/>
					<polygon style="fill:#FFFFFF;" points="265.078,466.251 265.386,466.251 266.833,461.131 266.549,461.051 					"/>
					<polygon style="fill:#FFFFFF;" points="267.673,446.2 266.498,450.824 266.784,450.897 267.992,446.148 					"/>
					<polygon style="fill:#FFFFFF;" points="234.539,463.22 234.289,463.063 232.27,466.251 232.62,466.251 					"/>
					<polygon style="fill:#FFFFFF;" points="236.205,464.275 235.955,464.117 234.604,466.251 234.954,466.251 					"/>
					<polygon style="fill:#FFFFFF;" points="295.334,465.846 295.102,466.251 295.442,466.251 295.59,465.992 					"/>
					<polygon style="fill:#FFFFFF;" points="339.388,461.588 338.07,466.251 338.377,466.251 339.673,461.669 					"/>
					
						<rect x="287.186" y="445.49" transform="matrix(0.9406 -0.3396 0.3396 0.9406 -135.3737 124.2465)" style="fill:#FFFFFF;" width="0.296" height="6.897"/>
					<polygon style="fill:#FFFFFF;" points="268.444,461.588 267.126,466.251 267.433,466.251 268.729,461.669 					"/>
					<polygon style="fill:#FFFFFF;" points="240.501,465.123 240.385,465.394 242.406,466.251 243.161,466.251 					"/>
					<polygon style="fill:#FFFFFF;" points="293.88,465.014 293.623,464.868 292.83,466.251 293.171,466.251 					"/>
					
						<rect x="220.227" y="456.728" transform="matrix(0.272 -0.9623 0.9623 0.272 -276.8175 547.8324)" style="fill:#FFFFFF;" width="6.898" height="0.296"/>
					<polygon style="fill:#FFFFFF;" points="279.846,458.115 279.571,458.007 277.048,464.427 277.323,464.535 					"/>
					
						<rect x="230.237" y="457.708" transform="matrix(0.9166 -0.3997 0.3997 0.9166 -163.527 131.569)" style="fill:#FFFFFF;" width="6.897" height="0.296"/>
					<polygon style="fill:#FFFFFF;" points="281.68,458.835 281.405,458.727 278.882,465.147 279.157,465.254 					"/>
					<polygon style="fill:#FFFFFF;" points="272.516,453.045 275.578,453.736 279.245,454.564 279.31,454.275 275.578,453.433 
						272.582,452.756 					"/>
					<polygon style="fill:#FFFFFF;" points="279.679,452.642 279.745,452.353 275.578,451.412 273.017,450.833 272.951,451.122 
						275.578,451.715 					"/>
					<polygon style="fill:#FFFFFF;" points="264.875,450.412 265.869,446.498 265.551,446.551 264.589,450.339 					"/>
					<polygon style="fill:#FFFFFF;" points="257.246,449.827 254.009,448.454 253.465,448.544 257.13,450.098 					"/>
					
						<rect x="246.766" y="450.107" transform="matrix(0.9579 -0.2871 0.2871 0.9579 -119.8325 89.9949)" style="fill:#FFFFFF;" width="0.295" height="6.897"/>
					<polygon style="fill:#FFFFFF;" points="246.16,457.382 244.174,450.778 243.891,450.862 245.877,457.467 					"/>
					<polygon style="fill:#FFFFFF;" points="256.29,455.865 258.276,462.471 258.559,462.386 256.573,455.78 					"/>
					<polygon style="fill:#FFFFFF;" points="252.883,465.996 252.825,466.251 253.128,466.251 253.171,466.062 					"/>
					<polygon style="fill:#FFFFFF;" points="260.447,461.816 258.461,455.212 258.178,455.296 260.164,461.901 					"/>
				</g>
				<path style="fill:none;stroke:#263238;stroke-width:0.9853;" d="M318.455,437.824L212.4,455.318l1.64,10.934h130.655
					c0,0,1.64-8.2,1.64-16.4c0-8.2-4.92-17.494-4.92-17.494"/>
			</g>
		</g>
	</g>
</g>
<g id="Device">
	<g>
		
			<path style="fill:#263238;stroke:#263238;stroke-width:0.9853;stroke-linecap:round;stroke-linejoin:round;stroke-miterlimit:10;" d="
			M341.756,464.478H209.992l-4.308-72.439c-0.504-3.006,1.813-5.743,4.861-5.743h130.658c3.047,0,5.365,2.738,4.861,5.743
			L341.756,464.478z"/>
		<g>
			
				<path style="fill:none;stroke:#FFFFFF;stroke-width:0.9853;stroke-linecap:round;stroke-linejoin:round;stroke-miterlimit:10;" d="
				M216.474,388.028h123.772c3.003,0,5.286,2.651,4.789,5.56"/>
			
				<path style="fill:none;stroke:#FFFFFF;stroke-width:0.9853;stroke-linecap:round;stroke-linejoin:round;stroke-miterlimit:10;" d="
				M206.657,392.446c0.179-2.426,2.242-4.418,4.845-4.418"/>
		</g>
		
			<rect x="209.431" y="457.419" style="fill:#FFFFFF;stroke:#263238;stroke-width:0.9853;stroke-linecap:round;stroke-linejoin:round;stroke-miterlimit:10;" width="132.885" height="7.059"/>
		
			<path style="fill:#FFFFFF;stroke:#263238;stroke-width:0.9853;stroke-linecap:round;stroke-linejoin:round;stroke-miterlimit:10;" d="
			M284.815,425.661c0,3.119-4.214,5.647-9.412,5.647c-5.198,0-9.412-2.528-9.412-5.647c0-3.119,4.214-5.647,9.412-5.647
			C280.601,420.014,284.815,422.542,284.815,425.661z"/>
	</g>
</g>
<g id="Mug">
	<g>
		<g>
			
				<path id="XMLID_17_" style="fill:#263238;stroke:#263238;stroke-width:0.9853;stroke-linecap:round;stroke-linejoin:round;stroke-miterlimit:10;" d="
				M78.938,457.196c-3.24,0-6.736-1.348-8.083-1.926c-1.418-0.608-2.076-2.251-1.468-3.67c0.609-1.418,2.253-2.074,3.669-1.467
				c2.581,1.1,5.893,1.773,6.785,1.392c1.617-1.825,4.126-12.876,0.886-18.14c-0.722-1.174-1.403-1.391-1.852-1.452
				c-1.834-0.252-4.558,1.638-5.52,2.537c-1.129,1.052-2.896,0.992-3.949-0.137c-1.053-1.129-0.992-2.897,0.136-3.95
				c0.513-0.478,5.149-4.658,10.081-3.989c1.674,0.226,4.051,1.115,5.865,4.061c4.769,7.75,1.499,22.52-2.155,25.443
				C82.138,456.854,80.571,457.196,78.938,457.196z"/>
			
				<rect id="XMLID_16_" x="43.141" y="424.103" style="fill:#263238;stroke:#263238;stroke-width:0.9853;stroke-linecap:round;stroke-linejoin:round;stroke-miterlimit:10;" width="30.849" height="40.946"/>
		</g>
		<g>
			
				<path style="fill:none;stroke:#263238;stroke-width:0.9853;stroke-linecap:round;stroke-linejoin:round;stroke-miterlimit:10;" d="
				M45.936,421.86c0,0,0-3.41,6.251-6.819c6.251-3.41,9.661-8.524,6.251-18.185c-3.41-9.661-2.841-16.48,3.978-22.163"/>
			
				<path style="fill:none;stroke:#263238;stroke-width:0.9853;stroke-linecap:round;stroke-linejoin:round;stroke-miterlimit:10;" d="
				M47.356,385.512c0.319-4.152,2.178-7.661,5.967-10.819"/>
			
				<path style="fill:none;stroke:#263238;stroke-width:0.9853;stroke-linecap:round;stroke-linejoin:round;stroke-miterlimit:10;" d="
				M49.346,396.856c-0.656-1.859-1.165-3.613-1.51-5.273"/>
			
				<path style="fill:none;stroke:#263238;stroke-width:0.9853;stroke-linecap:round;stroke-linejoin:round;stroke-miterlimit:10;" d="
				M71.321,400.185c-0.22-1.046-0.534-2.154-0.949-3.329c-0.184-0.522-0.357-1.035-0.517-1.54"/>
			
				<path style="fill:none;stroke:#263238;stroke-width:0.9853;stroke-linecap:round;stroke-linejoin:round;stroke-miterlimit:10;" d="
				M57.87,421.86c0,0,0-3.41,6.251-6.819c4.101-2.237,6.979-5.207,7.511-9.713"/>
		</g>
	</g>
</g>
<g id="Table">
	<rect x="14.591" y="464.355" style="fill:#263238;" width="465.443" height="10.305"/>
</g>
</svg>
