<?xml version="1.0" encoding="utf-8"?>
<!-- Generator: Adobe Illustrator 27.5.0, SVG Export Plug-In . SVG Version: 6.00 Build 0)  -->
<svg version="1.1" xmlns="http://www.w3.org/2000/svg" xmlns:xlink="http://www.w3.org/1999/xlink" x="0px" y="0px"
	 viewBox="0 0 500 500" style="enable-background:new 0 0 500 500;" xml:space="preserve">
<g id="Background_Simple">
	<g>
		<path style="fill:#92E3A9;" d="M485.643,265.12c0.082-1.078,0.167-2.15,0.306-3.219c1.497-11.491,8.481-97.868-100.024-206.504
			C269.308-61.36,141.865,69.78,119.851,104.058s-28.427,86.918-45.419,52.279c-10.505-21.414,16.876-48.228-21.908-37.027
			c-24.884,7.187-71.103,70.778-33.215,180.04c37.888,109.262,144.305,192.614,246.575,186.535
			c131.514-7.818,208.952-103.196,202.805-110.287c-6.147-7.091-55.13,14.063-44.368-0.671
			C434.915,360.422,482.553,305.661,485.643,265.12z"/>
		<path style="opacity:0.8;fill:#FFFFFF;" d="M485.643,265.12c0.082-1.078,0.167-2.15,0.306-3.219
			c1.497-11.491,8.481-97.868-100.024-206.504C269.308-61.36,141.865,69.78,119.851,104.058s-28.427,86.918-45.419,52.279
			c-10.505-21.414,16.876-48.228-21.908-37.027c-24.884,7.187-71.103,70.778-33.215,180.04
			c37.888,109.262,144.305,192.614,246.575,186.535c131.514-7.818,208.952-103.196,202.805-110.287
			c-6.147-7.091-55.13,14.063-44.368-0.671C434.915,360.422,482.553,305.661,485.643,265.12z"/>
	</g>
</g>
<g id="Shapes">
	<g>
		<path style="fill:#92E3A9;" d="M145.269,181.96l-47.281-12.765c-6.732-1.818-9.901-9.533-6.389-15.558l0,0
			c3.289-5.641,10.849-6.991,15.887-2.837L145.269,181.96z"/>
		<path style="fill:#92E3A9;" d="M134.41,87.416l54.137,44.522l-36.384-59.91c-3.61-5.944-11.522-7.546-17.16-3.475l0,0
			C128.669,73.126,128.376,82.454,134.41,87.416z"/>
		<path style="fill:#92E3A9;" d="M243.323,54.56l11.045,67.961l15.814-67.012c1.979-8.388-4.185-16.499-12.796-16.837l0,0
			C248.729,38.331,241.933,46.01,243.323,54.56z"/>
		<path style="fill:#92E3A9;" d="M346.309,68.294c-6.455,17.728-16.49,46.153-16.49,46.153l36.824-32.217
			c6.657-5.824,5.488-16.496-2.271-20.741v0C357.535,57.748,348.975,60.971,346.309,68.294z"/>
		<path style="fill:#92E3A9;" d="M399.585,137.158l-36.04,36.641l48.699-16.428c7.742-2.612,10.81-11.923,6.139-18.626h0
			C413.994,132.449,404.966,131.687,399.585,137.158z"/>
		
			<ellipse transform="matrix(0.7071 -0.7071 0.7071 0.7071 3.6601 286.8425)" style="fill:#92E3A9;" cx="348.08" cy="139.003" rx="7.732" ry="7.732"/>
		
			<ellipse transform="matrix(0.1598 -0.9871 0.9871 0.1598 208.2148 358.7093)" style="fill:#92E3A9;" cx="314.83" cy="57.039" rx="7.732" ry="7.732"/>
		
			<ellipse transform="matrix(0.9225 -0.386 0.386 0.9225 -0.0897 167.7589)" style="fill:#92E3A9;" cx="417.671" cy="84.103" rx="14.305" ry="14.305"/>
		<circle style="fill:#92E3A9;" cx="212.762" cy="88.742" r="7.732"/>
		
			<ellipse transform="matrix(0.2298 -0.9732 0.9732 0.2298 -40.0459 170.1862)" style="fill:#92E3A9;" cx="87.497" cy="110.393" rx="15.733" ry="15.733"/>
		<path style="fill:#92E3A9;" d="M136.984,138.23c0,3.416-2.77,6.186-6.186,6.186s-6.186-2.77-6.186-6.186s2.77-6.186,6.186-6.186
			S136.984,134.814,136.984,138.23z"/>
		
			<ellipse transform="matrix(0.2298 -0.9732 0.9732 0.2298 -137.3384 201.9002)" style="fill:#92E3A9;" cx="58.887" cy="187.717" rx="10.052" ry="10.052"/>
		
			<ellipse transform="matrix(0.2309 -0.973 0.973 0.2309 156.6568 559.7008)" style="fill:#92E3A9;" cx="432.363" cy="180.758" rx="11.599" ry="11.599"/>
	</g>
</g>
<g id="Plants">
	<g>
		<path style="fill:#92E3A9;" d="M465.849,260.978c-0.012,0.061,4.067-0.404,4.321-0.462c2.94-0.681,8.22-3.726,8.503-7.093
			c0.204-2.426-1.862-4.258-4.198-4.219c-2.385,0.041-4.583,1.991-5.912,3.812C467.004,255.154,465.85,260.974,465.849,260.978z"/>
		<path style="fill:#92E3A9;" d="M445.592,204.488c-0.121,2.643,2.127,8.135,2.129,8.139c0.023,0.057,3.169-2.58,3.349-2.769
			c2.076-2.19,4.801-7.642,3.179-10.607c-1.168-2.136-3.903-2.524-5.829-1.203C446.453,199.397,445.696,202.237,445.592,204.488z"/>
		<path style="fill:#92E3A9;" d="M430.282,212.55c0.558,2.48,3.886,6.874,4.152,7.222c-2.468,1.841-4.851,3.93-7.146,6.178
			c-1.314,1.283-2.597,2.617-3.867,3.97c0.488-0.704,0.919-1.337,0.969-1.432c1.424-2.661,2.612-8.639,0.266-11.07
			c-1.691-1.752-4.431-1.405-5.939,0.379c-1.541,1.821-1.522,4.76-1.027,6.959c0.502,2.231,3.264,6.034,4.009,7.031
			c-0.482,0.524-0.969,1.042-1.448,1.568c-2.301,2.524-4.587,5.053-6.905,7.464c-0.816,0.851-1.651,1.658-2.484,2.469
			c0.432-0.626,0.791-1.157,0.838-1.243c1.424-2.661,2.612-8.639,0.266-11.07c-1.691-1.752-4.431-1.404-5.94,0.379
			c-1.541,1.821-1.522,4.76-1.027,6.959c0.479,2.129,2.997,5.662,3.876,6.85c-0.878,0.805-1.755,1.612-2.642,2.352
			c-0.617,0.491-1.177,1.008-1.824,1.467c-0.631,0.468-1.256,0.932-1.875,1.391c-1.224,0.84-2.483,1.715-3.698,2.504
			c-0.84,0.556-1.652,1.07-2.468,1.59c0.823-0.837,2.398-2.509,2.514-2.664c1.811-2.414,3.891-8.143,1.939-10.902
			c-1.406-1.987-4.167-2.06-5.928-0.525c-1.799,1.567-2.225,4.475-2.069,6.723c0.172,2.475,2.672,7.144,2.988,7.726
			c-1.353,0.856-2.678,1.676-3.94,2.429c-3.458,2.076-6.51,3.766-8.941,5.064l1.055,1.962c2.432-1.367,5.482-3.144,8.935-5.319
			c1.378-0.864,2.833-1.814,4.317-2.804c0.288,0.312,1.936,2.081,3.683,3.537c-1.13,2.285-1.59,7.208-1.646,7.844
			c-1.601-0.033-3.158-0.08-4.626-0.147c-3.589-0.157-6.739-0.392-9.327-0.624l1.231,2.29c2.329,0.142,5.026,0.269,8.028,0.335
			c1.625,0.04,3.363,0.05,5.148,0.043c0.103,0.641,0.979,5.876,2.358,7.944c1.25,1.875,3.365,3.916,5.746,4.057
			c2.332,0.138,4.474-1.606,4.371-4.039c-0.142-3.376-5.289-6.64-8.198-7.444c-0.172-0.048-2.091-0.354-3.305-0.527
			c0.729-0.007,1.437-0.005,2.188-0.021c1.484-0.021,2.965-0.086,4.558-0.151c0.768-0.058,1.544-0.117,2.328-0.176
			c0.778-0.042,1.595-0.185,2.401-0.276c1.864-0.248,3.741-0.59,5.624-0.977c0.022,1.3,0.167,5.914,1.123,7.966
			c0.952,2.042,2.733,4.38,5.066,4.88c2.284,0.489,4.665-0.91,4.933-3.33c0.371-3.359-4.223-7.365-6.976-8.6
			c-0.172-0.077-2.247-0.741-3.394-1.084c1.13-0.241,2.259-0.476,3.395-0.758c3.278-0.811,6.57-1.734,9.859-2.64
			c1.007-0.278,2.014-0.543,3.021-0.812c0.002,0.462,0.056,5.951,1.127,8.249c0.952,2.043,2.733,4.381,5.065,4.881
			c2.284,0.489,4.665-0.91,4.933-3.33c0.371-3.359-4.223-7.365-6.976-8.6c-0.207-0.093-3.195-1.044-3.966-1.249
			c2.218-0.592,4.434-1.161,6.641-1.634c3.045-0.656,6.068-1.132,9.031-1.375c0.001,0.216,0.03,5.944,1.127,8.298
			c0.952,2.043,2.733,4.381,5.066,4.881c2.284,0.489,4.665-0.91,4.932-3.33c0.371-3.359-4.222-7.365-6.975-8.6
			c-0.181-0.081-2.455-0.808-3.546-1.129c0.012-0.106,0.01-0.087,0.022-0.192c3.177-0.223,6.283-0.039,9.182,0.276
			c1.679,0.18,3.274,0.445,4.821,0.738c-0.104,1.067-0.525,5.951,0.229,8.178c0.722,2.135,2.236,4.654,4.499,5.408
			c2.217,0.737,4.737-0.392,5.269-2.768c0.738-3.298-3.388-7.784-5.989-9.314c-0.142-0.083-1.673-0.77-2.796-1.255
			c0.696,0.143,1.416,0.278,2.081,0.428c2.494,0.558,4.743,1.223,6.73,1.827c1.127,0.354,2.14,0.695,3.083,1.024
			c0.445,1.101,2.292,5.514,3.957,7.115c1.625,1.562,4.129,3.101,6.485,2.726c2.307-0.367,4.023-2.531,3.4-4.885
			c-0.865-3.267-6.594-5.347-9.607-5.507c-0.26-0.013-4.358,0.239-4.335,0.297c0,0,0.021,0.053,0.027,0.067
			c-0.902-0.336-1.872-0.685-2.941-1.044c-1.978-0.649-4.219-1.365-6.711-1.979c-2.488-0.62-5.209-1.225-8.132-1.602
			c-2.93-0.382-6.031-0.635-9.26-0.482c-0.037,0.002-0.075,0.008-0.111,0.01c0.93-0.338,3.501-1.371,3.689-1.472
			c2.656-1.433,6.944-5.764,6.329-9.087c-0.444-2.394-2.921-3.616-5.163-2.961c-2.29,0.669-3.895,3.131-4.695,5.238
			c-0.903,2.376-0.551,7.877-0.521,8.315c-3.074,0.174-6.214,0.602-9.368,1.21c-1.804,0.346-3.61,0.75-5.415,1.178
			c0.795-0.318,1.504-0.609,1.599-0.66c2.655-1.434,6.944-5.764,6.328-9.087c-0.444-2.394-2.921-3.616-5.163-2.961
			c-2.29,0.669-3.895,3.131-4.696,5.238c-0.812,2.138-0.606,6.834-0.535,8.076c-0.691,0.172-1.383,0.335-2.073,0.51
			c-3.312,0.835-6.613,1.684-9.876,2.416c-1.15,0.259-2.292,0.471-3.434,0.688c0.706-0.284,1.298-0.528,1.385-0.575
			c2.656-1.433,6.944-5.764,6.328-9.087c-0.444-2.394-2.921-3.616-5.163-2.961c-2.29,0.669-3.895,3.131-4.695,5.238
			c-0.775,2.04-0.624,6.376-0.546,7.852c-1.176,0.186-2.353,0.376-3.501,0.504c-0.786,0.069-1.538,0.191-2.331,0.217
			c-0.785,0.042-1.561,0.084-2.331,0.125c-1.485,0.025-3.017,0.061-4.466,0.049c-1.008-0.001-1.968-0.019-2.936-0.036
			c1.148-0.244,3.385-0.77,3.567-0.835c1.888-0.674,4.676-2.505,6.309-4.648c0.28-0.098,0.549-0.22,0.806-0.368
			c2.021-1.172,2.845-3.808,1.418-5.781c-1.981-2.738-8.075-2.62-10.944-1.686c-0.169,0.055-1.939,0.858-3.047,1.383
			c0.605-0.408,1.196-0.797,1.813-1.224c1.226-0.837,2.425-1.708,3.719-2.64c0.609-0.472,1.223-0.949,1.844-1.431
			c0.626-0.464,1.228-1.035,1.851-1.554c1.418-1.235,2.794-2.556,4.152-3.917c0.735,1.072,3.401,4.841,5.331,6.024
			c1.921,1.178,4.696,2.146,6.917,1.276c2.175-0.852,3.389-3.333,2.277-5.499c-1.543-3.006-7.584-3.813-10.562-3.325
			c-0.186,0.031-2.283,0.621-3.429,0.968c0.81-0.825,1.622-1.643,2.414-2.504c2.286-2.485,4.523-5.071,6.766-7.641
			c0.687-0.788,1.38-1.564,2.071-2.344c0.258,0.384,3.33,4.933,5.491,6.259c1.921,1.179,4.696,2.146,6.918,1.276
			c2.175-0.852,3.389-3.333,2.277-5.499c-1.543-3.007-7.585-3.813-10.562-3.325c-0.224,0.037-3.241,0.892-3.997,1.146
			c1.523-1.717,3.057-3.414,4.637-5.026c2.177-2.227,4.437-4.291,6.774-6.129c0.119,0.179,3.304,4.941,5.518,6.299
			c1.921,1.179,4.696,2.146,6.918,1.276c2.175-0.852,3.389-3.333,2.277-5.499c-1.543-3.007-7.585-3.814-10.562-3.325
			c-0.196,0.032-2.496,0.681-3.582,1.015c-0.048-0.094-0.039-0.077-0.088-0.172c2.527-1.939,5.219-3.499,7.812-4.835
			c1.499-0.777,2.977-1.436,4.428-2.044c0.502,0.948,2.845,5.253,4.702,6.696c1.78,1.382,4.432,2.649,6.736,2.029
			c2.256-0.608,3.735-2.941,2.867-5.216c-1.204-3.158-7.12-4.622-10.133-4.464c-0.164,0.008-1.82,0.281-3.023,0.495
			c0.659-0.264,1.335-0.55,1.971-0.79c2.388-0.911,4.631-1.597,6.622-2.189c1.135-0.328,2.168-0.601,3.137-0.847
			c0.978,0.673,4.953,3.335,7.225,3.752c2.217,0.407,5.154,0.308,6.913-1.304c1.722-1.579,1.96-4.331,0.141-5.95
			c-2.524-2.248-8.449-0.822-11.051,0.707c-0.225,0.132-3.503,2.603-3.453,2.639c0,0,0.048,0.033,0.059,0.04
			c-0.937,0.218-1.94,0.462-3.029,0.751c-2.008,0.55-4.272,1.189-6.689,2.051c-2.417,0.855-5.02,1.852-7.666,3.15
			c-2.655,1.297-5.381,2.797-7.99,4.706c-0.029,0.022-0.057,0.048-0.087,0.07c0.589-0.795,2.164-3.074,2.265-3.263
			c1.424-2.661,2.612-8.639,0.266-11.07c-1.691-1.752-4.431-1.405-5.94,0.379C429.767,207.413,429.787,210.351,430.282,212.55z"/>
		<path style="opacity:0.3;fill:#92E3A9;" d="M445.592,204.488c-0.121,2.643,2.127,8.135,2.129,8.139
			c0.023,0.057,3.169-2.58,3.349-2.769c2.076-2.19,4.801-7.642,3.179-10.607c-1.168-2.136-3.903-2.524-5.829-1.203
			C446.453,199.397,445.696,202.237,445.592,204.488z"/>
		<path style="opacity:0.3;fill:#92E3A9;" d="M465.849,260.978c-0.012,0.061,4.067-0.404,4.321-0.462
			c2.94-0.681,8.22-3.726,8.503-7.093c0.204-2.426-1.862-4.258-4.198-4.219c-2.385,0.041-4.583,1.991-5.912,3.812
			C467.004,255.154,465.85,260.974,465.849,260.978z"/>
		<path style="opacity:0.3;fill:#92E3A9;" d="M430.282,212.55c0.558,2.48,3.886,6.874,4.152,7.222
			c-2.468,1.841-4.851,3.93-7.146,6.178c-1.314,1.283-2.597,2.617-3.867,3.97c0.488-0.704,0.919-1.337,0.969-1.432
			c1.424-2.661,2.612-8.639,0.266-11.07c-1.691-1.752-4.431-1.405-5.939,0.379c-1.541,1.821-1.522,4.76-1.027,6.959
			c0.502,2.231,3.264,6.034,4.009,7.031c-0.482,0.524-0.969,1.042-1.448,1.568c-2.301,2.524-4.587,5.053-6.905,7.464
			c-0.816,0.851-1.651,1.658-2.484,2.469c0.432-0.626,0.791-1.157,0.838-1.243c1.424-2.661,2.612-8.639,0.266-11.07
			c-1.691-1.752-4.431-1.404-5.94,0.379c-1.541,1.821-1.522,4.76-1.027,6.959c0.479,2.129,2.997,5.662,3.876,6.85
			c-0.878,0.805-1.755,1.612-2.642,2.352c-0.617,0.491-1.177,1.008-1.824,1.467c-0.631,0.468-1.256,0.932-1.875,1.391
			c-1.224,0.84-2.483,1.715-3.698,2.504c-0.84,0.556-1.652,1.07-2.468,1.59c0.823-0.837,2.398-2.509,2.514-2.664
			c1.811-2.414,3.891-8.143,1.939-10.902c-1.406-1.987-4.167-2.06-5.928-0.525c-1.799,1.567-2.225,4.475-2.069,6.723
			c0.172,2.475,2.672,7.144,2.988,7.726c-1.353,0.856-2.678,1.676-3.94,2.429c-3.458,2.076-6.51,3.766-8.941,5.064l1.055,1.962
			c2.432-1.367,5.482-3.144,8.935-5.319c1.378-0.864,2.833-1.814,4.317-2.804c0.288,0.312,1.936,2.081,3.683,3.537
			c-1.13,2.285-1.59,7.208-1.646,7.844c-1.601-0.033-3.158-0.08-4.626-0.147c-3.589-0.157-6.739-0.392-9.327-0.624l1.231,2.29
			c2.329,0.142,5.026,0.269,8.028,0.335c1.625,0.04,3.363,0.05,5.148,0.043c0.103,0.641,0.979,5.876,2.358,7.944
			c1.25,1.875,3.365,3.916,5.746,4.057c2.332,0.138,4.474-1.606,4.371-4.039c-0.142-3.376-5.289-6.64-8.198-7.444
			c-0.172-0.048-2.091-0.354-3.305-0.527c0.729-0.007,1.437-0.005,2.188-0.021c1.484-0.021,2.965-0.086,4.558-0.151
			c0.768-0.058,1.544-0.117,2.328-0.176c0.778-0.042,1.595-0.185,2.401-0.276c1.864-0.248,3.741-0.59,5.624-0.977
			c0.022,1.3,0.167,5.914,1.123,7.966c0.952,2.042,2.733,4.38,5.066,4.88c2.284,0.489,4.665-0.91,4.933-3.33
			c0.371-3.359-4.223-7.365-6.976-8.6c-0.172-0.077-2.247-0.741-3.394-1.084c1.13-0.241,2.259-0.476,3.395-0.758
			c3.278-0.811,6.57-1.734,9.859-2.64c1.007-0.278,2.014-0.543,3.021-0.812c0.002,0.462,0.056,5.951,1.127,8.249
			c0.952,2.043,2.733,4.381,5.065,4.881c2.284,0.489,4.665-0.91,4.933-3.33c0.371-3.359-4.223-7.365-6.976-8.6
			c-0.207-0.093-3.195-1.044-3.966-1.249c2.218-0.592,4.434-1.161,6.641-1.634c3.045-0.656,6.068-1.132,9.031-1.375
			c0.001,0.216,0.03,5.944,1.127,8.298c0.952,2.043,2.733,4.381,5.066,4.881c2.284,0.489,4.665-0.91,4.932-3.33
			c0.371-3.359-4.222-7.365-6.975-8.6c-0.181-0.081-2.455-0.808-3.546-1.129c0.012-0.106,0.01-0.087,0.022-0.192
			c3.177-0.223,6.283-0.039,9.182,0.276c1.679,0.18,3.274,0.445,4.821,0.738c-0.104,1.067-0.525,5.951,0.229,8.178
			c0.722,2.135,2.236,4.654,4.499,5.408c2.217,0.737,4.737-0.392,5.269-2.768c0.738-3.298-3.388-7.784-5.989-9.314
			c-0.142-0.083-1.673-0.77-2.796-1.255c0.696,0.143,1.416,0.278,2.081,0.428c2.494,0.558,4.743,1.223,6.73,1.827
			c1.127,0.354,2.14,0.695,3.083,1.024c0.445,1.101,2.292,5.514,3.957,7.115c1.625,1.562,4.129,3.101,6.485,2.726
			c2.307-0.367,4.023-2.531,3.4-4.885c-0.865-3.267-6.594-5.347-9.607-5.507c-0.26-0.013-4.358,0.239-4.335,0.297
			c0,0,0.021,0.053,0.027,0.067c-0.902-0.336-1.872-0.685-2.941-1.044c-1.978-0.649-4.219-1.365-6.711-1.979
			c-2.488-0.62-5.209-1.225-8.132-1.602c-2.93-0.382-6.031-0.635-9.26-0.482c-0.037,0.002-0.075,0.008-0.111,0.01
			c0.93-0.338,3.501-1.371,3.689-1.472c2.656-1.433,6.944-5.764,6.329-9.087c-0.444-2.394-2.921-3.616-5.163-2.961
			c-2.29,0.669-3.895,3.131-4.695,5.238c-0.903,2.376-0.551,7.877-0.521,8.315c-3.074,0.174-6.214,0.602-9.368,1.21
			c-1.804,0.346-3.61,0.75-5.415,1.178c0.795-0.318,1.504-0.609,1.599-0.66c2.655-1.434,6.944-5.764,6.328-9.087
			c-0.444-2.394-2.921-3.616-5.163-2.961c-2.29,0.669-3.895,3.131-4.696,5.238c-0.812,2.138-0.606,6.834-0.535,8.076
			c-0.691,0.172-1.383,0.335-2.073,0.51c-3.312,0.835-6.613,1.684-9.876,2.416c-1.15,0.259-2.292,0.471-3.434,0.688
			c0.706-0.284,1.298-0.528,1.385-0.575c2.656-1.433,6.944-5.764,6.328-9.087c-0.444-2.394-2.921-3.616-5.163-2.961
			c-2.29,0.669-3.895,3.131-4.695,5.238c-0.775,2.04-0.624,6.376-0.546,7.852c-1.176,0.186-2.353,0.376-3.501,0.504
			c-0.786,0.069-1.538,0.191-2.331,0.217c-0.785,0.042-1.561,0.084-2.331,0.125c-1.485,0.025-3.017,0.061-4.466,0.049
			c-1.008-0.001-1.968-0.019-2.936-0.036c1.148-0.244,3.385-0.77,3.567-0.835c1.888-0.674,4.676-2.505,6.309-4.648
			c0.28-0.098,0.549-0.22,0.806-0.368c2.021-1.172,2.845-3.808,1.418-5.781c-1.981-2.738-8.075-2.62-10.944-1.686
			c-0.169,0.055-1.939,0.858-3.047,1.383c0.605-0.408,1.196-0.797,1.813-1.224c1.226-0.837,2.425-1.708,3.719-2.64
			c0.609-0.472,1.223-0.949,1.844-1.431c0.626-0.464,1.228-1.035,1.851-1.554c1.418-1.235,2.794-2.556,4.152-3.917
			c0.735,1.072,3.401,4.841,5.331,6.024c1.921,1.178,4.696,2.146,6.917,1.276c2.175-0.852,3.389-3.333,2.277-5.499
			c-1.543-3.006-7.584-3.813-10.562-3.325c-0.186,0.031-2.283,0.621-3.429,0.968c0.81-0.825,1.622-1.643,2.414-2.504
			c2.286-2.485,4.523-5.071,6.766-7.641c0.687-0.788,1.38-1.564,2.071-2.344c0.258,0.384,3.33,4.933,5.491,6.259
			c1.921,1.179,4.696,2.146,6.918,1.276c2.175-0.852,3.389-3.333,2.277-5.499c-1.543-3.007-7.585-3.813-10.562-3.325
			c-0.224,0.037-3.241,0.892-3.997,1.146c1.523-1.717,3.057-3.414,4.637-5.026c2.177-2.227,4.437-4.291,6.774-6.129
			c0.119,0.179,3.304,4.941,5.518,6.299c1.921,1.179,4.696,2.146,6.918,1.276c2.175-0.852,3.389-3.333,2.277-5.499
			c-1.543-3.007-7.585-3.814-10.562-3.325c-0.196,0.032-2.496,0.681-3.582,1.015c-0.048-0.094-0.039-0.077-0.088-0.172
			c2.527-1.939,5.219-3.499,7.812-4.835c1.499-0.777,2.977-1.436,4.428-2.044c0.502,0.948,2.845,5.253,4.702,6.696
			c1.78,1.382,4.432,2.649,6.736,2.029c2.256-0.608,3.735-2.941,2.867-5.216c-1.204-3.158-7.12-4.622-10.133-4.464
			c-0.164,0.008-1.82,0.281-3.023,0.495c0.659-0.264,1.335-0.55,1.971-0.79c2.388-0.911,4.631-1.597,6.622-2.189
			c1.135-0.328,2.168-0.601,3.137-0.847c0.978,0.673,4.953,3.335,7.225,3.752c2.217,0.407,5.154,0.308,6.913-1.304
			c1.722-1.579,1.96-4.331,0.141-5.95c-2.524-2.248-8.449-0.822-11.051,0.707c-0.225,0.132-3.503,2.603-3.453,2.639
			c0,0,0.048,0.033,0.059,0.04c-0.937,0.218-1.94,0.462-3.029,0.751c-2.008,0.55-4.272,1.189-6.689,2.051
			c-2.417,0.855-5.02,1.852-7.666,3.15c-2.655,1.297-5.381,2.797-7.99,4.706c-0.029,0.022-0.057,0.048-0.087,0.07
			c0.589-0.795,2.164-3.074,2.265-3.263c1.424-2.661,2.612-8.639,0.266-11.07c-1.691-1.752-4.431-1.405-5.94,0.379
			C429.767,207.413,429.787,210.351,430.282,212.55z"/>
	</g>
	<g>
		<path style="fill:#92E3A9;" d="M473.93,400.473c0.036,0.037,1.655-2.997,1.736-3.2c0.928-2.351,1.339-7.44-0.848-9.236
			c-1.576-1.294-3.822-0.741-4.905,0.889c-1.106,1.664-0.806,4.107-0.182,5.889C470.463,396.907,473.927,400.47,473.93,400.473z"/>
		<path style="fill:#92E3A9;" d="M425.344,387.582c1.765,1.34,6.621,2.401,6.624,2.402c0.05,0.011-0.272-3.412-0.317-3.626
			c-0.523-2.473-2.987-6.944-5.803-7.236c-2.028-0.21-3.596,1.491-3.601,3.448C422.243,384.568,423.841,386.44,425.344,387.582z"/>
		<path style="fill:#92E3A9;" d="M423.624,401.973c1.975,0.795,6.588,0.589,6.955,0.571c0.096,2.577,0.404,5.214,0.862,7.865
			c0.26,1.516,0.569,3.035,0.899,4.554c-0.254-0.671-0.485-1.269-0.527-1.349c-1.158-2.247-4.715-5.909-7.508-5.447
			c-2.012,0.333-3.075,2.388-2.563,4.276c0.523,1.929,2.559,3.313,4.31,4.017c1.777,0.714,5.713,0.618,6.754,0.578
			c0.132,0.582,0.258,1.164,0.393,1.744c0.647,2.787,1.303,5.565,1.864,8.31c0.198,0.967,0.358,1.927,0.521,2.887
			c-0.226-0.596-0.422-1.096-0.459-1.169c-1.157-2.247-4.715-5.909-7.507-5.447c-2.012,0.333-3.075,2.388-2.563,4.276
			c0.523,1.928,2.559,3.312,4.311,4.017c1.696,0.682,5.33,0.625,6.567,0.584c0.137,0.988,0.277,1.977,0.366,2.941
			c0.045,0.659,0.135,1.291,0.144,1.955c0.023,0.658,0.045,1.309,0.068,1.954c-0.003,1.244,0.002,2.527-0.031,3.741
			c-0.016,0.844-0.048,1.648-0.077,2.458c-0.186-0.965-0.59-2.847-0.641-3c-0.803-2.397-3.765-6.555-6.596-6.521
			c-2.039,0.025-3.401,1.894-3.181,3.838c0.225,1.985,2.028,3.662,3.652,4.624c1.789,1.058,6.197,1.554,6.748,1.613
			c-0.053,1.34-0.118,2.643-0.198,3.872c-0.213,3.371-0.499,6.279-0.759,8.573l1.854,0.205c0.213-2.327,0.439-5.275,0.58-8.69
			c0.06-1.361,0.096-2.816,0.119-4.31c0.352-0.05,2.355-0.346,4.19-0.858c1.039,1.866,4.215,4.524,4.627,4.864
			c-0.784,1.088-1.556,2.14-2.301,3.12c-1.815,2.4-3.474,4.46-4.865,6.135l2.165,0.24c1.205-1.538,2.575-3.338,4.048-5.376
			c0.8-1.102,1.634-2.295,2.477-3.529c0.491,0.234,4.518,2.119,6.599,2.151c1.887,0.029,4.3-0.458,5.53-2.034
			c1.204-1.542,1.019-3.849-0.707-4.935c-2.396-1.508-7.094,0.49-9.031,2.114c-0.115,0.096-1.238,1.273-1.935,2.028
			c0.342-0.506,0.68-0.993,1.026-1.518c0.691-1.033,1.35-2.085,2.063-3.215c0.325-0.557,0.654-1.12,0.986-1.689
			c0.341-0.557,0.631-1.188,0.952-1.787c0.715-1.403,1.372-2.86,2-4.342c0.907,0.603,4.157,2.697,6.027,3.013
			c1.861,0.314,4.32,0.198,5.774-1.173c1.423-1.342,1.591-3.65,0.049-4.985c-2.14-1.853-7.086-0.59-9.247,0.721
			c-0.135,0.082-1.579,1.197-2.361,1.825c0.371-0.894,0.746-1.785,1.092-2.701c0.999-2.646,1.928-5.355,2.867-8.053
			c0.287-0.827,0.583-1.647,0.876-2.469c0.32,0.218,4.13,2.791,6.224,3.145c1.861,0.315,4.32,0.198,5.774-1.172
			c1.423-1.342,1.591-3.65,0.049-4.985c-2.14-1.853-7.086-0.59-9.247,0.721c-0.163,0.099-2.239,1.706-2.747,2.141
			c0.647-1.811,1.308-3.609,2.031-5.356c0.995-2.411,2.105-4.722,3.345-6.881c0.149,0.102,4.113,2.805,6.258,3.168
			c1.862,0.315,4.32,0.198,5.775-1.173c1.423-1.342,1.591-3.65,0.049-4.985c-2.14-1.853-7.086-0.59-9.247,0.721
			c-0.142,0.086-1.725,1.309-2.464,1.909c-0.067-0.059-0.055-0.048-0.122-0.106c1.357-2.297,2.961-4.351,4.556-6.2
			c0.922-1.073,1.864-2.046,2.801-2.973c0.687,0.579,3.854,3.191,5.748,3.731c1.816,0.517,4.272,0.672,5.868-0.531
			c1.562-1.178,1.982-3.453,0.596-4.949c-1.923-2.077-6.978-1.365-9.27-0.299c-0.125,0.058-1.326,0.788-2.194,1.331
			c0.429-0.412,0.865-0.845,1.284-1.231c1.57-1.454,3.098-2.689,4.46-3.772c0.78-0.609,1.497-1.145,2.172-1.639
			c0.971,0.217,4.892,1.041,6.788,0.655c1.849-0.378,4.101-1.373,4.963-3.176c0.844-1.766,0.167-3.978-1.752-4.667
			c-2.664-0.957-6.822,2.005-8.365,4.007c-0.133,0.173-1.908,3.118-1.857,3.13c0,0,0.047,0.011,0.059,0.013
			c-0.66,0.462-1.362,0.966-2.119,1.531c-1.388,1.055-2.947,2.26-4.555,3.686c-1.611,1.421-3.321,3.01-4.971,4.846
			c-1.657,1.838-3.305,3.857-4.735,6.156c-0.016,0.026-0.03,0.055-0.046,0.081c0.209-0.802,0.719-3.066,0.739-3.244
			c0.274-2.513-0.673-7.529-3.257-8.684c-1.862-0.832-3.882,0.295-4.497,2.153c-0.627,1.897,0.307,4.174,1.379,5.728
			c1.21,1.752,5.17,4.125,5.486,4.313c-1.342,2.202-2.539,4.571-3.62,7.035c-0.619,1.408-1.199,2.846-1.762,4.294
			c0.159-0.7,0.295-1.326,0.305-1.416c0.274-2.513-0.673-7.529-3.257-8.684c-1.862-0.832-3.882,0.295-4.497,2.153
			c-0.628,1.897,0.307,4.174,1.379,5.728c1.088,1.576,4.424,3.667,5.314,4.208c-0.21,0.558-0.426,1.113-0.634,1.672
			c-0.998,2.681-1.983,5.361-3.03,7.96c-0.368,0.916-0.765,1.805-1.158,2.695c0.14-0.622,0.253-1.146,0.262-1.228
			c0.274-2.513-0.673-7.529-3.257-8.684c-1.862-0.832-3.882,0.295-4.496,2.153c-0.627,1.897,0.307,4.174,1.38,5.728
			c1.038,1.505,4.1,3.462,5.155,4.11c-0.431,0.899-0.86,1.801-1.317,2.654c-0.326,0.575-0.599,1.151-0.958,1.711
			c-0.344,0.561-0.685,1.117-1.022,1.667c-0.689,1.036-1.392,2.109-2.089,3.103c-0.48,0.695-0.949,1.348-1.421,2.008
			c0.378-0.908,1.079-2.7,1.12-2.856c0.433-1.623,0.496-4.416-0.206-6.56c0.065-0.239,0.109-0.483,0.129-0.731
			c0.153-1.951-1.273-3.772-3.312-3.726c-2.83,0.064-5.646,4.322-6.366,6.745c-0.043,0.143-0.33,1.745-0.495,2.759
			c0.006-0.611,0.019-1.204,0.018-1.832c0.006-1.243-0.024-2.484-0.052-3.82c-0.036-0.644-0.073-1.295-0.11-1.952
			c-0.022-0.653-0.13-1.339-0.191-2.015c-0.178-1.565-0.434-3.142-0.727-4.725c1.089,0.003,4.955-0.044,6.689-0.812
			c1.726-0.764,3.713-2.218,4.169-4.163c0.447-1.905-0.686-3.922-2.709-4.185c-2.807-0.365-6.236,3.417-7.315,5.703
			c-0.067,0.143-0.657,1.87-0.963,2.825c-0.184-0.951-0.362-1.9-0.579-2.855c-0.626-2.758-1.346-5.53-2.052-8.299
			c-0.217-0.848-0.422-1.695-0.632-2.543c0.387,0.005,4.985,0.049,6.927-0.811c1.726-0.764,3.713-2.218,4.169-4.164
			c0.447-1.905-0.687-3.921-2.709-4.185c-2.807-0.365-6.236,3.417-7.315,5.703c-0.081,0.172-0.926,2.659-1.11,3.301
			c-0.46-1.867-0.901-3.731-1.261-5.587c-0.5-2.56-0.85-5.1-1.006-7.585c0.18,0.003,4.978,0.071,6.967-0.81
			c1.726-0.764,3.713-2.218,4.169-4.163c0.447-1.905-0.687-3.922-2.709-4.185c-2.807-0.365-6.236,3.417-7.315,5.702
			c-0.071,0.15-0.717,2.045-1.003,2.953c-0.088-0.012-0.072-0.01-0.16-0.021c-0.136-2.665,0.069-5.263,0.38-7.686
			c0.177-1.403,0.425-2.735,0.696-4.025c0.892,0.104,4.975,0.536,6.853-0.059c1.8-0.57,3.934-1.797,4.601-3.68
			c0.653-1.845-0.252-3.974-2.233-4.457c-2.75-0.671-6.573,2.712-7.897,4.865c-0.072,0.117-0.672,1.388-1.096,2.32
			c0.131-0.58,0.256-1.182,0.392-1.735c0.507-2.08,1.1-3.953,1.639-5.607c0.314-0.939,0.617-1.78,0.908-2.566
			c0.929-0.355,4.655-1.83,6.022-3.198c1.334-1.335,2.663-3.408,2.388-5.386c-0.27-1.938-2.055-3.411-4.036-2.927
			c-2.75,0.671-4.584,5.435-4.767,7.957c-0.016,0.218,0.13,3.654,0.178,3.636c0,0,0.045-0.017,0.056-0.021
			c-0.295,0.75-0.604,1.558-0.922,2.446c-0.576,1.646-1.211,3.511-1.766,5.588c-0.56,2.074-1.11,4.343-1.473,6.784
			c-0.368,2.447-0.63,5.041-0.554,7.747c0.001,0.03,0.006,0.062,0.007,0.093c-0.268-0.784-1.091-2.954-1.173-3.113
			c-1.157-2.247-4.715-5.909-7.507-5.447c-2.012,0.333-3.075,2.387-2.563,4.276C419.836,399.885,421.872,401.269,423.624,401.973z"
			/>
		<path style="opacity:0.3;fill:#92E3A9;" d="M425.344,387.582c1.765,1.34,6.621,2.401,6.624,2.402
			c0.05,0.011-0.272-3.412-0.317-3.626c-0.523-2.473-2.987-6.944-5.803-7.236c-2.028-0.21-3.596,1.491-3.601,3.448
			C422.243,384.568,423.841,386.44,425.344,387.582z"/>
		<path style="opacity:0.3;fill:#92E3A9;" d="M473.93,400.473c0.036,0.037,1.655-2.997,1.736-3.2
			c0.928-2.351,1.339-7.44-0.848-9.236c-1.576-1.294-3.822-0.741-4.905,0.889c-1.106,1.664-0.806,4.107-0.182,5.889
			C470.463,396.907,473.927,400.47,473.93,400.473z"/>
		<path style="opacity:0.3;fill:#92E3A9;" d="M423.624,401.973c1.975,0.795,6.588,0.589,6.955,0.571
			c0.096,2.577,0.404,5.214,0.862,7.865c0.26,1.516,0.569,3.035,0.899,4.554c-0.254-0.671-0.485-1.269-0.527-1.349
			c-1.158-2.247-4.715-5.909-7.508-5.447c-2.012,0.333-3.075,2.388-2.563,4.276c0.523,1.929,2.559,3.313,4.31,4.017
			c1.777,0.714,5.713,0.618,6.754,0.578c0.132,0.582,0.258,1.164,0.393,1.744c0.647,2.787,1.303,5.565,1.864,8.31
			c0.198,0.967,0.358,1.927,0.521,2.887c-0.226-0.596-0.422-1.096-0.459-1.169c-1.157-2.247-4.715-5.909-7.507-5.447
			c-2.012,0.333-3.075,2.388-2.563,4.276c0.523,1.928,2.559,3.312,4.311,4.017c1.696,0.682,5.33,0.625,6.567,0.584
			c0.137,0.988,0.277,1.977,0.366,2.941c0.045,0.659,0.135,1.291,0.144,1.955c0.023,0.658,0.045,1.309,0.068,1.954
			c-0.003,1.244,0.002,2.527-0.031,3.741c-0.016,0.844-0.048,1.648-0.077,2.458c-0.186-0.965-0.59-2.847-0.641-3
			c-0.803-2.397-3.765-6.555-6.596-6.521c-2.039,0.025-3.401,1.894-3.181,3.838c0.225,1.985,2.028,3.662,3.652,4.624
			c1.789,1.058,6.197,1.554,6.748,1.613c-0.053,1.34-0.118,2.643-0.198,3.872c-0.213,3.371-0.499,6.279-0.759,8.573l1.854,0.205
			c0.213-2.327,0.439-5.275,0.58-8.69c0.06-1.361,0.096-2.816,0.119-4.31c0.352-0.05,2.355-0.346,4.19-0.858
			c1.039,1.866,4.215,4.524,4.627,4.864c-0.784,1.088-1.556,2.14-2.301,3.12c-1.815,2.4-3.474,4.46-4.865,6.135l2.165,0.24
			c1.205-1.538,2.575-3.338,4.048-5.376c0.8-1.102,1.634-2.295,2.477-3.529c0.491,0.234,4.518,2.119,6.599,2.151
			c1.887,0.029,4.3-0.458,5.53-2.034c1.204-1.542,1.019-3.849-0.707-4.935c-2.396-1.508-7.094,0.49-9.031,2.114
			c-0.115,0.096-1.238,1.273-1.935,2.028c0.342-0.506,0.68-0.993,1.026-1.518c0.691-1.033,1.35-2.085,2.063-3.215
			c0.325-0.557,0.654-1.12,0.986-1.689c0.341-0.557,0.631-1.188,0.952-1.787c0.715-1.403,1.372-2.86,2-4.342
			c0.907,0.603,4.157,2.697,6.027,3.013c1.861,0.314,4.32,0.198,5.774-1.173c1.423-1.342,1.591-3.65,0.049-4.985
			c-2.14-1.853-7.086-0.59-9.247,0.721c-0.135,0.082-1.579,1.197-2.361,1.825c0.371-0.894,0.746-1.785,1.092-2.701
			c0.999-2.646,1.928-5.355,2.867-8.053c0.287-0.827,0.583-1.647,0.876-2.469c0.32,0.218,4.13,2.791,6.224,3.145
			c1.861,0.315,4.32,0.198,5.774-1.172c1.423-1.342,1.591-3.65,0.049-4.985c-2.14-1.853-7.086-0.59-9.247,0.721
			c-0.163,0.099-2.239,1.706-2.747,2.141c0.647-1.811,1.308-3.609,2.031-5.356c0.995-2.411,2.105-4.722,3.345-6.881
			c0.149,0.102,4.113,2.805,6.258,3.168c1.862,0.315,4.32,0.198,5.775-1.173c1.423-1.342,1.591-3.65,0.049-4.985
			c-2.14-1.853-7.086-0.59-9.247,0.721c-0.142,0.086-1.725,1.309-2.464,1.909c-0.067-0.059-0.055-0.048-0.122-0.106
			c1.357-2.297,2.961-4.351,4.556-6.2c0.922-1.073,1.864-2.046,2.801-2.973c0.687,0.579,3.854,3.191,5.748,3.731
			c1.816,0.517,4.272,0.672,5.868-0.531c1.562-1.178,1.982-3.453,0.596-4.949c-1.923-2.077-6.978-1.365-9.27-0.299
			c-0.125,0.058-1.326,0.788-2.194,1.331c0.429-0.412,0.865-0.845,1.284-1.231c1.57-1.454,3.098-2.689,4.46-3.772
			c0.78-0.609,1.497-1.145,2.172-1.639c0.971,0.217,4.892,1.041,6.788,0.655c1.849-0.378,4.101-1.373,4.963-3.176
			c0.844-1.766,0.167-3.978-1.752-4.667c-2.664-0.957-6.822,2.005-8.365,4.007c-0.133,0.173-1.908,3.118-1.857,3.13
			c0,0,0.047,0.011,0.059,0.013c-0.66,0.462-1.362,0.966-2.119,1.531c-1.388,1.055-2.947,2.26-4.555,3.686
			c-1.611,1.421-3.321,3.01-4.971,4.846c-1.657,1.838-3.305,3.857-4.735,6.156c-0.016,0.026-0.03,0.055-0.046,0.081
			c0.209-0.802,0.719-3.066,0.739-3.244c0.274-2.513-0.673-7.529-3.257-8.684c-1.862-0.832-3.882,0.295-4.497,2.153
			c-0.627,1.897,0.307,4.174,1.379,5.728c1.21,1.752,5.17,4.125,5.486,4.313c-1.342,2.202-2.539,4.571-3.62,7.035
			c-0.619,1.408-1.199,2.846-1.762,4.294c0.159-0.7,0.295-1.326,0.305-1.416c0.274-2.513-0.673-7.529-3.257-8.684
			c-1.862-0.832-3.882,0.295-4.497,2.153c-0.628,1.897,0.307,4.174,1.379,5.728c1.088,1.576,4.424,3.667,5.314,4.208
			c-0.21,0.558-0.426,1.113-0.634,1.672c-0.998,2.681-1.983,5.361-3.03,7.96c-0.368,0.916-0.765,1.805-1.158,2.695
			c0.14-0.622,0.253-1.146,0.262-1.228c0.274-2.513-0.673-7.529-3.257-8.684c-1.862-0.832-3.882,0.295-4.496,2.153
			c-0.627,1.897,0.307,4.174,1.38,5.728c1.038,1.505,4.1,3.462,5.155,4.11c-0.431,0.899-0.86,1.801-1.317,2.654
			c-0.326,0.575-0.599,1.151-0.958,1.711c-0.344,0.561-0.685,1.117-1.022,1.667c-0.689,1.036-1.392,2.109-2.089,3.103
			c-0.48,0.695-0.949,1.348-1.421,2.008c0.378-0.908,1.079-2.7,1.12-2.856c0.433-1.623,0.496-4.416-0.206-6.56
			c0.065-0.239,0.109-0.483,0.129-0.731c0.153-1.951-1.273-3.772-3.312-3.726c-2.83,0.064-5.646,4.322-6.366,6.745
			c-0.043,0.143-0.33,1.745-0.495,2.759c0.006-0.611,0.019-1.204,0.018-1.832c0.006-1.243-0.024-2.484-0.052-3.82
			c-0.036-0.644-0.073-1.295-0.11-1.952c-0.022-0.653-0.13-1.339-0.191-2.015c-0.178-1.565-0.434-3.142-0.727-4.725
			c1.089,0.003,4.955-0.044,6.689-0.812c1.726-0.764,3.713-2.218,4.169-4.163c0.447-1.905-0.686-3.922-2.709-4.185
			c-2.807-0.365-6.236,3.417-7.315,5.703c-0.067,0.143-0.657,1.87-0.963,2.825c-0.184-0.951-0.362-1.9-0.579-2.855
			c-0.626-2.758-1.346-5.53-2.052-8.299c-0.217-0.848-0.422-1.695-0.632-2.543c0.387,0.005,4.985,0.049,6.927-0.811
			c1.726-0.764,3.713-2.218,4.169-4.164c0.447-1.905-0.687-3.921-2.709-4.185c-2.807-0.365-6.236,3.417-7.315,5.703
			c-0.081,0.172-0.926,2.659-1.11,3.301c-0.46-1.867-0.901-3.731-1.261-5.587c-0.5-2.56-0.85-5.1-1.006-7.585
			c0.18,0.003,4.978,0.071,6.967-0.81c1.726-0.764,3.713-2.218,4.169-4.163c0.447-1.905-0.687-3.922-2.709-4.185
			c-2.807-0.365-6.236,3.417-7.315,5.702c-0.071,0.15-0.717,2.045-1.003,2.953c-0.088-0.012-0.072-0.01-0.16-0.021
			c-0.136-2.665,0.069-5.263,0.38-7.686c0.177-1.403,0.425-2.735,0.696-4.025c0.892,0.104,4.975,0.536,6.853-0.059
			c1.8-0.57,3.934-1.797,4.601-3.68c0.653-1.845-0.252-3.974-2.233-4.457c-2.75-0.671-6.573,2.712-7.897,4.865
			c-0.072,0.117-0.672,1.388-1.096,2.32c0.131-0.58,0.256-1.182,0.392-1.735c0.507-2.08,1.1-3.953,1.639-5.607
			c0.314-0.939,0.617-1.78,0.908-2.566c0.929-0.355,4.655-1.83,6.022-3.198c1.334-1.335,2.663-3.408,2.388-5.386
			c-0.27-1.938-2.055-3.411-4.036-2.927c-2.75,0.671-4.584,5.435-4.767,7.957c-0.016,0.218,0.13,3.654,0.178,3.636
			c0,0,0.045-0.017,0.056-0.021c-0.295,0.75-0.604,1.558-0.922,2.446c-0.576,1.646-1.211,3.511-1.766,5.588
			c-0.56,2.074-1.11,4.343-1.473,6.784c-0.368,2.447-0.63,5.041-0.554,7.747c0.001,0.03,0.006,0.062,0.007,0.093
			c-0.268-0.784-1.091-2.954-1.173-3.113c-1.157-2.247-4.715-5.909-7.507-5.447c-2.012,0.333-3.075,2.387-2.563,4.276
			C419.836,399.885,421.872,401.269,423.624,401.973z"/>
	</g>
	<g>
		<path style="fill:#92E3A9;" d="M71.933,393.819c0.05,0.015-0.022-3.423-0.052-3.64c-0.341-2.505-2.472-7.143-5.259-7.64
			c-2.007-0.358-3.696,1.224-3.843,3.175c-0.15,1.993,1.307,3.976,2.723,5.225C67.164,392.405,71.929,393.817,71.933,393.819z"/>
		<path style="fill:#92E3A9;" d="M23.253,406.351c2.195,0.305,6.949-1.145,6.952-1.147c0.049-0.015-1.907-2.843-2.051-3.007
			c-1.666-1.901-6.003-4.594-8.601-3.471c-1.872,0.809-2.407,3.06-1.453,4.769C19.074,405.24,21.383,406.091,23.253,406.351z"/>
		<path style="fill:#92E3A9;" d="M28.795,419.743c2.111-0.274,6.033-2.71,6.344-2.905c1.345,2.201,2.903,4.349,4.6,6.437
			c0.969,1.195,1.982,2.368,3.013,3.532c-0.55-0.461-1.044-0.869-1.12-0.919c-2.109-1.394-7.003-2.846-9.212-1.076
			c-1.592,1.275-1.514,3.587-0.143,4.983c1.4,1.426,3.853,1.637,5.725,1.394c1.9-0.247,5.285-2.257,6.174-2.801
			c0.4,0.442,0.794,0.888,1.196,1.329c1.928,2.114,3.86,4.216,5.692,6.336c0.646,0.746,1.255,1.505,1.867,2.262
			c-0.489-0.409-0.904-0.749-0.972-0.795c-2.109-1.393-7.003-2.846-9.212-1.077c-1.592,1.275-1.514,3.587-0.143,4.983
			c1.4,1.426,3.852,1.637,5.725,1.394c1.813-0.235,4.954-2.063,6.013-2.704c0.603,0.794,1.209,1.589,1.758,2.386
			c0.362,0.553,0.75,1.06,1.083,1.635c0.342,0.562,0.68,1.119,1.015,1.671c0.606,1.086,1.238,2.203,1.803,3.277
			c0.399,0.744,0.765,1.461,1.135,2.181c-0.634-0.751-1.907-2.194-2.027-2.302c-1.873-1.697-6.491-3.874-8.943-2.46
			c-1.766,1.019-2.04,3.316-0.896,4.904c1.168,1.621,3.56,2.201,5.448,2.245c2.078,0.048,6.165-1.677,6.674-1.896
			c0.609,1.195,1.191,2.363,1.722,3.474c1.464,3.044,2.638,5.72,3.533,7.849l1.718-0.728c-0.952-2.134-2.199-4.815-3.746-7.863
			c-0.614-1.216-1.294-2.503-2.005-3.817c0.283-0.216,1.885-1.454,3.235-2.798c1.819,1.119,5.889,1.883,6.415,1.978
			c-0.151,1.333-0.31,2.628-0.48,3.847c-0.408,2.981-0.848,5.59-1.241,7.73l2.005-0.85c0.299-1.931,0.613-4.171,0.899-6.67
			c0.159-1.353,0.301-2.801,0.434-4.29c0.543-0.037,4.977-0.362,6.808-1.353c1.66-0.898,3.526-2.504,3.827-4.479
			c0.295-1.934-0.994-3.855-3.031-3.958c-2.827-0.143-5.947,3.898-6.841,6.262c-0.053,0.139-0.457,1.716-0.695,2.716
			c0.051-0.609,0.107-1.199,0.152-1.826c0.097-1.239,0.157-2.479,0.226-3.813c0.011-0.645,0.022-1.297,0.033-1.955
			c0.025-0.653-0.031-1.345-0.044-2.024c-0.063-1.573-0.203-3.165-0.38-4.766c1.086,0.082,4.945,0.318,6.731-0.321
			c1.777-0.636,3.865-1.941,4.462-3.848c0.584-1.867-0.399-3.961-2.396-4.372c-2.773-0.569-6.468,2.953-7.711,5.154
			c-0.078,0.137-0.792,1.817-1.167,2.747c-0.114-0.961-0.223-1.921-0.37-2.89c-0.423-2.796-0.939-5.613-1.44-8.426
			c-0.154-0.862-0.297-1.721-0.444-2.582c0.386,0.034,4.968,0.413,6.967-0.303c1.777-0.636,3.865-1.941,4.462-3.848
			c0.584-1.867-0.399-3.961-2.396-4.371c-2.773-0.569-6.469,2.953-7.711,5.154c-0.094,0.166-1.118,2.584-1.348,3.212
			c-0.322-1.896-0.626-3.788-0.849-5.665c-0.312-2.59-0.475-5.148-0.45-7.638c0.18,0.016,4.96,0.434,7.008-0.299
			c1.777-0.636,3.865-1.941,4.462-3.848c0.585-1.867-0.399-3.961-2.397-4.371c-2.773-0.569-6.468,2.953-7.711,5.154
			c-0.081,0.144-0.863,1.985-1.215,2.87c-0.087-0.018-0.072-0.015-0.159-0.033c0.059-2.667,0.453-5.243,0.94-7.636
			c0.279-1.387,0.624-2.697,0.988-3.964c0.882,0.169,4.923,0.897,6.839,0.441c1.837-0.438,4.055-1.505,4.858-3.335
			c0.786-1.792,0.039-3.981-1.902-4.608c-2.694-0.87-6.754,2.225-8.231,4.275c-0.08,0.112-0.771,1.336-1.262,2.235
			c0.173-0.569,0.341-1.16,0.517-1.702c0.658-2.037,1.386-3.861,2.044-5.472c0.382-0.913,0.745-1.731,1.092-2.493
			c0.953-0.286,4.776-1.486,6.24-2.75c1.428-1.234,2.905-3.204,2.774-5.198c-0.128-1.953-1.8-3.551-3.812-3.213
			c-2.791,0.469-4.969,5.086-5.335,7.588c-0.031,0.216-0.137,3.653-0.088,3.639c0,0,0.046-0.014,0.058-0.017
			c-0.349,0.726-0.715,1.509-1.098,2.372c-0.694,1.6-1.464,3.414-2.169,5.444c-0.71,2.027-1.424,4.25-1.964,6.659
			c-0.545,2.414-0.995,4.981-1.117,7.686c-0.002,0.031,0.001,0.063,0,0.093c-0.21-0.802-0.873-3.026-0.943-3.191
			c-0.99-2.325-4.271-6.237-7.09-5.98c-2.031,0.185-3.241,2.157-2.868,4.078c0.381,1.961,2.31,3.49,4.006,4.321
			c1.912,0.936,6.527,1.068,6.895,1.077c-0.092,2.577,0.022,5.229,0.286,7.907c0.149,1.531,0.347,3.068,0.565,4.607
			c-0.204-0.688-0.391-1.301-0.427-1.384c-0.991-2.326-4.271-6.237-7.09-5.98c-2.031,0.185-3.241,2.157-2.868,4.078
			c0.381,1.962,2.31,3.49,4.006,4.321c1.72,0.842,5.653,1.033,6.694,1.07c0.09,0.59,0.173,1.179,0.265,1.768
			c0.441,2.827,0.894,5.646,1.252,8.424c0.127,0.979,0.216,1.948,0.309,2.917c-0.182-0.611-0.34-1.124-0.372-1.199
			c-0.99-2.326-4.271-6.237-7.09-5.98c-2.031,0.185-3.241,2.157-2.868,4.077c0.381,1.961,2.311,3.49,4.006,4.32
			c1.642,0.804,5.27,1.013,6.507,1.062c0.064,0.995,0.132,1.992,0.15,2.959c-0.003,0.661,0.04,1.297,0.001,1.961
			c-0.025,0.658-0.051,1.309-0.075,1.954c-0.094,1.241-0.182,2.521-0.304,3.728c-0.078,0.841-0.168,1.64-0.257,2.446
			c-0.115-0.976-0.381-2.882-0.421-3.039c-0.416-1.627-1.728-4.094-3.39-5.62c-0.06-0.241-0.141-0.475-0.245-0.701
			c-0.821-1.776-2.957-2.667-4.712-1.629c-2.437,1.441-2.809,6.532-2.252,8.997c0.033,0.145,0.566,1.683,0.918,2.648
			c-0.294-0.536-0.572-1.059-0.881-1.607c-0.603-1.087-1.237-2.155-1.915-3.305c-0.347-0.544-0.697-1.094-1.051-1.649
			c-0.339-0.558-0.768-1.104-1.153-1.664c-0.921-1.278-1.916-2.528-2.946-3.765c0.951-0.53,4.3-2.463,5.436-3.981
			c1.131-1.511,2.153-3.751,1.599-5.671c-0.542-1.88-2.518-3.084-4.41-2.324c-2.627,1.055-3.766,6.031-3.589,8.553
			c0.011,0.157,0.342,1.952,0.543,2.935c-0.625-0.739-1.245-1.48-1.902-2.207c-1.896-2.099-3.88-4.164-5.85-6.233
			c-0.604-0.634-1.198-1.272-1.795-1.909c0.34-0.185,4.371-2.396,5.644-4.096c1.131-1.511,2.153-3.751,1.599-5.671
			c-0.542-1.88-2.518-3.084-4.41-2.324c-2.627,1.055-3.766,6.031-3.589,8.553c0.014,0.19,0.493,2.772,0.647,3.422
			c-1.314-1.403-2.612-2.813-3.834-4.256c-1.689-1.988-3.236-4.032-4.589-6.123c0.159-0.086,4.376-2.374,5.68-4.116
			c1.132-1.511,2.153-3.751,1.599-5.671c-0.542-1.88-2.518-3.084-4.41-2.324c-2.627,1.055-3.766,6.031-3.589,8.552
			c0.011,0.166,0.375,2.135,0.57,3.066c-0.083,0.033-0.067,0.027-0.15,0.06c-1.422-2.258-2.515-4.624-3.43-6.889
			c-0.532-1.311-0.967-2.593-1.363-3.851c0.829-0.346,4.601-1.967,5.947-3.405c1.291-1.378,2.552-3.492,2.212-5.461
			c-0.333-1.928-2.164-3.342-4.129-2.794c-2.727,0.76-4.405,5.581-4.506,8.107c-0.006,0.137,0.094,1.54,0.18,2.56
			c-0.17-0.57-0.355-1.155-0.507-1.705c-0.575-2.062-0.975-3.985-1.315-5.692c-0.186-0.972-0.334-1.854-0.464-2.682
			c0.637-0.764,3.164-3.874,3.687-5.736c0.51-1.818,0.655-4.275-0.553-5.866c-1.184-1.558-3.461-1.969-4.952-0.577
			c-2.069,1.931-1.338,6.983-0.264,9.271c0.093,0.198,1.901,3.123,1.935,3.083c0,0,0.031-0.037,0.038-0.046
			c0.109,0.798,0.236,1.654,0.393,2.584c0.303,1.717,0.662,3.655,1.194,5.737c0.527,2.082,1.157,4.33,2.035,6.637
			c0.877,2.314,1.917,4.704,3.308,7.027c0.016,0.026,0.035,0.051,0.051,0.078c-0.618-0.553-2.397-2.042-2.546-2.141
			c-2.109-1.393-7.003-2.846-9.212-1.077c-1.592,1.275-1.514,3.587-0.143,4.983C24.47,419.775,26.922,419.986,28.795,419.743z"/>
		<path style="opacity:0.3;fill:#92E3A9;" d="M23.253,406.351c2.195,0.305,6.949-1.145,6.952-1.147
			c0.049-0.015-1.907-2.843-2.051-3.007c-1.666-1.901-6.003-4.594-8.601-3.471c-1.872,0.809-2.407,3.06-1.453,4.769
			C19.074,405.24,21.383,406.091,23.253,406.351z"/>
		<path style="opacity:0.3;fill:#92E3A9;" d="M71.933,393.819c0.05,0.015-0.022-3.423-0.052-3.64
			c-0.341-2.505-2.472-7.143-5.259-7.64c-2.007-0.358-3.696,1.224-3.843,3.175c-0.15,1.993,1.307,3.976,2.723,5.225
			C67.164,392.405,71.929,393.817,71.933,393.819z"/>
		<path style="opacity:0.3;fill:#92E3A9;" d="M28.795,419.743c2.111-0.274,6.033-2.71,6.344-2.905
			c1.345,2.201,2.903,4.349,4.6,6.437c0.969,1.195,1.982,2.368,3.013,3.532c-0.55-0.461-1.044-0.869-1.12-0.919
			c-2.109-1.394-7.003-2.846-9.212-1.076c-1.592,1.275-1.514,3.587-0.143,4.983c1.4,1.426,3.853,1.637,5.725,1.394
			c1.9-0.247,5.285-2.257,6.174-2.801c0.4,0.442,0.794,0.888,1.196,1.329c1.928,2.114,3.86,4.216,5.692,6.336
			c0.646,0.746,1.255,1.505,1.867,2.262c-0.489-0.409-0.904-0.749-0.972-0.795c-2.109-1.393-7.003-2.846-9.212-1.077
			c-1.592,1.275-1.514,3.587-0.143,4.983c1.4,1.426,3.852,1.637,5.725,1.394c1.813-0.235,4.954-2.063,6.013-2.704
			c0.603,0.794,1.209,1.589,1.758,2.386c0.362,0.553,0.75,1.06,1.083,1.635c0.342,0.562,0.68,1.119,1.015,1.671
			c0.606,1.086,1.238,2.203,1.803,3.277c0.399,0.744,0.765,1.461,1.135,2.181c-0.634-0.751-1.907-2.194-2.027-2.302
			c-1.873-1.697-6.491-3.874-8.943-2.46c-1.766,1.019-2.04,3.316-0.896,4.904c1.168,1.621,3.56,2.201,5.448,2.245
			c2.078,0.048,6.165-1.677,6.674-1.896c0.609,1.195,1.191,2.363,1.722,3.474c1.464,3.044,2.638,5.72,3.533,7.849l1.718-0.728
			c-0.952-2.134-2.199-4.815-3.746-7.863c-0.614-1.216-1.294-2.503-2.005-3.817c0.283-0.216,1.885-1.454,3.235-2.798
			c1.819,1.119,5.889,1.883,6.415,1.978c-0.151,1.333-0.31,2.628-0.48,3.847c-0.408,2.981-0.848,5.59-1.241,7.73l2.005-0.85
			c0.299-1.931,0.613-4.171,0.899-6.67c0.159-1.353,0.301-2.801,0.434-4.29c0.543-0.037,4.977-0.362,6.808-1.353
			c1.66-0.898,3.526-2.504,3.827-4.479c0.295-1.934-0.994-3.855-3.031-3.958c-2.827-0.143-5.947,3.898-6.841,6.262
			c-0.053,0.139-0.457,1.716-0.695,2.716c0.051-0.609,0.107-1.199,0.152-1.826c0.097-1.239,0.157-2.479,0.226-3.813
			c0.011-0.645,0.022-1.297,0.033-1.955c0.025-0.653-0.031-1.345-0.044-2.024c-0.063-1.573-0.203-3.165-0.38-4.766
			c1.086,0.082,4.945,0.318,6.731-0.321c1.777-0.636,3.865-1.941,4.462-3.848c0.584-1.867-0.399-3.961-2.396-4.372
			c-2.773-0.569-6.468,2.953-7.711,5.154c-0.078,0.137-0.792,1.817-1.167,2.747c-0.114-0.961-0.223-1.921-0.37-2.89
			c-0.423-2.796-0.939-5.613-1.44-8.426c-0.154-0.862-0.297-1.721-0.444-2.582c0.386,0.034,4.968,0.413,6.967-0.303
			c1.777-0.636,3.865-1.941,4.462-3.848c0.584-1.867-0.399-3.961-2.396-4.371c-2.773-0.569-6.469,2.953-7.711,5.154
			c-0.094,0.166-1.118,2.584-1.348,3.212c-0.322-1.896-0.626-3.788-0.849-5.665c-0.312-2.59-0.475-5.148-0.45-7.638
			c0.18,0.016,4.96,0.434,7.008-0.299c1.777-0.636,3.865-1.941,4.462-3.848c0.585-1.867-0.399-3.961-2.397-4.371
			c-2.773-0.569-6.468,2.953-7.711,5.154c-0.081,0.144-0.863,1.985-1.215,2.87c-0.087-0.018-0.072-0.015-0.159-0.033
			c0.059-2.667,0.453-5.243,0.94-7.636c0.279-1.387,0.624-2.697,0.988-3.964c0.882,0.169,4.923,0.897,6.839,0.441
			c1.837-0.438,4.055-1.505,4.858-3.335c0.786-1.792,0.039-3.981-1.902-4.608c-2.694-0.87-6.754,2.225-8.231,4.275
			c-0.08,0.112-0.771,1.336-1.262,2.235c0.173-0.569,0.341-1.16,0.517-1.702c0.658-2.037,1.386-3.861,2.044-5.472
			c0.382-0.913,0.745-1.731,1.092-2.493c0.953-0.286,4.776-1.486,6.24-2.75c1.428-1.234,2.905-3.204,2.774-5.198
			c-0.128-1.953-1.8-3.551-3.812-3.213c-2.791,0.469-4.969,5.086-5.335,7.588c-0.031,0.216-0.137,3.653-0.088,3.639
			c0,0,0.046-0.014,0.058-0.017c-0.349,0.726-0.715,1.509-1.098,2.372c-0.694,1.6-1.464,3.414-2.169,5.444
			c-0.71,2.027-1.424,4.25-1.964,6.659c-0.545,2.414-0.995,4.981-1.117,7.686c-0.002,0.031,0.001,0.063,0,0.093
			c-0.21-0.802-0.873-3.026-0.943-3.191c-0.99-2.325-4.271-6.237-7.09-5.98c-2.031,0.185-3.241,2.157-2.868,4.078
			c0.381,1.961,2.31,3.49,4.006,4.321c1.912,0.936,6.527,1.068,6.895,1.077c-0.092,2.577,0.022,5.229,0.286,7.907
			c0.149,1.531,0.347,3.068,0.565,4.607c-0.204-0.688-0.391-1.301-0.427-1.384c-0.991-2.326-4.271-6.237-7.09-5.98
			c-2.031,0.185-3.241,2.157-2.868,4.078c0.381,1.962,2.31,3.49,4.006,4.321c1.72,0.842,5.653,1.033,6.694,1.07
			c0.09,0.59,0.173,1.179,0.265,1.768c0.441,2.827,0.894,5.646,1.252,8.424c0.127,0.979,0.216,1.948,0.309,2.917
			c-0.182-0.611-0.34-1.124-0.372-1.199c-0.99-2.326-4.271-6.237-7.09-5.98c-2.031,0.185-3.241,2.157-2.868,4.077
			c0.381,1.961,2.311,3.49,4.006,4.32c1.642,0.804,5.27,1.013,6.507,1.062c0.064,0.995,0.132,1.992,0.15,2.959
			c-0.003,0.661,0.04,1.297,0.001,1.961c-0.025,0.658-0.051,1.309-0.075,1.954c-0.094,1.241-0.182,2.521-0.304,3.728
			c-0.078,0.841-0.168,1.64-0.257,2.446c-0.115-0.976-0.381-2.882-0.421-3.039c-0.416-1.627-1.728-4.094-3.39-5.62
			c-0.06-0.241-0.141-0.475-0.245-0.701c-0.821-1.776-2.957-2.667-4.712-1.629c-2.437,1.441-2.809,6.532-2.252,8.997
			c0.033,0.145,0.566,1.683,0.918,2.648c-0.294-0.536-0.572-1.059-0.881-1.607c-0.603-1.087-1.237-2.155-1.915-3.305
			c-0.347-0.544-0.697-1.094-1.051-1.649c-0.339-0.558-0.768-1.104-1.153-1.664c-0.921-1.278-1.916-2.528-2.946-3.765
			c0.951-0.53,4.3-2.463,5.436-3.981c1.131-1.511,2.153-3.751,1.599-5.671c-0.542-1.88-2.518-3.084-4.41-2.324
			c-2.627,1.055-3.766,6.031-3.589,8.553c0.011,0.157,0.342,1.952,0.543,2.935c-0.625-0.739-1.245-1.48-1.902-2.207
			c-1.896-2.099-3.88-4.164-5.85-6.233c-0.604-0.634-1.198-1.272-1.795-1.909c0.34-0.185,4.371-2.396,5.644-4.096
			c1.131-1.511,2.153-3.751,1.599-5.671c-0.542-1.88-2.518-3.084-4.41-2.324c-2.627,1.055-3.766,6.031-3.589,8.553
			c0.014,0.19,0.493,2.772,0.647,3.422c-1.314-1.403-2.612-2.813-3.834-4.256c-1.689-1.988-3.236-4.032-4.589-6.123
			c0.159-0.086,4.376-2.374,5.68-4.116c1.132-1.511,2.153-3.751,1.599-5.671c-0.542-1.88-2.518-3.084-4.41-2.324
			c-2.627,1.055-3.766,6.031-3.589,8.552c0.011,0.166,0.375,2.135,0.57,3.066c-0.083,0.033-0.067,0.027-0.15,0.06
			c-1.422-2.258-2.515-4.624-3.43-6.889c-0.532-1.311-0.967-2.593-1.363-3.851c0.829-0.346,4.601-1.967,5.947-3.405
			c1.291-1.378,2.552-3.492,2.212-5.461c-0.333-1.928-2.164-3.342-4.129-2.794c-2.727,0.76-4.405,5.581-4.506,8.107
			c-0.006,0.137,0.094,1.54,0.18,2.56c-0.17-0.57-0.355-1.155-0.507-1.705c-0.575-2.062-0.975-3.985-1.315-5.692
			c-0.186-0.972-0.334-1.854-0.464-2.682c0.637-0.764,3.164-3.874,3.687-5.736c0.51-1.818,0.655-4.275-0.553-5.866
			c-1.184-1.558-3.461-1.969-4.952-0.577c-2.069,1.931-1.338,6.983-0.264,9.271c0.093,0.198,1.901,3.123,1.935,3.083
			c0,0,0.031-0.037,0.038-0.046c0.109,0.798,0.236,1.654,0.393,2.584c0.303,1.717,0.662,3.655,1.194,5.737
			c0.527,2.082,1.157,4.33,2.035,6.637c0.877,2.314,1.917,4.704,3.308,7.027c0.016,0.026,0.035,0.051,0.051,0.078
			c-0.618-0.553-2.397-2.042-2.546-2.141c-2.109-1.393-7.003-2.846-9.212-1.077c-1.592,1.275-1.514,3.587-0.143,4.983
			C24.47,419.775,26.922,419.986,28.795,419.743z"/>
	</g>
	<g>
		<path style="fill:#92E3A9;" d="M38.979,323.42c0.012,0.061-4.067-0.404-4.321-0.462c-2.94-0.681-8.22-3.725-8.503-7.093
			c-0.205-2.426,1.862-4.259,4.198-4.219c2.385,0.041,4.583,1.991,5.912,3.812C37.823,317.595,38.978,323.415,38.979,323.42z"/>
		<path style="fill:#92E3A9;" d="M59.236,266.93c0.121,2.643-2.127,8.135-2.129,8.139c-0.023,0.057-3.169-2.58-3.349-2.769
			c-2.076-2.19-4.801-7.642-3.179-10.607c1.168-2.136,3.903-2.524,5.829-1.203C58.375,261.839,59.132,264.678,59.236,266.93z"/>
		<path style="fill:#92E3A9;" d="M74.546,274.992c-0.558,2.48-3.886,6.873-4.152,7.222c2.468,1.841,4.851,3.93,7.146,6.178
			c1.314,1.283,2.597,2.617,3.867,3.97c-0.488-0.704-0.919-1.337-0.969-1.432c-1.425-2.661-2.612-8.639-0.265-11.07
			c1.691-1.752,4.431-1.405,5.939,0.379c1.541,1.821,1.522,4.76,1.027,6.959c-0.502,2.231-3.264,6.034-4.009,7.031
			c0.482,0.524,0.969,1.042,1.448,1.568c2.301,2.524,4.587,5.053,6.905,7.464c0.816,0.85,1.651,1.658,2.484,2.469
			c-0.432-0.626-0.791-1.157-0.838-1.243c-1.424-2.66-2.612-8.638-0.266-11.07c1.691-1.752,4.431-1.404,5.94,0.379
			c1.541,1.821,1.521,4.76,1.027,6.959c-0.479,2.129-2.997,5.662-3.876,6.85c0.878,0.804,1.755,1.612,2.643,2.352
			c0.617,0.492,1.177,1.008,1.824,1.467c0.631,0.468,1.256,0.931,1.875,1.391c1.224,0.84,2.483,1.715,3.698,2.504
			c0.84,0.556,1.652,1.07,2.468,1.59c-0.823-0.836-2.398-2.509-2.514-2.664c-1.811-2.414-3.891-8.143-1.939-10.902
			c1.406-1.987,4.167-2.06,5.928-0.525c1.799,1.567,2.225,4.475,2.069,6.723c-0.172,2.475-2.672,7.144-2.988,7.726
			c1.353,0.856,2.678,1.676,3.94,2.429c3.458,2.076,6.51,3.766,8.942,5.064l-1.055,1.962c-2.432-1.367-5.482-3.144-8.935-5.319
			c-1.378-0.864-2.833-1.814-4.317-2.804c-0.288,0.313-1.936,2.081-3.683,3.538c1.13,2.285,1.59,7.208,1.646,7.844
			c1.601-0.033,3.158-0.08,4.626-0.147c3.589-0.157,6.739-0.392,9.327-0.624l-1.232,2.29c-2.329,0.142-5.026,0.269-8.028,0.335
			c-1.625,0.04-3.363,0.05-5.148,0.043c-0.103,0.641-0.979,5.876-2.357,7.944c-1.251,1.875-3.365,3.916-5.746,4.057
			c-2.332,0.138-4.474-1.606-4.371-4.039c0.142-3.376,5.289-6.64,8.198-7.444c0.172-0.048,2.091-0.354,3.305-0.527
			c-0.729-0.007-1.437-0.005-2.188-0.021c-1.484-0.021-2.965-0.086-4.558-0.151c-0.768-0.058-1.544-0.117-2.328-0.176
			c-0.778-0.042-1.595-0.185-2.401-0.276c-1.864-0.248-3.741-0.59-5.624-0.977c-0.022,1.3-0.167,5.914-1.123,7.966
			c-0.952,2.042-2.733,4.38-5.066,4.88c-2.284,0.489-4.665-0.91-4.933-3.33c-0.371-3.359,4.223-7.365,6.976-8.6
			c0.172-0.077,2.247-0.741,3.394-1.085c-1.13-0.241-2.259-0.476-3.395-0.757c-3.278-0.811-6.57-1.734-9.859-2.64
			c-1.007-0.278-2.014-0.543-3.021-0.812c-0.003,0.462-0.056,5.951-1.127,8.249c-0.952,2.043-2.733,4.381-5.066,4.881
			c-2.284,0.489-4.666-0.91-4.933-3.33c-0.371-3.359,4.222-7.365,6.976-8.6c0.207-0.093,3.195-1.044,3.966-1.249
			c-2.218-0.592-4.434-1.161-6.64-1.634c-3.045-0.656-6.068-1.132-9.031-1.376c-0.001,0.216-0.03,5.944-1.127,8.298
			c-0.952,2.043-2.733,4.381-5.066,4.881c-2.284,0.489-4.665-0.91-4.932-3.33c-0.371-3.359,4.222-7.365,6.975-8.6
			c0.181-0.081,2.455-0.808,3.546-1.129c-0.012-0.106-0.01-0.087-0.022-0.192c-3.177-0.223-6.283-0.039-9.182,0.277
			c-1.679,0.179-3.274,0.445-4.821,0.738c0.104,1.067,0.524,5.951-0.229,8.178c-0.722,2.135-2.235,4.654-4.499,5.408
			c-2.217,0.737-4.737-0.392-5.269-2.768c-0.738-3.298,3.388-7.784,5.989-9.314c0.142-0.083,1.673-0.77,2.796-1.255
			c-0.696,0.143-1.416,0.278-2.08,0.428c-2.494,0.558-4.743,1.223-6.73,1.827c-1.127,0.354-2.14,0.695-3.083,1.024
			c-0.445,1.101-2.292,5.514-3.957,7.115c-1.625,1.562-4.129,3.101-6.485,2.726c-2.307-0.367-4.023-2.531-3.4-4.885
			c0.865-3.267,6.594-5.347,9.607-5.507c0.26-0.013,4.358,0.239,4.335,0.297c0,0-0.021,0.053-0.027,0.067
			c0.902-0.335,1.872-0.684,2.941-1.044c1.978-0.649,4.219-1.365,6.711-1.979c2.488-0.621,5.209-1.225,8.132-1.602
			c2.93-0.382,6.031-0.635,9.26-0.482c0.037,0.002,0.075,0.008,0.111,0.01c-0.93-0.338-3.501-1.37-3.689-1.472
			c-2.655-1.433-6.944-5.764-6.329-9.087c0.444-2.394,2.921-3.616,5.163-2.96c2.29,0.669,3.895,3.131,4.695,5.238
			c0.903,2.376,0.551,7.877,0.521,8.315c3.074,0.174,6.214,0.602,9.368,1.21c1.804,0.346,3.61,0.75,5.415,1.178
			c-0.795-0.318-1.504-0.608-1.598-0.66c-2.656-1.433-6.944-5.764-6.329-9.087c0.444-2.394,2.921-3.616,5.163-2.961
			c2.29,0.669,3.895,3.131,4.696,5.238c0.812,2.138,0.606,6.833,0.535,8.076c0.691,0.172,1.383,0.335,2.073,0.51
			c3.312,0.835,6.613,1.684,9.877,2.416c1.15,0.259,2.292,0.471,3.434,0.688c-0.706-0.284-1.298-0.528-1.385-0.575
			c-2.656-1.433-6.944-5.764-6.328-9.087c0.444-2.394,2.921-3.616,5.163-2.961c2.289,0.669,3.895,3.131,4.695,5.238
			c0.775,2.04,0.624,6.376,0.546,7.852c1.176,0.186,2.353,0.376,3.501,0.504c0.786,0.069,1.538,0.191,2.331,0.217
			c0.785,0.042,1.561,0.084,2.331,0.126c1.485,0.025,3.017,0.061,4.466,0.049c1.008-0.001,1.968-0.019,2.936-0.036
			c-1.148-0.244-3.385-0.77-3.567-0.835c-1.888-0.674-4.676-2.505-6.308-4.648c-0.28-0.098-0.549-0.22-0.806-0.368
			c-2.021-1.172-2.845-3.808-1.418-5.78c1.981-2.738,8.075-2.62,10.944-1.686c0.169,0.055,1.939,0.858,3.047,1.383
			c-0.605-0.408-1.196-0.797-1.813-1.224c-1.226-0.837-2.425-1.708-3.719-2.64c-0.609-0.472-1.223-0.949-1.844-1.431
			c-0.626-0.464-1.228-1.035-1.851-1.554c-1.418-1.236-2.794-2.556-4.152-3.917c-0.735,1.072-3.401,4.841-5.331,6.024
			c-1.921,1.179-4.696,2.146-6.917,1.276c-2.175-0.852-3.389-3.333-2.278-5.499c1.544-3.006,7.584-3.813,10.562-3.325
			c0.186,0.031,2.283,0.621,3.429,0.968c-0.81-0.825-1.622-1.643-2.414-2.504c-2.286-2.485-4.523-5.07-6.766-7.641
			c-0.687-0.788-1.38-1.564-2.071-2.344c-0.258,0.384-3.33,4.933-5.491,6.259c-1.921,1.179-4.696,2.146-6.918,1.276
			c-2.175-0.852-3.389-3.332-2.277-5.499c1.543-3.007,7.585-3.813,10.562-3.325c0.224,0.037,3.241,0.891,3.997,1.146
			c-1.523-1.717-3.057-3.414-4.637-5.026c-2.177-2.227-4.437-4.291-6.774-6.129c-0.119,0.179-3.304,4.941-5.518,6.299
			c-1.921,1.179-4.696,2.146-6.917,1.276c-2.175-0.852-3.389-3.333-2.277-5.499c1.543-3.007,7.584-3.814,10.562-3.325
			c0.196,0.032,2.496,0.681,3.582,1.015c0.048-0.094,0.039-0.077,0.088-0.172c-2.527-1.939-5.219-3.499-7.812-4.835
			c-1.5-0.777-2.976-1.436-4.428-2.044c-0.502,0.948-2.845,5.253-4.702,6.695c-1.781,1.383-4.432,2.649-6.736,2.029
			c-2.256-0.608-3.735-2.941-2.867-5.216c1.203-3.158,7.12-4.622,10.133-4.464c0.164,0.008,1.82,0.281,3.024,0.495
			c-0.659-0.264-1.335-0.55-1.971-0.79c-2.388-0.911-4.631-1.597-6.622-2.189c-1.135-0.328-2.168-0.601-3.137-0.847
			c-0.978,0.673-4.953,3.335-7.225,3.751c-2.217,0.406-5.154,0.308-6.912-1.304c-1.722-1.579-1.96-4.331-0.141-5.95
			c2.524-2.248,8.449-0.822,11.051,0.707c0.225,0.132,3.503,2.603,3.453,2.639c0,0-0.048,0.033-0.059,0.04
			c0.937,0.218,1.94,0.462,3.029,0.751c2.008,0.55,4.272,1.189,6.689,2.051c2.417,0.855,5.02,1.852,7.666,3.15
			c2.655,1.297,5.381,2.797,7.99,4.706c0.029,0.022,0.057,0.048,0.087,0.069c-0.59-0.795-2.164-3.074-2.265-3.263
			c-1.424-2.661-2.612-8.639-0.266-11.07c1.691-1.752,4.431-1.405,5.94,0.379C75.06,269.854,75.041,272.793,74.546,274.992z"/>
		<path style="opacity:0.3;fill:#92E3A9;" d="M59.236,266.93c0.121,2.643-2.127,8.135-2.129,8.139
			c-0.023,0.057-3.169-2.58-3.349-2.769c-2.076-2.19-4.801-7.642-3.179-10.607c1.168-2.136,3.903-2.524,5.829-1.203
			C58.375,261.839,59.132,264.678,59.236,266.93z"/>
		<path style="opacity:0.3;fill:#92E3A9;" d="M38.979,323.42c0.012,0.061-4.067-0.404-4.321-0.462
			c-2.94-0.681-8.22-3.725-8.503-7.093c-0.205-2.426,1.862-4.259,4.198-4.219c2.385,0.041,4.583,1.991,5.912,3.812
			C37.823,317.595,38.978,323.415,38.979,323.42z"/>
		<path style="opacity:0.3;fill:#92E3A9;" d="M74.546,274.992c-0.558,2.48-3.886,6.873-4.152,7.222
			c2.468,1.841,4.851,3.93,7.146,6.178c1.314,1.283,2.597,2.617,3.867,3.97c-0.488-0.704-0.919-1.337-0.969-1.432
			c-1.425-2.661-2.612-8.639-0.265-11.07c1.691-1.752,4.431-1.405,5.939,0.379c1.541,1.821,1.522,4.76,1.027,6.959
			c-0.502,2.231-3.264,6.034-4.009,7.031c0.482,0.524,0.969,1.042,1.448,1.568c2.301,2.524,4.587,5.053,6.905,7.464
			c0.816,0.85,1.651,1.658,2.484,2.469c-0.432-0.626-0.791-1.157-0.838-1.243c-1.424-2.66-2.612-8.638-0.266-11.07
			c1.691-1.752,4.431-1.404,5.94,0.379c1.541,1.821,1.521,4.76,1.027,6.959c-0.479,2.129-2.997,5.662-3.876,6.85
			c0.878,0.804,1.755,1.612,2.643,2.352c0.617,0.492,1.177,1.008,1.824,1.467c0.631,0.468,1.256,0.931,1.875,1.391
			c1.224,0.84,2.483,1.715,3.698,2.504c0.84,0.556,1.652,1.07,2.468,1.59c-0.823-0.836-2.398-2.509-2.514-2.664
			c-1.811-2.414-3.891-8.143-1.939-10.902c1.406-1.987,4.167-2.06,5.928-0.525c1.799,1.567,2.225,4.475,2.069,6.723
			c-0.172,2.475-2.672,7.144-2.988,7.726c1.353,0.856,2.678,1.676,3.94,2.429c3.458,2.076,6.51,3.766,8.942,5.064l-1.055,1.962
			c-2.432-1.367-5.482-3.144-8.935-5.319c-1.378-0.864-2.833-1.814-4.317-2.804c-0.288,0.313-1.936,2.081-3.683,3.538
			c1.13,2.285,1.59,7.208,1.646,7.844c1.601-0.033,3.158-0.08,4.626-0.147c3.589-0.157,6.739-0.392,9.327-0.624l-1.232,2.29
			c-2.329,0.142-5.026,0.269-8.028,0.335c-1.625,0.04-3.363,0.05-5.148,0.043c-0.103,0.641-0.979,5.876-2.357,7.944
			c-1.251,1.875-3.365,3.916-5.746,4.057c-2.332,0.138-4.474-1.606-4.371-4.039c0.142-3.376,5.289-6.64,8.198-7.444
			c0.172-0.048,2.091-0.354,3.305-0.527c-0.729-0.007-1.437-0.005-2.188-0.021c-1.484-0.021-2.965-0.086-4.558-0.151
			c-0.768-0.058-1.544-0.117-2.328-0.176c-0.778-0.042-1.595-0.185-2.401-0.276c-1.864-0.248-3.741-0.59-5.624-0.977
			c-0.022,1.3-0.167,5.914-1.123,7.966c-0.952,2.042-2.733,4.38-5.066,4.88c-2.284,0.489-4.665-0.91-4.933-3.33
			c-0.371-3.359,4.223-7.365,6.976-8.6c0.172-0.077,2.247-0.741,3.394-1.085c-1.13-0.241-2.259-0.476-3.395-0.757
			c-3.278-0.811-6.57-1.734-9.859-2.64c-1.007-0.278-2.014-0.543-3.021-0.812c-0.003,0.462-0.056,5.951-1.127,8.249
			c-0.952,2.043-2.733,4.381-5.066,4.881c-2.284,0.489-4.666-0.91-4.933-3.33c-0.371-3.359,4.222-7.365,6.976-8.6
			c0.207-0.093,3.195-1.044,3.966-1.249c-2.218-0.592-4.434-1.161-6.64-1.634c-3.045-0.656-6.068-1.132-9.031-1.376
			c-0.001,0.216-0.03,5.944-1.127,8.298c-0.952,2.043-2.733,4.381-5.066,4.881c-2.284,0.489-4.665-0.91-4.932-3.33
			c-0.371-3.359,4.222-7.365,6.975-8.6c0.181-0.081,2.455-0.808,3.546-1.129c-0.012-0.106-0.01-0.087-0.022-0.192
			c-3.177-0.223-6.283-0.039-9.182,0.277c-1.679,0.179-3.274,0.445-4.821,0.738c0.104,1.067,0.524,5.951-0.229,8.178
			c-0.722,2.135-2.235,4.654-4.499,5.408c-2.217,0.737-4.737-0.392-5.269-2.768c-0.738-3.298,3.388-7.784,5.989-9.314
			c0.142-0.083,1.673-0.77,2.796-1.255c-0.696,0.143-1.416,0.278-2.08,0.428c-2.494,0.558-4.743,1.223-6.73,1.827
			c-1.127,0.354-2.14,0.695-3.083,1.024c-0.445,1.101-2.292,5.514-3.957,7.115c-1.625,1.562-4.129,3.101-6.485,2.726
			c-2.307-0.367-4.023-2.531-3.4-4.885c0.865-3.267,6.594-5.347,9.607-5.507c0.26-0.013,4.358,0.239,4.335,0.297
			c0,0-0.021,0.053-0.027,0.067c0.902-0.335,1.872-0.684,2.941-1.044c1.978-0.649,4.219-1.365,6.711-1.979
			c2.488-0.621,5.209-1.225,8.132-1.602c2.93-0.382,6.031-0.635,9.26-0.482c0.037,0.002,0.075,0.008,0.111,0.01
			c-0.93-0.338-3.501-1.37-3.689-1.472c-2.655-1.433-6.944-5.764-6.329-9.087c0.444-2.394,2.921-3.616,5.163-2.96
			c2.29,0.669,3.895,3.131,4.695,5.238c0.903,2.376,0.551,7.877,0.521,8.315c3.074,0.174,6.214,0.602,9.368,1.21
			c1.804,0.346,3.61,0.75,5.415,1.178c-0.795-0.318-1.504-0.608-1.598-0.66c-2.656-1.433-6.944-5.764-6.329-9.087
			c0.444-2.394,2.921-3.616,5.163-2.961c2.29,0.669,3.895,3.131,4.696,5.238c0.812,2.138,0.606,6.833,0.535,8.076
			c0.691,0.172,1.383,0.335,2.073,0.51c3.312,0.835,6.613,1.684,9.877,2.416c1.15,0.259,2.292,0.471,3.434,0.688
			c-0.706-0.284-1.298-0.528-1.385-0.575c-2.656-1.433-6.944-5.764-6.328-9.087c0.444-2.394,2.921-3.616,5.163-2.961
			c2.289,0.669,3.895,3.131,4.695,5.238c0.775,2.04,0.624,6.376,0.546,7.852c1.176,0.186,2.353,0.376,3.501,0.504
			c0.786,0.069,1.538,0.191,2.331,0.217c0.785,0.042,1.561,0.084,2.331,0.126c1.485,0.025,3.017,0.061,4.466,0.049
			c1.008-0.001,1.968-0.019,2.936-0.036c-1.148-0.244-3.385-0.77-3.567-0.835c-1.888-0.674-4.676-2.505-6.308-4.648
			c-0.28-0.098-0.549-0.22-0.806-0.368c-2.021-1.172-2.845-3.808-1.418-5.78c1.981-2.738,8.075-2.62,10.944-1.686
			c0.169,0.055,1.939,0.858,3.047,1.383c-0.605-0.408-1.196-0.797-1.813-1.224c-1.226-0.837-2.425-1.708-3.719-2.64
			c-0.609-0.472-1.223-0.949-1.844-1.431c-0.626-0.464-1.228-1.035-1.851-1.554c-1.418-1.236-2.794-2.556-4.152-3.917
			c-0.735,1.072-3.401,4.841-5.331,6.024c-1.921,1.179-4.696,2.146-6.917,1.276c-2.175-0.852-3.389-3.333-2.278-5.499
			c1.544-3.006,7.584-3.813,10.562-3.325c0.186,0.031,2.283,0.621,3.429,0.968c-0.81-0.825-1.622-1.643-2.414-2.504
			c-2.286-2.485-4.523-5.07-6.766-7.641c-0.687-0.788-1.38-1.564-2.071-2.344c-0.258,0.384-3.33,4.933-5.491,6.259
			c-1.921,1.179-4.696,2.146-6.918,1.276c-2.175-0.852-3.389-3.332-2.277-5.499c1.543-3.007,7.585-3.813,10.562-3.325
			c0.224,0.037,3.241,0.891,3.997,1.146c-1.523-1.717-3.057-3.414-4.637-5.026c-2.177-2.227-4.437-4.291-6.774-6.129
			c-0.119,0.179-3.304,4.941-5.518,6.299c-1.921,1.179-4.696,2.146-6.917,1.276c-2.175-0.852-3.389-3.333-2.277-5.499
			c1.543-3.007,7.584-3.814,10.562-3.325c0.196,0.032,2.496,0.681,3.582,1.015c0.048-0.094,0.039-0.077,0.088-0.172
			c-2.527-1.939-5.219-3.499-7.812-4.835c-1.5-0.777-2.976-1.436-4.428-2.044c-0.502,0.948-2.845,5.253-4.702,6.695
			c-1.781,1.383-4.432,2.649-6.736,2.029c-2.256-0.608-3.735-2.941-2.867-5.216c1.203-3.158,7.12-4.622,10.133-4.464
			c0.164,0.008,1.82,0.281,3.024,0.495c-0.659-0.264-1.335-0.55-1.971-0.79c-2.388-0.911-4.631-1.597-6.622-2.189
			c-1.135-0.328-2.168-0.601-3.137-0.847c-0.978,0.673-4.953,3.335-7.225,3.751c-2.217,0.406-5.154,0.308-6.912-1.304
			c-1.722-1.579-1.96-4.331-0.141-5.95c2.524-2.248,8.449-0.822,11.051,0.707c0.225,0.132,3.503,2.603,3.453,2.639
			c0,0-0.048,0.033-0.059,0.04c0.937,0.218,1.94,0.462,3.029,0.751c2.008,0.55,4.272,1.189,6.689,2.051
			c2.417,0.855,5.02,1.852,7.666,3.15c2.655,1.297,5.381,2.797,7.99,4.706c0.029,0.022,0.057,0.048,0.087,0.069
			c-0.59-0.795-2.164-3.074-2.265-3.263c-1.424-2.661-2.612-8.639-0.266-11.07c1.691-1.752,4.431-1.405,5.94,0.379
			C75.06,269.854,75.041,272.793,74.546,274.992z"/>
	</g>
</g>
<g id="Floor">
	
		<line style="fill:none;stroke:#263238;stroke-linecap:round;stroke-linejoin:round;stroke-miterlimit:10;" x1="11.12" y1="458.994" x2="490.8" y2="458.994"/>
</g>
<g id="Device">
	<g>
		<g>
			<path style="fill:#969696;stroke:#263238;stroke-miterlimit:10;" d="M434.871,441.846H75.855V219.27
				c0-5.775,4.681-10.456,10.456-10.456h338.104c5.775,0,10.456,4.681,10.456,10.456V441.846z"/>
			
				<rect x="90.53" y="224.647" style="fill:#FFFFFF;stroke:#263238;stroke-linecap:round;stroke-linejoin:round;stroke-miterlimit:10;" width="329.581" height="194.939"/>
			
				<rect x="132.819" y="430.628" style="fill:#263238;stroke:#263238;stroke-linecap:round;stroke-linejoin:round;stroke-miterlimit:10;" width="246.734" height="12.157"/>
			
				<rect x="132.819" y="436.481" style="fill:#FFFFFF;stroke:#263238;stroke-linecap:round;stroke-linejoin:round;stroke-miterlimit:10;" width="246.734" height="6.304"/>
			<path style="fill:#263238;stroke:#263238;stroke-linecap:round;stroke-linejoin:round;stroke-miterlimit:10;" d="M46.822,449.989
				c0,0,4.052,4.953,16.209,9.005h386.31c0,0,9.005-2.252,13.057-8.554L46.822,449.989z"/>
			<path style="fill:#969696;stroke:#263238;stroke-miterlimit:10;" d="M461.377,450.585H47.892c-1.046,0-1.895-0.848-1.895-1.895
				v-5.677c0-1.046,0.848-1.895,1.895-1.895h413.484c1.046,0,1.895,0.848,1.895,1.895v5.677
				C463.271,449.737,462.423,450.585,461.377,450.585z"/>
			<path style="fill:#263238;stroke:#263238;stroke-linecap:round;stroke-linejoin:round;stroke-miterlimit:10;" d="
				M258.437,215.861c0-1.74-1.411-3.152-3.152-3.152c-1.741,0-3.152,1.411-3.152,3.152c0,1.74,1.411,3.152,3.152,3.152
				C257.026,219.013,258.437,217.602,258.437,215.861z"/>
			<path style="fill:#263238;" d="M79.24,274.393L79.24,274.393c-0.497,0-0.9-0.403-0.9-0.9v-26.114c0-0.497,0.403-0.901,0.9-0.901
				l0,0c0.497,0,0.9,0.403,0.9,0.901v26.114C80.14,273.99,79.737,274.393,79.24,274.393z"/>
		</g>
	</g>
</g>
<g id="Letter">
	<g>
		
			<rect x="139.823" y="241.081" style="fill:#263238;stroke:#263238;stroke-linecap:round;stroke-linejoin:round;stroke-miterlimit:10;" width="230.229" height="142.277"/>
		<path style="fill:#263238;stroke:#263238;stroke-linecap:round;stroke-linejoin:round;stroke-miterlimit:10;" d="M139.823,241.081
			l109.143-81.012c2.329-1.728,5.507-1.756,7.865-0.067l113.221,81.079H139.823z"/>
		
			<rect x="170.332" y="163.721" style="fill:#FFFFFF;stroke:#263238;stroke-linecap:round;stroke-linejoin:round;stroke-miterlimit:10;" width="173.738" height="185.964"/>
		<g>
			
				<line style="fill:none;stroke:#263238;stroke-linecap:round;stroke-linejoin:round;stroke-miterlimit:10;" x1="190.208" y1="249.007" x2="322.024" y2="249.007"/>
			
				<line style="fill:none;stroke:#263238;stroke-linecap:round;stroke-linejoin:round;stroke-miterlimit:10;" x1="190.208" y1="259.272" x2="322.024" y2="259.272"/>
			
				<line style="fill:none;stroke:#263238;stroke-linecap:round;stroke-linejoin:round;stroke-miterlimit:10;" x1="190.208" y1="269.536" x2="322.024" y2="269.536"/>
			
				<line style="fill:none;stroke:#263238;stroke-linecap:round;stroke-linejoin:round;stroke-miterlimit:10;" x1="190.208" y1="279.8" x2="322.024" y2="279.8"/>
			
				<line style="fill:none;stroke:#263238;stroke-linecap:round;stroke-linejoin:round;stroke-miterlimit:10;" x1="190.208" y1="290.065" x2="322.024" y2="290.065"/>
		</g>
		<path style="fill:#92E3A9;" d="M325.103,233.318H189.298c-2.983,0-5.401-2.418-5.401-5.4v-34.024c0-2.983,2.418-5.401,5.401-5.401
			h135.805c2.983,0,5.401,2.418,5.401,5.401v34.024C330.503,230.9,328.085,233.318,325.103,233.318z"/>
		<g>
			<polygon style="fill:#92E3A9;stroke:#263238;stroke-linecap:round;stroke-linejoin:round;stroke-miterlimit:10;" points="
				139.823,241.081 254.571,302.948 370.053,241.081 370.053,383.358 139.823,383.358 			"/>
			<path style="fill:none;stroke:#263238;stroke-linecap:round;stroke-linejoin:round;stroke-miterlimit:10;" d="M139.823,383.358
				l111.625-78.222c1.876-1.314,4.372-1.318,6.252-0.009l112.353,78.231"/>
		</g>
	</g>
	<g>
		<path style="fill:#263238;" d="M191.419,222.543l5.433-25.9h5.299l5.433,25.9h-4.594l-1.073-5.98h-4.729l-1.106,5.98H191.419z
			 M197.691,213.558h3.689l-1.844-10.872L197.691,213.558z"/>
		<path style="fill:#263238;" d="M217.308,222.894c-1.99,0-3.55-0.372-4.678-1.119c-1.129-0.746-1.917-1.764-2.364-3.054
			c-0.448-1.289-0.67-2.776-0.67-4.46v-9.241c0-1.769,0.223-3.304,0.67-4.605c0.447-1.3,1.235-2.302,2.364-3.006
			c1.129-0.703,2.688-1.055,4.678-1.055c1.878,0,3.347,0.303,4.41,0.911c1.061,0.607,1.816,1.476,2.264,2.606
			c0.446,1.13,0.671,2.441,0.671,3.933v2.174h-4.762v-2.238c0-0.724-0.039-1.385-0.118-1.982c-0.078-0.597-0.291-1.071-0.637-1.423
			c-0.347-0.352-0.945-0.527-1.794-0.527c-0.85,0-1.47,0.187-1.861,0.56c-0.392,0.373-0.643,0.874-0.754,1.503
			c-0.112,0.629-0.168,1.338-0.168,2.126v11.256c0,0.938,0.078,1.711,0.235,2.318c0.156,0.608,0.441,1.066,0.855,1.375
			c0.413,0.309,0.978,0.463,1.694,0.463c0.826,0,1.414-0.186,1.76-0.559c0.346-0.373,0.564-0.868,0.654-1.487
			c0.089-0.618,0.134-1.311,0.134-2.078v-2.334h4.762v2.078c0,1.535-0.213,2.894-0.637,4.077c-0.425,1.183-1.168,2.11-2.23,2.782
			C220.723,222.559,219.23,222.894,217.308,222.894z"/>
		<path style="fill:#263238;" d="M235.417,222.894c-1.99,0-3.55-0.372-4.679-1.119c-1.129-0.746-1.917-1.764-2.364-3.054
			c-0.448-1.289-0.67-2.776-0.67-4.46v-9.241c0-1.769,0.223-3.304,0.67-4.605c0.447-1.3,1.235-2.302,2.364-3.006
			c1.129-0.703,2.688-1.055,4.679-1.055c1.878,0,3.347,0.303,4.409,0.911c1.062,0.607,1.816,1.476,2.264,2.606
			c0.446,1.13,0.671,2.441,0.671,3.933v2.174h-4.762v-2.238c0-0.724-0.039-1.385-0.118-1.982c-0.078-0.597-0.291-1.071-0.637-1.423
			c-0.347-0.352-0.945-0.527-1.794-0.527c-0.85,0-1.47,0.187-1.861,0.56c-0.392,0.373-0.643,0.874-0.754,1.503
			c-0.112,0.629-0.168,1.338-0.168,2.126v11.256c0,0.938,0.078,1.711,0.235,2.318c0.156,0.608,0.441,1.066,0.855,1.375
			c0.413,0.309,0.978,0.463,1.694,0.463c0.827,0,1.414-0.186,1.76-0.559c0.346-0.373,0.564-0.868,0.654-1.487
			c0.089-0.618,0.134-1.311,0.134-2.078v-2.334h4.762v2.078c0,1.535-0.213,2.894-0.637,4.077c-0.425,1.183-1.168,2.11-2.23,2.782
			C238.832,222.559,237.339,222.894,235.417,222.894z"/>
		<path style="fill:#263238;" d="M246.214,222.543v-25.9h11.402v3.326h-6.439v7.45h5.064v3.294h-5.064v8.569h6.506v3.261H246.214z"
			/>
		<path style="fill:#263238;" d="M260.567,222.543v-25.9h7.981c1.632,0,2.957,0.288,3.975,0.863c1.017,0.576,1.766,1.413,2.247,2.51
			c0.48,1.098,0.721,2.425,0.721,3.981c0,1.684-0.302,3.043-0.906,4.077c-0.604,1.034-1.447,1.786-2.532,2.254
			c-1.085,0.47-2.364,0.703-3.84,0.703h-2.682v11.511H260.567z M265.531,207.706h1.878c0.894,0,1.593-0.123,2.096-0.368
			c0.503-0.245,0.849-0.639,1.04-1.183c0.19-0.543,0.285-1.273,0.285-2.19c0-0.938-0.072-1.7-0.218-2.286
			c-0.146-0.586-0.458-1.018-0.939-1.295c-0.481-0.277-1.236-0.416-2.263-0.416h-1.878V207.706z"/>
		<path style="fill:#263238;" d="M280.956,222.543v-22.415h-4.326v-3.486h13.548v3.486h-4.259v22.415H280.956z"/>
		<path style="fill:#263238;" d="M292.66,222.543v-25.9h11.402v3.326h-6.439v7.45h5.064v3.294h-5.064v8.569h6.505v3.261H292.66z"/>
		<path style="fill:#263238;" d="M307.012,222.543v-25.9h6.406c2.213,0,3.941,0.288,5.181,0.863c1.241,0.576,2.124,1.46,2.649,2.654
			c0.526,1.194,0.789,2.708,0.789,4.54v9.465c0,1.876-0.263,3.437-0.789,4.684c-0.525,1.247-1.397,2.174-2.615,2.782
			c-1.219,0.607-2.89,0.911-5.014,0.911H307.012z M311.976,219.25h1.509c1.14,0,1.956-0.192,2.449-0.576
			c0.491-0.384,0.793-0.943,0.905-1.679c0.112-0.735,0.168-1.636,0.168-2.702v-9.912c0-1.045-0.079-1.886-0.234-2.526
			c-0.157-0.639-0.481-1.108-0.973-1.407c-0.492-0.299-1.286-0.448-2.381-0.448h-1.442V219.25z"/>
	</g>
</g>
<g id="Character_2">
	<g>
		<path style="fill:#92E3A9;stroke:#263238;stroke-linecap:round;stroke-linejoin:round;stroke-miterlimit:10;" d="M383.306,318.536
			c0,0,3.698,19.766,3.826,24.356c0.128,4.591-1.785,7.396-1.785,7.396s-3.443-5.483-3.826-7.779
			c-0.383-2.295-2.806-12.497-2.04-16.45C380.246,322.107,383.306,318.536,383.306,318.536z"/>
		<g>
			<path style="fill:#263238;stroke:#263238;stroke-linecap:round;stroke-linejoin:round;stroke-miterlimit:10;" d="
				M420.045,405.257c1.104,0.552,3.451,4.28,4.832,7.731c1.38,3.451,2.623,4.97,3.589,4.141c0.966-0.828,1.38-5.66,0.966-8.283
				c-0.414-2.623-1.242-7.041-1.242-7.041L420.045,405.257z"/>
			<path style="fill:#FFFFFF;stroke:#263238;stroke-linecap:round;stroke-linejoin:round;stroke-miterlimit:10;" d="
				M429.432,408.846c-0.414-2.623-1.242-7.041-1.242-7.041l-2.342,0.992c0.86,1.809,2.125,4.698,2.48,6.739
				c0.453,2.604-0.486,6.41-0.839,7.697c0.349,0.183,0.676,0.153,0.977-0.104C429.432,416.301,429.846,411.469,429.432,408.846z"/>
		</g>
		<g>
			<path style="fill:#263238;stroke:#263238;stroke-linecap:round;stroke-linejoin:round;stroke-miterlimit:10;" d="
				M434.824,399.512c0,0,3.25,0.936,4.061,1.632c0.812,0.696,6.61,6.494,7.769,6.842s1.392-1.276,1.392-2.783
				c0-1.507-2.203-11.132-3.827-14.495c-1.624-3.363-3.595-3.943-4.986-3.015c-1.392,0.928-3.363,3.131-3.827,3.363
				c-0.464,0.232-3.516,1.953-3.516,1.953S434.938,397.068,434.824,399.512z"/>
			<path style="fill:#FFFFFF;stroke:#263238;stroke-linecap:round;stroke-linejoin:round;stroke-miterlimit:10;" d="
				M439.234,387.692c0,0,3.363,2.319,4.986,7.653c1.623,5.334,2.667,10.9,2.435,12.64c1.16,0.348,1.392-1.276,1.392-2.783
				s-2.203-11.132-3.827-14.495C442.596,387.344,440.625,386.764,439.234,387.692z"/>
		</g>
		<g>
			<path style="fill:#B5B5B5;stroke:#263238;stroke-linecap:round;stroke-linejoin:round;stroke-miterlimit:10;" d="
				M386.112,345.698l-5.611,19.638c0,0-2.806,16.068-2.295,29.202c0.51,13.135,4.081,16.578,6.886,16.96
				c2.806,0.383,5.483-1.53,5.483-1.53s3.315,7.396,8.544,6.886c5.228-0.51,35.323-17.215,35.706-17.343
				c0.383-0.128,1.785-2.55,0.255-4.591c-1.53-2.04-3.188-1.913-3.188-1.913s-6.248,2.295-11.094,3.316
				c-4.846,1.02-10.584,2.168-10.584,2.168s6.503-18.491,8.544-26.142c2.04-7.651,1.913-13.772-0.383-18.746
				c-2.295-4.973-5.101-10.202-5.101-10.202S397.078,348.376,386.112,345.698z"/>
			<g>
				<path style="fill:none;stroke:#263238;stroke-linecap:round;stroke-linejoin:round;stroke-miterlimit:10;" d="M406.539,365.244
					c0.835-0.521,1.682-1.007,2.527-1.438"/>
				<path style="fill:none;stroke:#263238;stroke-linecap:round;stroke-linejoin:round;stroke-miterlimit:10;" d="M395.421,374.262
					c0,0,4.165-4.243,9.197-7.748"/>
				<path style="fill:none;stroke:#263238;stroke-linecap:round;stroke-linejoin:round;stroke-miterlimit:10;" d="M387.642,364.061
					c0,0,4.973,3.698,6.504,6.631"/>
				<path style="fill:none;stroke:#263238;stroke-linecap:round;stroke-linejoin:round;stroke-miterlimit:10;" d="M390.33,405.807
					c0.03,1.16,0.109,2.258,0.245,3.269"/>
				<path style="fill:none;stroke:#263238;stroke-linecap:round;stroke-linejoin:round;stroke-miterlimit:10;" d="M394.783,375.538
					c0,0-4.338,16.774-4.465,28.613"/>
				<path style="fill:none;stroke:#263238;stroke-linecap:round;stroke-linejoin:round;stroke-miterlimit:10;" d="M409.277,400.011
					c0,0-3.727,9.387-5.798,11.872"/>
			</g>
		</g>
		<path style="fill:#FFFFFF;stroke:#263238;stroke-linecap:round;stroke-linejoin:round;stroke-miterlimit:10;" d="M393.062,304.316
			l-4.4,0.703c0,0-6.376,13.007-6.376,15.813c0,2.806,2.933,15.685,2.933,15.685l0.893,9.181c0,0,2.168,2.55,8.416,2.168
			c6.249-0.383,12.114-2.55,12.114-2.55s0.51-12.242,0.638-15.685c0.128-3.443-1.403-26.652-1.403-26.652L393.062,304.316z"/>
		<g>
			<g>
				<path style="fill:#FFFFFF;stroke:#263238;stroke-linecap:round;stroke-linejoin:round;stroke-miterlimit:10;" d="
					M374.606,295.086c0,0-23.98-21.837-24.248-22.507c-0.268-0.67,0.536-6.431,0.268-7.904c-0.268-1.474-5.225-4.153-5.761-4.153
					c-0.536,0-1.474,2.813-1.474,2.813s-1.474-0.804-1.608,0.67c-0.134,1.474,0,2.143,0.938,2.679
					c0.938,0.536,0.268,3.751,1.206,5.627c0.938,1.875,4.019,3.215,4.019,3.215l18.354,24.784L374.606,295.086z"/>
				<path style="fill:none;stroke:#263238;stroke-linecap:round;stroke-linejoin:round;stroke-miterlimit:10;" d="M343.391,263.336
					c0,0,2.277,1.34,2.813,1.206c0.536-0.134,0.134-1.474,0.134-1.474"/>
			</g>
			<path style="fill:#92E3A9;stroke:#263238;stroke-linecap:round;stroke-linejoin:round;stroke-miterlimit:10;" d="M386.08,303.186
				l-11.474-8.1c0,0-3.617,2.009-4.957,4.287c-1.34,2.277-1.34,4.555-1.34,4.555l11.521,14.201L386.08,303.186z"/>
			<path style="fill:#FFFFFF;stroke:#263238;stroke-linecap:round;stroke-linejoin:round;stroke-miterlimit:10;" d="
				M377.151,296.694c0,0-4.555,1.876-6.297,4.823c-1.742,2.947-1.742,4.421-1.742,4.421s-3.215-2.813-3.483-4.287
				c-0.268-1.474,0.804-5.091,2.947-6.431s4.287-1.608,4.689-1.608S376.079,295.22,377.151,296.694z"/>
		</g>
		<g>
			<path style="fill:#B5B5B5;stroke:#263238;stroke-linecap:round;stroke-linejoin:round;stroke-miterlimit:10;" d="
				M422.965,355.134c0,0,5.993-1.785,7.906-3.698c1.913-1.913,3.826-3.826,2.423-8.161c-1.403-4.336-6.759-28.947-6.759-28.947
				l-8.416,3.443c0,0,5.993,20.913,6.759,27.544C425.643,351.946,422.965,355.134,422.965,355.134z"/>
			<path style="fill:#263238;stroke:#263238;stroke-linecap:round;stroke-linejoin:round;stroke-miterlimit:10;" d="
				M419.777,318.791c0,0,6.759,24.356,7.014,29.84c0.255,5.483-3.826,7.141-6.631,6.376c-2.806-0.765-4.208-1.658-4.208-1.658
				l-2.295-33.41L419.777,318.791z"/>
		</g>
		<g>
			<g>
				<path style="fill:#FFFFFF;stroke:#263238;stroke-linecap:round;stroke-linejoin:round;stroke-miterlimit:10;" d="
					M433.741,299.639c0,0,28.925-14.672,29.361-15.246c0.436-0.574,1.194-6.341,1.844-7.691c0.65-1.349,6.141-2.614,6.658-2.471
					c0.517,0.143,0.672,3.104,0.672,3.104s1.634-0.383,1.372,1.073c-0.263,1.456-0.57,2.066-1.617,2.333
					c-1.047,0.267-1.256,3.545-2.659,5.103c-1.403,1.559-4.729,2.03-4.729,2.03l-24.285,19.01L433.741,299.639z"/>
				<path style="fill:none;stroke:#263238;stroke-linecap:round;stroke-linejoin:round;stroke-miterlimit:10;" d="M472.276,277.334
					c0,0-2.552,0.686-3.033,0.414c-0.481-0.272,0.263-1.456,0.263-1.456"/>
			</g>
			<path style="fill:#92E3A9;stroke:#263238;stroke-linecap:round;stroke-linejoin:round;stroke-miterlimit:10;" d="
				M399.374,357.047c0,0,0.255-5.101,1.913-8.671c1.658-3.571,5.228-14.155,5.228-14.155s4.846,5.101,5.228,7.014
				c0.383,1.913,0,3.061-0.383,3.571c-0.383,0.51-10.967,10.712-10.967,10.712L399.374,357.047z"/>
			<path style="fill:#92E3A9;stroke:#263238;stroke-linecap:round;stroke-linejoin:round;stroke-miterlimit:10;" d="M437.379,305.09
				c-0.686-2.552-3.638-5.451-3.638-5.451l-18.682,2.702c-0.676-0.365-8.767-0.794-9.564-1.148c-0.83-0.368-2.04,1.275-2.04,1.275
				s-6.121,24.101-4.718,26.652c1.403,2.551,13.645,13.262,13.135,14.665c-0.51,1.403-9.436,8.034-10.712,9.692
				c-1.275,1.658-1.785,3.188-1.785,3.571c0,0.382,9.054-1.403,14.155-1.785c5.101-0.383,7.651-2.55,7.651-2.55
				s-1.913-16.195-2.04-19.638c-0.051-1.386-0.64-5.952-1.324-10.914l19.644-12.322C437.459,309.837,438.065,307.642,437.379,305.09
				z"/>
			<path style="fill:#FFFFFF;stroke:#263238;stroke-linecap:round;stroke-linejoin:round;stroke-miterlimit:10;" d="M430.86,300.511
				c0,0,3.892,3.02,4.787,6.324c0.895,3.304,0.503,4.725,0.503,4.725s3.848-1.857,4.498-3.206c0.65-1.349,0.579-5.121-1.131-6.983
				c-1.71-1.862-3.705-2.69-4.092-2.797C435.037,298.468,432.285,299.376,430.86,300.511z"/>
		</g>
		<path style="fill:#92E3A9;stroke:#263238;stroke-linecap:round;stroke-linejoin:round;stroke-miterlimit:10;" d="M393.062,304.316
			c0,0-7.738,12.072-10.418,17.564c-2.679,5.493-3.081,10.986-3.081,10.986s-1.072-11.655,0.268-14.737
			c1.34-3.081,7.368-15.54,7.368-15.54L393.062,304.316z"/>
		<path style="fill:#263238;stroke:#263238;stroke-linecap:round;stroke-linejoin:round;stroke-miterlimit:10;" d="M384.52,301.517
			c0,0-5.091,10.986-5.627,13.799c-0.536,2.813,0.236,5.777,0.236,5.777l9.544-18.102L384.52,301.517z"/>
		<path style="fill:#FFFFFF;stroke:#263238;stroke-linecap:round;stroke-linejoin:round;stroke-miterlimit:10;" d="M393.899,301.99
			c0,0-3.918,9-1.556,9.821c2.362,0.821,6.777-2.464,8.728-5.339s3.756-8.288,3.756-8.288L393.899,301.99z"/>
		<path style="fill:#263238;stroke:#263238;stroke-linecap:round;stroke-linejoin:round;stroke-miterlimit:10;" d="M396.964,271.664
			c0,0-1.335,1.746-2.567,1.848c-1.232,0.103-2.259-3.491-4.826-5.237c-2.567-1.746-8.83,0.308-9.857,2.978
			c-1.027,2.67,1.335,2.362,2.362,4.518c1.027,2.156,0,3.183-1.438,3.286c-1.437,0.103-4.004,3.08-3.594,5.545
			c0.411,2.464,3.594,3.697,4.826,3.286s3.799-0.924,4.004,1.027c0.205,1.951-1.54,0-3.696,2.875
			c-2.156,2.875-0.924,5.134,1.232,5.647c2.156,0.513,4.415,1.438,3.902,2.362c-0.513,0.924-2.67,1.232-1.232,3.388
			c1.438,2.156,3.286,1.848,4.107,1.232c0.821-0.616,2.259,0,2.259,0s-1.951-6.058-1.643-9.857
			c0.308-3.799,2.156-9.652,3.491-11.808c1.335-2.156,5.545-6.982,6.058-8.625C400.865,272.485,398.298,270.739,396.964,271.664z"/>
		<g>
			<path style="fill:#FFFFFF;stroke:#263238;stroke-linecap:round;stroke-linejoin:round;stroke-miterlimit:10;" d="
				M395.645,280.155c0,0-2.769,3.415-3.046,4.616c-0.277,1.2-0.462,2.677-0.646,3.138c-0.185,0.462-1.292,2.308-1.385,4.431
				c-0.092,2.123-0.092,8.308,1.385,10.154c1.477,1.846,3.046,1.569,4.339,1.2c1.292-0.369,7.477-2.954,7.939-3.877
				c0.462-0.923,3.692-3.969,4.8-8.493c1.108-4.523,1.662-6.831,0.554-9.6c-1.108-2.769-4.708-4.616-8.123-3.785
				C398.045,278.771,395.645,280.155,395.645,280.155z"/>
			<path style="fill:none;stroke:#263238;stroke-linecap:round;stroke-linejoin:round;stroke-miterlimit:10;" d="M399.615,289.294
				c0,0,2.308-0.185,3.323,1.569"/>
			<path style="fill:none;stroke:#263238;stroke-linecap:round;stroke-linejoin:round;stroke-miterlimit:10;" d="M393.522,286.617
				c0,0,1.292-0.369,1.846,0.646"/>
			<path style="fill:none;stroke:#263238;stroke-linecap:round;stroke-linejoin:round;stroke-miterlimit:10;" d="M400.999,285.417
				c0,0,2.585-0.092,3.416,2.677"/>
			<path style="fill:none;stroke:#263238;stroke-linecap:round;stroke-linejoin:round;stroke-miterlimit:10;" d="M396.753,283.755
				c0,0-1.2-1.385-3.139-0.277"/>
			<path style="fill:none;stroke:#263238;stroke-linecap:round;stroke-linejoin:round;stroke-miterlimit:10;" d="M394.26,291.325
				c0,0-1.015,0.554-0.738,1.385c0.277,0.831,1.292,1.016,1.292,1.016"/>
			<path style="fill:none;stroke:#263238;stroke-linecap:round;stroke-linejoin:round;stroke-miterlimit:10;" d="M392.968,295.571
				c0,0,2.677,1.754,6.462,0.185c0,0-3.692,2.954-4.8,3.139C393.522,299.079,392.968,295.571,392.968,295.571z"/>
			<path style="fill:none;stroke:#263238;stroke-linecap:round;stroke-linejoin:round;stroke-miterlimit:10;" d="M396.568,284.771
				c0,0,0.554,0.554,0.185,1.846c-0.369,1.292-1.2,1.939-1.2,1.939"/>
		</g>
		<path style="fill:#263238;stroke:#263238;stroke-linecap:round;stroke-linejoin:round;stroke-miterlimit:10;" d="M407.025,301.193
			c0,0-0.51,10.967,1.275,18.49c1.785,7.524,5.866,13.39,7.906,15.685c2.04,2.295,5.866,4.591,5.866,4.591l-0.638-5.483
			c0,0-5.228-5.101-7.906-13.39c-2.678-8.289-2.295-19.001-2.295-19.001L407.025,301.193z"/>
		<path style="fill:#263238;stroke:#263238;stroke-linecap:round;stroke-linejoin:round;stroke-miterlimit:10;" d="M409.183,280.494
			c0,0-0.616,2.875-0.411,5.442c0.205,2.567,0.097,4.075-0.875,4.144c-2.475,0.175-1.795,3.249-2,4.994
			c-0.205,1.746,0.924,2.67,0.411,2.978c-0.513,0.308-1.232,1.643-1.643,2.772c-0.411,1.129,1.745,2.156,1.54,3.799
			c-0.205,1.643-2.67,1.643-1.951,4.415c0.719,2.772,3.286,2.259,5.134,2.772c1.848,0.513,4.21,4.313,6.469,3.799
			s1.643-3.594,4.313-5.134c2.67-1.54,7.906,0.513,8.009-3.902c0.103-4.415-2.464-7.085-5.955-8.728
			c-3.491-1.643-1.232-4.518-0.205-5.955c1.027-1.438,3.286-4.826,0.616-9.96c-2.67-5.134-6.777-6.058-7.804-6.674
			c-1.027-0.616-3.286-1.027-6.366-4.415c-3.08-3.388-6.777-3.594-9.857-1.54c-3.08,2.054-1.951,5.237-2.362,5.545
			c-0.411,0.308-2.875,0.411-3.08,1.746c-0.205,1.335,1.335,3.08,1.335,3.08s4.723-2.259,6.161-0.719
			C402.098,280.494,408.258,281.418,409.183,280.494z"/>
		<path style="fill:none;stroke:#263238;stroke-linecap:round;stroke-linejoin:round;stroke-miterlimit:10;" d="M411.871,343.785
			c0,0,0.893-4.463-0.128-10.457c-1.02-5.993-1.315-6.736-1.315-6.736"/>
		<path style="fill:#92E3A9;stroke:#263238;stroke-linecap:round;stroke-linejoin:round;stroke-miterlimit:10;" d="M379.863,332.053
			c0,0,0.357,3.181,1.275,5.228c1.542,3.436,4.591,10.584,4.463,11.987s-2.633,9.07-2.633,9.07s-6.676-5.245-7.441-6.52
			c-0.765-1.275,3.061-4.718,4.081-8.289C380.628,339.959,378.843,333.711,379.863,332.053z"/>
	</g>
</g>
<g id="Character_1">
	<g>
		<path style="fill:#FFFFFF;stroke:#263238;stroke-linecap:round;stroke-linejoin:round;stroke-miterlimit:10;" d="M57.152,252.989
			c0,0,0.523,1.616,1.331,2.471c0.808,0.855,1.331,1.283,1.283,0.428c-0.047-0.855-0.95-2.424-0.95-2.424
			S57.294,251.706,57.152,252.989z"/>
		<path style="fill:#FFFFFF;stroke:#263238;stroke-linecap:round;stroke-linejoin:round;stroke-miterlimit:10;" d="M78.793,303.645
			l-3.765-13.152c0,0-2.263-12.164-3.253-15.701c-0.99-3.536-4.243-14.613-4.243-14.613s1.839-8.911,1.697-9.477
			c-0.141-0.566-4.809-3.112-5.516-3.678c-0.707-0.566-2.546,0.141-2.546,0.141s-2.263-0.424-2.97-0.849
			c-0.707-0.424-1.697,1.273-0.99,2.122c0.707,0.849,0.707,0.849,0.707,0.849s-0.566,2.829-0.424,3.536
			c0.141,0.707,2.829,2.97,2.829,2.97s-0.283,3.395,0.566,4.526c0.849,1.132,2.123,3.223,2.123,3.223s0.778,19.919,2.475,24.587
			c1.697,4.668,2.191,10.142,2.191,10.142l3.623,16.83L78.793,303.645z"/>
		<path style="fill:#FFFFFF;stroke:#263238;stroke-linecap:round;stroke-linejoin:round;stroke-miterlimit:10;" d="M64.42,259.896
			c0,0-1.839-1.839-2.263-3.536c-0.424-1.697-1.132-5.375-1.132-5.375l-3.112-1.697"/>
		<path style="fill:none;stroke:#263238;stroke-linecap:round;stroke-linejoin:round;stroke-miterlimit:10;" d="M61.167,247.166
			c0,0,2.263,1.132,2.546,1.556c0.283,0.424,0.849,1.414,0.849,1.414"/>
		<path style="fill:none;stroke:#263238;stroke-linecap:round;stroke-linejoin:round;stroke-miterlimit:10;" d="M57.772,250.702
			c0,0,1.414,1.556,3.253,2.122"/>
		<path style="fill:none;stroke:#263238;stroke-linecap:round;stroke-linejoin:round;stroke-miterlimit:10;" d="M61.025,250.985
			l-0.283,3.536c-0.99,0.142-3.253-1.697-3.253-1.697"/>
		<g>
			<path style="fill:#263238;stroke:#263238;stroke-linecap:round;stroke-linejoin:round;stroke-miterlimit:10;" d="M73.418,325.993
				c0,0-15.842,24.046-15.983,30.552c-0.141,6.507,8.204,12.023,9.477,12.023s11.882-39.464,11.174-42.293
				C77.378,323.448,74.549,324.296,73.418,325.993z"/>
			<path style="fill:#B5B5B5;stroke:#263238;stroke-linecap:round;stroke-linejoin:round;stroke-miterlimit:10;" d="M57.434,357.96
				c0,0,4.668-4.243,8.77-4.668c4.102-0.424,5.516,1.414,5.092,3.112c-0.424,1.697-4.385,12.164-4.385,12.164
				S58.99,366.164,57.434,357.96z"/>
		</g>
		<path style="fill:#263238;stroke:#263238;stroke-linecap:round;stroke-linejoin:round;stroke-miterlimit:10;" d="M67.471,377.228
			c0,0-6.707,15.071-9.624,22.911c-2.917,7.839-4.394,20.463-4.551,22.661c-0.247,3.463,0.32,5.84,0.32,5.84
			s-0.365,16.408-0.729,17.137c-0.365,0.729-0.729,4.74,0,6.016c0.729,1.276,2.188,2.735,2.188,2.735s-2.552,4.74-4.011,8.386
			c-1.459,3.646-3.282,8.386-0.182,10.209c3.099,1.823,6.198-1.276,7.839-4.558c1.641-3.282,2.37-6.745,2.552-9.48
			c0.182-2.735,0.729-2.552,1.276-4.558c0.547-2.005,1.937-4.971,1.937-4.971s1.312-7.161,1.494-9.714
			c0.182-2.552,2.037-16.125,2.037-16.125c-0.401-0.47,13.502-25.605,14.585-25.888c1.029-0.269,4.74,8.022,5.834,13.309
			c1.094,5.287,1.458,14.22,1.276,19.689c-0.182,5.469-4.74,20.236-4.74,20.965c0,0.729-2.188,1.276-2.188,2.37
			c0,1.094,0,6.745-0.182,7.839c-0.182,1.094-1.641,5.834-0.365,6.745c1.276,0.911,5.287,1.276,5.287,1.276
			s8.204,3.099,11.121,2.735c2.917-0.365,2.37-3.099,1.276-4.193c-1.094-1.094-4.74-5.834-4.74-5.834s0.911-0.911,0.911-2.735
			c0-1.823,0-1.458,0.182-4.74c0.182-3.282,5.469-16.59,5.652-18.96s2.917-7.292,3.281-12.032c0.365-4.74,0-15.678,0-19.689
			s-0.182-22.424-0.182-22.424l-36.097-8.568L67.471,377.228z"/>
		<g>
			<path style="fill:#92E3A9;stroke:#263238;stroke-linecap:round;stroke-linejoin:round;stroke-miterlimit:10;" d="M91.295,315.582
				l-8.098-3.999l-4.799-9.798l-8.498,14.796l3.699,15.296c0,0-3.799,12.697-4.799,20.095c-1,7.398-4.436,25.225-4.436,25.225
				s6.931,5.092,10.891,8.487c3.961,3.395,7.921,5.658,7.921,5.658l2.122-6.224l0.566,6.082c0,0,5.234-0.141,10.326-1.697
				c5.092-1.556,10.891-5.516,10.891-5.516l-1.839-24.612l3.253-12.872l1.697,7.497l12.306-8.628l-7.355-18.812l-12.73-7.214
				L91.295,315.582z"/>
			<g>
				<polyline style="fill:none;stroke:#263238;stroke-linecap:round;stroke-linejoin:round;stroke-miterlimit:10;" points="
					106.193,339.598 108.496,346.503 103.797,342.293 				"/>
				
					<line style="fill:none;stroke:#263238;stroke-linecap:round;stroke-linejoin:round;stroke-miterlimit:10;" x1="81.935" y1="344.09" x2="95.112" y2="362.958"/>
				
					<line style="fill:none;stroke:#263238;stroke-linecap:round;stroke-linejoin:round;stroke-miterlimit:10;" x1="90.125" y1="361.04" x2="92.117" y2="362.958"/>
				
					<line style="fill:none;stroke:#263238;stroke-linecap:round;stroke-linejoin:round;stroke-miterlimit:10;" x1="84.031" y1="355.171" x2="88.126" y2="359.114"/>
			</g>
		</g>
		<path style="fill:#92E3A9;stroke:#263238;stroke-linecap:round;stroke-linejoin:round;stroke-miterlimit:10;" d="M90.895,313.682
			c0,0-3.499,3.699-3.799,6.598c-0.3,2.899-0.5,5.399-0.5,5.399s6.198-3.599,7.198-3.599c1,0,3.599,2.399,3.899,3.799
			c0.3,1.4,1.2,3.599,1.2,3.599s4.199-3.799,3.999-8.398c-0.2-4.599-1.6-5.699-1.6-5.699L90.895,313.682z"/>
		<path style="fill:#FFFFFF;stroke:#263238;stroke-linecap:round;stroke-linejoin:round;stroke-miterlimit:10;" d="M91.995,314.582
			c0,0-0.4,5.498-0.2,8.298c0.2,2.799,0.9,3.899,1.5,3.599c0.6-0.3,7.098-6.998,7.798-7.798s1.999-3.399,1.999-3.399L91.995,314.582
			z"/>
		<g>
			<g>
				<path style="fill:#FFFFFF;stroke:#263238;stroke-linecap:round;stroke-linejoin:round;stroke-miterlimit:10;" d="
					M89.396,297.687c0,0-0.8,11.797,0,13.996c0.8,2.199,3.399,5.699,5.699,6.898c2.299,1.2,7.998-2.399,9.697-3.699
					c1.7-1.3,2.699-4.899,2.699-4.899l1.899-9.797c0,0,0.7-4.899-0.5-7.098c-1.2-2.199-8.498-5.898-13.396-4.299
					c-4.899,1.6-5.699,4.599-5.898,5.499C89.396,295.187,89.396,297.687,89.396,297.687z"/>
				<path style="fill:none;stroke:#263238;stroke-linecap:round;stroke-linejoin:round;stroke-miterlimit:10;" d="M91.995,297.587
					c0,0,1.999-1.4,3.999-0.1"/>
				<path style="fill:none;stroke:#263238;stroke-linecap:round;stroke-linejoin:round;stroke-miterlimit:10;" d="M101.892,298.386
					c0,0,3.099-0.6,4.199,2.499"/>
				<path style="fill:none;stroke:#263238;stroke-linecap:round;stroke-linejoin:round;stroke-miterlimit:10;" d="M95.994,306.984
					c0,0,0.7,1.2,1.3,1.1s1.899-0.7,1.899-0.7"/>
				<path style="fill:none;stroke:#263238;stroke-linecap:round;stroke-linejoin:round;stroke-miterlimit:10;" d="M93.695,309.084
					c0,0,1.8,1.799,3.699,1.9s3.299-0.5,3.299-0.5s-2.599,3.199-4.199,3.499C94.894,314.282,93.695,309.084,93.695,309.084z"/>
				<path style="fill:#263238;" d="M94.792,302.097c-0.061,0.743-0.446,1.317-0.858,1.283c-0.413-0.034-0.698-0.664-0.636-1.407
					c0.061-0.743,0.446-1.317,0.858-1.283C94.568,300.724,94.853,301.354,94.792,302.097z"/>
				<path style="fill:#263238;" d="M103.236,303.68c-0.094,0.739-0.504,1.296-0.914,1.244c-0.411-0.052-0.667-0.694-0.573-1.434
					c0.094-0.739,0.504-1.296,0.914-1.244C103.074,302.298,103.33,302.94,103.236,303.68z"/>
			</g>
			<path style="fill:none;stroke:#263238;stroke-linecap:round;stroke-linejoin:round;stroke-miterlimit:10;" d="M108.591,302.985
				c0,0,1.999-1.2,2.399,0.8c0.4,1.999-1.3,4.399-2.399,5.299c-1.1,0.9-1.1,0.9-1.1,0.9L108.591,302.985z"/>
			<path style="fill:none;stroke:#263238;stroke-linecap:round;stroke-linejoin:round;stroke-miterlimit:10;" d="M89.096,299.686
				c0,0-1.4-0.9-1.6,1.2c-0.2,2.099,1.6,5.998,1.6,5.998V299.686z"/>
			<path style="fill:#263238;stroke:#263238;stroke-linecap:round;stroke-linejoin:round;stroke-miterlimit:10;" d="
				M106.691,293.388c0,0-0.9,1.6-0.3,2.799c0.6,1.2,1,2.899,1.1,3.599c0.1,0.7,0.6,5.099,1,4.599c0.4-0.5,2.399-4.499,2.899-5.898
				s1.4-3.699,0.7-5.099c-0.7-1.4-3.099-3.299-3.099-3.299s0.1-3.299-1.799-4.699c-1.9-1.4-8.298-2.999-12.097-1.4
				c-3.799,1.6-5.499,3.699-5.399,4.399c0.1,0.7,0.3,1.5,0.3,1.5s-1.5,1.3-1.4,2.899s1,5.998,1,5.998s1.5-5.299,2.099-5.798
				c0.6-0.5,5.898-3.199,6.698-2.899C99.193,290.388,104.992,293.488,106.691,293.388z"/>
		</g>
		<path style="fill:#263238;stroke:#263238;stroke-linecap:round;stroke-linejoin:round;stroke-miterlimit:10;" d="M83.197,311.583
			c0,0-10.345,18.088-11.477,21.624c-1.132,3.536-0.424,8.345-0.424,8.345s11.316-22.631,17.398-27.158
			C88.694,314.395,84.773,312.024,83.197,311.583z"/>
		<g>
			<polygon style="fill:#B5B5B5;stroke:#263238;stroke-linecap:round;stroke-linejoin:round;stroke-miterlimit:10;" points="
				88.089,375.488 93.797,397.953 117.598,389.817 112.133,367.837 			"/>
			<polygon style="fill:#FFFFFF;stroke:#263238;stroke-linecap:round;stroke-linejoin:round;stroke-miterlimit:10;" points="
				92.461,375.366 98.047,397.589 121.848,389.21 115.897,368.445 			"/>
			<polygon style="fill:#FFFFFF;stroke:#263238;stroke-linecap:round;stroke-linejoin:round;stroke-miterlimit:10;" points="
				92.461,375.366 95.497,398.196 98.047,397.589 			"/>
		</g>
		<path style="fill:#FFFFFF;stroke:#263238;stroke-linecap:round;stroke-linejoin:round;stroke-miterlimit:10;" d="M112.133,352.658
			l2.429,7.65c0,0-0.729,11.658-1.7,16.272c-0.971,4.615-1.7,8.865-1.7,8.865s-3.4,1.822-3.643,2.55
			c-0.243,0.729-0.607,2.55-1.214,3.157c-0.607,0.607-1.579,1.214-0.729,1.457c0.85,0.243,2.186-0.364,2.186-0.364l1.093-0.607
			c0,0-1.214,4.372-0.85,4.615c0.364,0.243,1.457,0.364,1.7,0c0.243-0.364,1.457-1.457,1.457-1.457s3.764-0.729,4.25-2.307
			c0.486-1.579,1.214-7.286,1.093-8.015c-0.122-0.729,3.157-9.472,5.1-15.301c1.943-5.829,2.429-12.265,2.429-12.265l-2.914-10.322
			L112.133,352.658z"/>
	</g>
</g>
</svg>
